Jost-BlackItalic.ufo
<glyph name="exclam" format="1">
  <advance width="359"/>
  <unicode hex="0021"/>
  <outline>
    <contour>
      <point x="155" y="700" type="line"/>
      <point x="390" y="700" type="line"/>
      <point x="275" y="250" type="line"/>
      <point x="115" y="250" type="line"/>
    </contour>
    <contour>
      <point x="48.5" y="75" type="curve" smooth="yes"/>
      <point x="48.5" y="138"/>
      <point x="96.5" y="180"/>
      <point x="166.5" y="180" type="curve" smooth="yes"/>
      <point x="236.5" y="180"/>
      <point x="284.5" y="138"/>
      <point x="284.5" y="75" type="curve" smooth="yes"/>
      <point x="284.5" y="12"/>
      <point x="236.5" y="-30"/>
      <point x="166.5" y="-30" type="curve" smooth="yes"/>
      <point x="96.5" y="-30"/>
      <point x="48.5" y="12"/>
    </contour>
  </outline>
</glyph>
<glyph name="quotedbl" format="1">
  <advance width="533"/>
  <unicode hex="0022"/>
  <outline>
    <contour>
      <point x="176" y="700" type="line"/>
      <point x="375.5" y="699.5" type="line"/>
      <point x="212.5" y="370.5" type="line"/>
      <point x="85.5" y="370" type="line"/>
    </contour>
    <contour>
      <point x="399.5" y="700" type="line"/>
      <point x="599" y="699.5" type="line"/>
      <point x="435.5" y="370.5" type="line"/>
      <point x="309" y="370" type="line"/>
    </contour>
  </outline>
</glyph>
<glyph name="numbersign" format="2">
  <advance width="684"/>
  <unicode hex="0023"/>
  <outline>
    <contour>
      <point x="114.5" y="395.5" type="line"/>
      <point x="138.5" y="550" type="line"/>
      <point x="719" y="550" type="line"/>
      <point x="692" y="395" type="line"/>
      <point x="537" y="395" type="line"/>
      <point x="502" y="405" type="line"/>
      <point x="296.5" y="405" type="line"/>
      <point x="261.5" y="395" type="line"/>
    </contour>
    <contour>
      <point x="31" y="155" type="line"/>
      <point x="58.5" y="310" type="line"/>
      <point x="196.5" y="310" type="line"/>
      <point x="235.5" y="300" type="line"/>
      <point x="476" y="300" type="line"/>
      <point x="512.5" y="310" type="line"/>
      <point x="639.5" y="310" type="line"/>
      <point x="612" y="155" type="line"/>
    </contour>
    <contour>
      <point x="558.5" y="699.5" type="line"/>
      <point x="727" y="699.5" type="line"/>
      <point x="441.5" y="0" type="line"/>
      <point x="275" y="0" type="line"/>
      <point x="365.5" y="222" type="line"/>
      <point x="387.5" y="251.5" type="line"/>
      <point x="469.5" y="452" type="line"/>
      <point x="475" y="492.5" type="line"/>
    </contour>
    <contour>
      <point x="308" y="700" type="line"/>
      <point x="474.5" y="699.5" type="line"/>
      <point x="389" y="492" type="line"/>
      <point x="362.5" y="450" type="line"/>
      <point x="283" y="255.5" type="line"/>
      <point x="281" y="225.5" type="line"/>
      <point x="189" y="0" type="line"/>
      <point x="23" y="0" type="line"/>
    </contour>
  </outline>
</glyph>
<glyph name="dollar" format="2">
  <advance width="627"/>
  <unicode hex="0024"/>
  <outline>
    <contour>
      <point x="364" y="818" type="line"/>
      <point x="517" y="818" type="line"/>
      <point x="475" y="618" type="line"/>
      <point x="342" y="618" type="line"/>
    </contour>
    <contour>
      <point x="258.5" y="70" type="line"/>
      <point x="390.5" y="70" type="line"/>
      <point x="371" y="-112" type="line"/>
      <point x="219.5" y="-112" type="line"/>
    </contour>
    <contour>
      <point x="500.5" y="474.5" type="line"/>
      <point x="479" y="522"/>
      <point x="451" y="558.5"/>
      <point x="409" y="558.5" type="curve" smooth="yes"/>
      <point x="375.5" y="558.5"/>
      <point x="348.5" y="536"/>
      <point x="343" y="513" type="curve" smooth="yes"/>
      <point x="331" y="460"/>
      <point x="420" y="446.5"/>
      <point x="479" y="424" type="curve" smooth="yes"/>
      <point x="579" y="384.5"/>
      <point x="637" y="306.5"/>
      <point x="623.5" y="199.5" type="curve" smooth="yes"/>
      <point x="603.5" y="56.5"/>
      <point x="462" y="-11"/>
      <point x="302.5" y="-10" type="curve" smooth="yes"/>
      <point x="177.5" y="-9"/>
      <point x="68.5" y="64"/>
      <point x="25.5" y="159.5" type="curve"/>
      <point x="182.5" y="266" type="line"/>
      <point x="220" y="201"/>
      <point x="256" y="158"/>
      <point x="323" y="158.5" type="curve" smooth="yes"/>
      <point x="360.5" y="158.5"/>
      <point x="390.5" y="171"/>
      <point x="396" y="202" type="curve" smooth="yes"/>
      <point x="404" y="242.5"/>
      <point x="339.5" y="258"/>
      <point x="283.5" y="281" type="curve" smooth="yes"/>
      <point x="204" y="316"/>
      <point x="108" y="388.5"/>
      <point x="122" y="510.5" type="curve" smooth="yes"/>
      <point x="139.5" y="628.5"/>
      <point x="270" y="709.5"/>
      <point x="414.5" y="710" type="curve" smooth="yes"/>
      <point x="551" y="710.5"/>
      <point x="621.5" y="651"/>
      <point x="670" y="562.5" type="curve"/>
    </contour>
  </outline>
</glyph>
<glyph name="percent" format="2">
  <advance width="990"/>
  <unicode hex="0025"/>
  <outline>
    <contour>
      <point x="75.5" y="525.5" type="curve" smooth="yes"/>
      <point x="90.5" y="633.5"/>
      <point x="193.5" y="724.5"/>
      <point x="307" y="724.5" type="curve" smooth="yes"/>
      <point x="419" y="724.5"/>
      <point x="497" y="630"/>
      <point x="482.5" y="524.5" type="curve" smooth="yes"/>
      <point x="467.5" y="416.5"/>
      <point x="364" y="325.5"/>
      <point x="250.5" y="325.5" type="curve" smooth="yes"/>
      <point x="138.5" y="325.5"/>
      <point x="61" y="420"/>
    </contour>
    <contour>
      <point x="229" y="523.5" type="curve" smooth="yes"/>
      <point x="226.5" y="501"/>
      <point x="243" y="476.5"/>
      <point x="272.5" y="476.5" type="curve" smooth="yes"/>
      <point x="298.5" y="476.5"/>
      <point x="325.5" y="502"/>
      <point x="328.5" y="526.5" type="curve" smooth="yes"/>
      <point x="331" y="549"/>
      <point x="315" y="573.5"/>
      <point x="285.5" y="573.5" type="curve" smooth="yes"/>
      <point x="259.5" y="573.5"/>
      <point x="232" y="548"/>
    </contour>
    <contour>
      <point x="574" y="176.5" type="curve" smooth="yes"/>
      <point x="589" y="284.5"/>
      <point x="692" y="375.5"/>
      <point x="805.5" y="375.5" type="curve" smooth="yes"/>
      <point x="917.5" y="375.5"/>
      <point x="995" y="281"/>
      <point x="980.5" y="175.5" type="curve" smooth="yes"/>
      <point x="965.5" y="67.5"/>
      <point x="862.5" y="-23.5"/>
      <point x="749" y="-23.5" type="curve" smooth="yes"/>
      <point x="637" y="-23.5"/>
      <point x="559.5" y="71"/>
    </contour>
    <contour>
      <point x="727.5" y="174.5" type="curve" smooth="yes"/>
      <point x="724.5" y="152"/>
      <point x="744" y="127.5"/>
      <point x="768.5" y="127.5" type="curve" smooth="yes"/>
      <point x="794.5" y="127.5"/>
      <point x="821.5" y="148"/>
      <point x="827" y="177.5" type="curve" smooth="yes"/>
      <point x="830" y="200"/>
      <point x="811" y="224.5"/>
      <point x="786.5" y="224.5" type="curve" smooth="yes"/>
      <point x="760.5" y="224.5"/>
      <point x="733" y="204"/>
    </contour>
    <contour>
      <point x="770" y="699.5" type="line"/>
      <point x="978.5" y="699.5" type="line"/>
      <point x="286" y="0" type="line"/>
      <point x="77.5" y="0" type="line"/>
    </contour>
  </outline>
</glyph>
<glyph name="ampersand" format="2">
  <advance width="775"/>
  <unicode hex="0026"/>
  <outline>
    <contour>
      <point x="257.5" y="364" type="line" smooth="yes"/>
      <point x="214.5" y="420"/>
      <point x="183.5" y="471.5"/>
      <point x="192" y="536.5" type="curve" smooth="yes"/>
      <point x="207" y="636"/>
      <point x="318" y="720.5"/>
      <point x="451.5" y="720.5" type="curve" smooth="yes"/>
      <point x="574.5" y="720.5"/>
      <point x="659.5" y="639.5"/>
      <point x="646.5" y="543.5" type="curve" smooth="yes"/>
      <point x="633.5" y="436"/>
      <point x="542.5" y="393.5"/>
      <point x="435.5" y="328" type="curve" smooth="yes"/>
      <point x="370.5" y="289"/>
      <point x="263" y="281"/>
      <point x="251.5" y="208.5" type="curve" smooth="yes"/>
      <point x="245.5" y="174"/>
      <point x="269" y="147.5"/>
      <point x="316.5" y="145.5" type="curve" smooth="yes"/>
      <point x="435" y="138.5"/>
      <point x="551" y="253.5"/>
      <point x="626" y="355.5" type="curve"/>
      <point x="737.5" y="253.5" type="line"/>
      <point x="638" y="125.5"/>
      <point x="473" y="-16"/>
      <point x="272.5" y="-15" type="curve" smooth="yes"/>
      <point x="140.5" y="-14.5"/>
      <point x="32" y="61.5"/>
      <point x="49.5" y="190.5" type="curve" smooth="yes"/>
      <point x="69.5" y="347.5"/>
      <point x="249.5" y="382.5"/>
      <point x="347.5" y="422" type="curve" smooth="yes"/>
      <point x="406.5" y="446.5"/>
      <point x="471" y="480.5"/>
      <point x="475.5" y="523" type="curve" smooth="yes"/>
      <point x="477" y="542.5"/>
      <point x="461.5" y="569.5"/>
      <point x="429.5" y="569.5" type="curve" smooth="yes"/>
      <point x="396" y="569.5"/>
      <point x="375" y="546.5"/>
      <point x="370" y="520.5" type="curve" smooth="yes"/>
      <point x="362.5" y="478"/>
      <point x="399" y="436.5"/>
      <point x="441.5" y="385" type="curve" smooth="yes"/>
      <point x="741" y="0" type="line"/>
      <point x="533" y="0" type="line"/>
    </contour>
  </outline>
</glyph>
<glyph name="quotesingle" format="2">
  <advance width="310"/>
  <unicode hex="0027"/>
  <outline>
    <contour>
      <point x="176" y="700" type="line"/>
      <point x="375.5" y="699.5" type="line"/>
      <point x="212.5" y="370.5" type="line"/>
      <point x="85.5" y="370" type="line"/>
    </contour>
  </outline>
</glyph>
<glyph name="parenleft" format="2">
  <advance width="349"/>
  <unicode hex="0028"/>
  <outline>
    <contour>
      <point x="273" y="779.5" type="curve"/>
      <point x="447.5" y="779" type="line"/>
      <point x="361.5" y="627.5"/>
      <point x="290" y="463.5"/>
      <point x="262" y="290" type="curve" smooth="yes"/>
      <point x="236.5" y="126"/>
      <point x="250.5" y="-43"/>
      <point x="299" y="-200.5" type="curve"/>
      <point x="129.5" y="-200.5" type="line"/>
      <point x="73" y="-43.5"/>
      <point x="56" y="125"/>
      <point x="79.5" y="290" type="curve" smooth="yes"/>
      <point x="106" y="464.5"/>
      <point x="175.5" y="631.5"/>
    </contour>
  </outline>
</glyph>
<glyph name="parenright" format="2">
  <advance width="349"/>
  <unicode hex="0029"/>
  <outline>
    <contour>
      <point x="131" y="-199.5" type="curve"/>
      <point x="-43" y="-199" type="line"/>
      <point x="43" y="-47.5"/>
      <point x="114.5" y="116.5"/>
      <point x="142.5" y="290" type="curve" smooth="yes"/>
      <point x="168" y="454"/>
      <point x="154" y="623"/>
      <point x="105.5" y="780.5" type="curve"/>
      <point x="275" y="780.5" type="line"/>
      <point x="331.5" y="623.5"/>
      <point x="348.5" y="455"/>
      <point x="325" y="290" type="curve" smooth="yes"/>
      <point x="298.5" y="115.5"/>
      <point x="228.5" y="-51.5"/>
    </contour>
  </outline>
</glyph>
<glyph name="asterisk" format="2">
  <advance width="574"/>
  <unicode hex="002A"/>
  <outline>
    <contour>
      <point x="573" y="606" type="line"/>
      <point x="600.5" y="434" type="line"/>
      <point x="340.5" y="396.5" type="line"/>
      <point x="327" y="484" type="line"/>
    </contour>
    <contour>
      <point x="529" y="281" type="line"/>
      <point x="369" y="174.5" type="line"/>
      <point x="296.5" y="418.5" type="line"/>
      <point x="369.5" y="466" type="line"/>
    </contour>
    <contour>
      <point x="217.5" y="177.5" type="line"/>
      <point x="88.5" y="287.5" type="line"/>
      <point x="301" y="465.5" type="line"/>
      <point x="366.5" y="412.5" type="line"/>
    </contour>
    <contour>
      <point x="67.5" y="436" type="line"/>
      <point x="147.5" y="605" type="line"/>
      <point x="358" y="479" type="line"/>
      <point x="319" y="398" type="line"/>
    </contour>
    <contour>
      <point x="289" y="700" type="line"/>
      <point x="470.5" y="699.5" type="line"/>
      <point x="380" y="440.5" type="line"/>
      <point x="293" y="440" type="line"/>
    </contour>
  </outline>
</glyph>
<glyph name="plus" format="2">
  <advance width="689"/>
  <unicode hex="002B"/>
  <outline>
    <contour>
      <point x="65.5" y="185" type="line"/>
      <point x="98" y="370" type="line"/>
      <point x="664" y="370" type="line"/>
      <point x="631.5" y="185" type="line"/>
    </contour>
    <contour>
      <point x="315.5" y="565" type="line"/>
      <point x="513" y="565" type="line"/>
      <point x="414" y="-10" type="line"/>
      <point x="216.5" y="-10" type="line"/>
    </contour>
  </outline>
</glyph>
<glyph name="comma" format="2">
  <advance width="323"/>
  <unicode hex="002C"/>
  <outline>
    <contour>
      <point x="88.5" y="109" type="line"/>
      <point x="278.5" y="74" type="line"/>
      <point x="105.5" y="-173" type="line"/>
      <point x="-41" y="-147" type="line"/>
    </contour>
  </outline>
</glyph>
<glyph name="hyphen" format="2">
  <advance width="223"/>
  <unicode hex="002D"/>
  <outline>
    <contour>
      <point x="2" y="155" type="line"/>
      <point x="31" y="320" type="line"/>
      <point x="248" y="320" type="line"/>
      <point x="219" y="155" type="line"/>
    </contour>
  </outline>
</glyph>
<glyph name="zero" format="2">
  <advance width="679"/>
  <unicode hex="0030"/>
  <outline>
    <contour>
      <point x="276.5" y="350" type="curve" smooth="yes"/>
      <point x="268.5" y="272"/>
      <point x="267" y="173"/>
      <point x="336" y="170.5" type="curve" smooth="yes"/>
      <point x="407" y="168"/>
      <point x="456" y="261.5"/>
      <point x="468" y="350" type="curve" smooth="yes"/>
      <point x="476" y="428"/>
      <point x="477.5" y="527"/>
      <point x="408.5" y="529.5" type="curve" smooth="yes"/>
      <point x="337.5" y="532"/>
      <point x="288.5" y="438.5"/>
    </contour>
    <contour>
      <point x="70" y="350" type="curve" smooth="yes"/>
      <point x="98.5" y="559.5"/>
      <point x="234" y="715"/>
      <point x="428.5" y="715" type="curve" smooth="yes"/>
      <point x="630.5" y="715"/>
      <point x="700.5" y="550.5"/>
      <point x="675" y="350" type="curve" smooth="yes"/>
      <point x="646.5" y="139.5"/>
      <point x="516.5" y="-15.5"/>
      <point x="316" y="-15" type="curve" smooth="yes"/>
      <point x="120.5" y="-14.5"/>
      <point x="44.5" y="150.5"/>
    </contour>
  </outline>
</glyph>
<glyph name="one" format="2">
  <advance width="528"/>
  <unicode hex="0031"/>
  <outline>
    <contour>
      <point x="106.5" y="457.5" type="line"/>
      <point x="139.5" y="643" type="line"/>
      <point x="539" y="716.5" type="line"/>
      <point x="416" y="0" type="line"/>
      <point x="208.5" y="0" type="line"/>
      <point x="294" y="498" type="line"/>
    </contour>
  </outline>
</glyph>
<glyph name="five" format="2">
  <advance width="673"/>
  <unicode hex="0035"/>
  <outline>
    <contour>
      <point x="653" y="219.5" type="curve" smooth="yes"/>
      <point x="632.5" y="59"/>
      <point x="466.5" y="-14"/>
      <point x="325" y="-15" type="curve" smooth="yes"/>
      <point x="212.5" y="-15.5"/>
      <point x="119.5" y="10"/>
      <point x="37.5" y="43" type="curve"/>
      <point x="123.5" y="235.5" type="line"/>
      <point x="182.5" y="201.5"/>
      <point x="241" y="185.5"/>
      <point x="287" y="185" type="curve" smooth="yes"/>
      <point x="348.5" y="185"/>
      <point x="412" y="196.5"/>
      <point x="420" y="250.5" type="curve" smooth="yes"/>
      <point x="427.5" y="302.5"/>
      <point x="361" y="309"/>
      <point x="315.5" y="309.5" type="curve" smooth="yes"/>
      <point x="256" y="310.5"/>
      <point x="175.5" y="300"/>
      <point x="105" y="278" type="curve"/>
      <point x="264.5" y="700" type="line"/>
      <point x="706" y="700" type="line"/>
      <point x="676" y="510" type="line"/>
      <point x="395.5" y="510.5" type="line"/>
      <point x="342.399" y="421.354" type="line"/>
      <point x="382.207" y="438.118"/>
      <point x="425.615" y="445"/>
      <point x="472" y="444.5" type="curve" smooth="yes"/>
      <point x="586" y="442.5"/>
      <point x="668" y="349.5"/>
    </contour>
  </outline>
</glyph>
<glyph name="seven" format="1">
  <advance width="630"/>
  <unicode hex="0037"/>
  <outline>
    <contour>
      <point x="86" y="495" type="line"/>
      <point x="118.5" y="699.5" type="line"/>
      <point x="725.5" y="699.5" type="line"/>
      <point x="287" y="0" type="line"/>
      <point x="47.5" y="0" type="line"/>
      <point x="374.5" y="495" type="line"/>
    </contour>
  </outline>
</glyph>
<glyph name="nine" format="1">
  <advance width="704"/>
  <unicode hex="0039"/>
  <outline>
    <contour>
      <point x="494.5" y="445.5" type="curve" smooth="yes"/>
      <point x="502" y="495"/>
      <point x="472.5" y="533.5"/>
      <point x="421.5" y="534.5" type="curve" smooth="yes"/>
      <point x="369" y="535.5"/>
      <point x="321" y="496"/>
      <point x="313" y="444.5" type="curve" smooth="yes"/>
      <point x="305.5" y="395.5"/>
      <point x="334.5" y="354.5"/>
      <point x="385.5" y="353.5" type="curve" smooth="yes"/>
      <point x="438" y="352.5"/>
      <point x="486.5" y="393.5"/>
    </contour>
    <contour>
      <point x="367.5" y="5.5" type="line"/>
      <point x="87.5" y="5.5" type="line"/>
      <point x="348" y="234.5" type="line"/>
      <point x="406" y="261.5" type="line"/>
      <point x="366" y="231"/>
      <point x="334" y="217.5"/>
      <point x="285.5" y="217.5" type="curve" smooth="yes"/>
      <point x="174.5" y="217.5"/>
      <point x="84.5" y="316"/>
      <point x="98.5" y="445" type="curve" smooth="yes"/>
      <point x="119.5" y="622"/>
      <point x="272" y="720"/>
      <point x="440.5" y="720" type="curve" smooth="yes"/>
      <point x="605" y="720"/>
      <point x="731.5" y="620"/>
      <point x="709" y="445" type="curve" smooth="yes"/>
      <point x="696.5" y="356"/>
      <point x="638.5" y="285"/>
      <point x="576.5" y="220" type="curve" smooth="yes"/>
    </contour>
  </outline>
</glyph>
<glyph name="colon" format="1">
  <advance width="326"/>
  <unicode hex="003A"/>
  <outline>
    <contour>
      <point x="32.5" y="85" type="curve" smooth="yes"/>
      <point x="32.5" y="148"/>
      <point x="80.5" y="200"/>
      <point x="150.5" y="200" type="curve" smooth="yes"/>
      <point x="220.5" y="200"/>
      <point x="268.5" y="148"/>
      <point x="268.5" y="85" type="curve" smooth="yes"/>
      <point x="268.5" y="22"/>
      <point x="220.5" y="-30"/>
      <point x="150.5" y="-30" type="curve" smooth="yes"/>
      <point x="80.5" y="-30"/>
      <point x="32.5" y="22"/>
    </contour>
    <contour>
      <point x="95.5" y="454.5" type="curve" smooth="yes"/>
      <point x="95.5" y="517.5"/>
      <point x="143.5" y="569.5"/>
      <point x="213.5" y="569.5" type="curve" smooth="yes"/>
      <point x="283.5" y="569.5"/>
      <point x="331.5" y="517.5"/>
      <point x="331.5" y="454.5" type="curve" smooth="yes"/>
      <point x="331.5" y="391.5"/>
      <point x="283.5" y="339.5"/>
      <point x="213.5" y="339.5" type="curve" smooth="yes"/>
      <point x="143.5" y="339.5"/>
      <point x="95.5" y="391.5"/>
    </contour>
  </outline>
</glyph>
<glyph name="semicolon" format="2">
  <advance width="418"/>
  <unicode hex="003B"/>
  <outline>
    <contour>
      <point x="157" y="444.5" type="curve" smooth="yes"/>
      <point x="157" y="507.5"/>
      <point x="205" y="559.5"/>
      <point x="275" y="559.5" type="curve" smooth="yes"/>
      <point x="345" y="559.5"/>
      <point x="393" y="507.5"/>
      <point x="393" y="444.5" type="curve" smooth="yes"/>
      <point x="393" y="381.5"/>
      <point x="345" y="329.5"/>
      <point x="275" y="329.5" type="curve" smooth="yes"/>
      <point x="205" y="329.5"/>
      <point x="157" y="381.5"/>
    </contour>
    <contour>
      <point x="122.5" y="109" type="line"/>
      <point x="312" y="74" type="line"/>
      <point x="139.5" y="-173" type="line"/>
      <point x="-7" y="-147" type="line"/>
    </contour>
  </outline>
</glyph>
<glyph name="less" format="2">
  <advance width="621"/>
  <unicode hex="003C"/>
  <outline>
    <contour>
      <point x="340" y="266.5" type="line"/>
      <point x="563" y="175" type="line"/>
      <point x="531" y="-8.5" type="line"/>
      <point x="69" y="203" type="line"/>
      <point x="92.5" y="337" type="line"/>
      <point x="627.5" y="548" type="line"/>
      <point x="592" y="351" type="line"/>
    </contour>
  </outline>
</glyph>
<glyph name="equal" format="2">
  <advance width="614"/>
  <unicode hex="003D"/>
  <outline>
    <contour>
      <point x="28" y="50" type="line"/>
      <point x="57" y="215" type="line"/>
      <point x="577.5" y="215" type="line"/>
      <point x="548.5" y="50" type="line"/>
    </contour>
    <contour>
      <point x="68.5" y="290" type="line"/>
      <point x="98" y="455" type="line"/>
      <point x="618.5" y="455" type="line"/>
      <point x="589.5" y="290" type="line"/>
    </contour>
  </outline>
</glyph>
<glyph name="at" format="1">
  <advance width="747"/>
  <unicode hex="0040"/>
  <outline>
    <contour>
      <point x="363" y="319.5" type="curve" smooth="yes"/>
      <point x="361" y="297"/>
      <point x="359.5" y="269.5"/>
      <point x="373.5" y="265.5" type="curve" smooth="yes"/>
      <point x="400.5" y="258"/>
      <point x="435" y="328"/>
      <point x="439" y="360.5" type="curve" smooth="yes"/>
      <point x="441" y="385.5"/>
      <point x="444.5" y="410.5"/>
      <point x="429" y="414.5" type="curve" smooth="yes"/>
      <point x="398.5" y="422.5"/>
      <point x="367" y="352.5"/>
    </contour>
    <contour>
      <point x="218.5" y="310.5" type="curve" smooth="yes"/>
      <point x="231" y="423.5"/>
      <point x="305" y="531.5"/>
      <point x="395.5" y="530" type="curve" smooth="yes"/>
      <point x="469.5" y="529"/>
      <point x="503" y="445"/>
      <point x="494.5" y="369.5" type="curve" smooth="yes"/>
      <point x="483" y="256"/>
      <point x="411.5" y="151"/>
      <point x="322" y="150.5" type="curve" smooth="yes"/>
      <point x="233.5" y="150"/>
      <point x="208.5" y="226.5"/>
    </contour>
    <contour>
      <point x="35.5" y="320" type="curve" smooth="yes"/>
      <point x="69" y="541.5"/>
      <point x="260.5" y="730"/>
      <point x="494" y="730" type="curve" smooth="yes"/>
      <point x="699" y="730"/>
      <point x="804" y="558"/>
      <point x="778.5" y="390" type="curve" smooth="yes"/>
      <point x="761" y="243"/>
      <point x="667" y="137.5"/>
      <point x="547" y="140" type="curve" smooth="yes"/>
      <point x="472" y="141.5"/>
      <point x="434.5" y="194"/>
      <point x="440.5" y="260.5" type="curve"/>
      <point x="431.5" y="310.5" type="line"/>
      <point x="482" y="520" type="line"/>
      <point x="618.5" y="520" type="line"/>
      <point x="569" y="319" type="line" smooth="yes"/>
      <point x="566.5" y="311"/>
      <point x="564.5" y="301"/>
      <point x="562.5" y="292" type="curve" smooth="yes"/>
      <point x="561" y="276.5"/>
      <point x="560" y="259.5"/>
      <point x="572" y="256.5" type="curve" smooth="yes"/>
      <point x="602" y="246"/>
      <point x="640.5" y="320.5"/>
      <point x="645" y="390.5" type="curve" smooth="yes"/>
      <point x="663" y="502"/>
      <point x="622.5" y="609.5"/>
      <point x="485.5" y="609.5" type="curve" smooth="yes"/>
      <point x="318" y="609.5"/>
      <point x="196.5" y="479.5"/>
      <point x="169.5" y="320" type="curve" smooth="yes"/>
      <point x="147" y="188"/>
      <point x="200" y="87"/>
      <point x="355.5" y="85.5" type="curve" smooth="yes"/>
      <point x="422" y="85"/>
      <point x="478.5" y="104.5"/>
      <point x="535" y="125" type="curve"/>
      <point x="557.5" y="14" type="line"/>
      <point x="491.5" y="-17.5"/>
      <point x="413.5" y="-35.5"/>
      <point x="327" y="-35" type="curve" smooth="yes"/>
      <point x="108.5" y="-33.5"/>
      <point x="7" y="129.5"/>
    </contour>
  </outline>
</glyph>
<glyph name="B" format="1">
  <advance width="706"/>
  <unicode hex="0042"/>
  <outline>
    <contour>
      <point x="253" y="335" type="line"/>
      <point x="269.5" y="425" type="line"/>
      <point x="375" y="425" type="line" smooth="yes"/>
      <point x="418.5" y="425"/>
      <point x="453.5" y="446.5"/>
      <point x="460.5" y="484" type="curve" smooth="yes"/>
      <point x="466.5" y="519.5"/>
      <point x="443.5" y="534.5"/>
      <point x="403" y="535" type="curve" smooth="yes"/>
      <point x="349" y="535" type="line"/>
      <point x="282.5" y="164.5" type="line"/>
      <point x="350" y="164.5" type="line" smooth="yes"/>
      <point x="396.5" y="165.5"/>
      <point x="448.5" y="175"/>
      <point x="456" y="227.5" type="curve" smooth="yes"/>
      <point x="462.5" y="272"/>
      <point x="421" y="278.5"/>
      <point x="379.5" y="279.5" type="curve" smooth="yes"/>
      <point x="243.5" y="280" type="line"/>
      <point x="265" y="400" type="line"/>
      <point x="418.5" y="400" type="line" smooth="yes"/>
      <point x="546" y="400"/>
      <point x="694.5" y="337.5"/>
      <point x="674.5" y="191.5" type="curve" smooth="yes"/>
      <point x="654" y="48.5"/>
      <point x="523" y="-8.3276e-15"/>
      <point x="362.5" y="0" type="curve" smooth="yes"/>
      <point x="39" y="0" type="line"/>
      <point x="159" y="700" type="line"/>
      <point x="450" y="700" type="line" smooth="yes"/>
      <point x="580" y="700"/>
      <point x="711" y="646"/>
      <point x="692" y="519.5" type="curve" smooth="yes"/>
      <point x="673.5" y="394"/>
      <point x="539" y="335"/>
      <point x="400" y="335" type="curve" smooth="yes"/>
    </contour>
  </outline>
</glyph>
<glyph name="E" format="2">
  <advance width="616"/>
  <unicode hex="0045"/>
  <outline>
    <contour>
      <point x="186" y="0" type="line"/>
      <point x="217" y="175" type="line"/>
      <point x="563" y="175" type="line"/>
      <point x="532" y="0" type="line"/>
    </contour>
    <contour>
      <point x="276" y="525" type="line"/>
      <point x="306.5" y="700" type="line"/>
      <point x="652.5" y="700" type="line"/>
      <point x="622" y="525" type="line"/>
    </contour>
    <contour>
      <point x="233" y="275" type="line"/>
      <point x="263" y="445" type="line"/>
      <point x="589.5" y="445" type="line"/>
      <point x="559.5" y="275" type="line"/>
    </contour>
    <contour>
      <point x="159" y="700" type="line"/>
      <point x="366" y="700" type="line"/>
      <point x="246" y="0" type="line"/>
      <point x="39" y="0" type="line"/>
    </contour>
  </outline>
</glyph>
<glyph name="F" format="1">
  <advance width="567"/>
  <unicode hex="0046"/>
  <outline>
    <contour>
      <point x="274" y="515" type="line"/>
      <point x="306.5" y="700" type="line"/>
      <point x="613.5" y="700" type="line"/>
      <point x="581" y="515" type="line"/>
    </contour>
    <contour>
      <point x="228" y="245" type="line"/>
      <point x="258" y="415" type="line"/>
      <point x="555.5" y="415" type="line"/>
      <point x="525.5" y="245" type="line"/>
    </contour>
    <contour>
      <point x="159" y="700" type="line"/>
      <point x="366" y="700" type="line"/>
      <point x="246" y="0" type="line"/>
      <point x="39" y="0" type="line"/>
    </contour>
  </outline>
</glyph>
<glyph name="I" format="2">
  <advance width="354"/>
  <unicode hex="0049"/>
  <outline>
    <contour>
      <point x="159" y="700" type="line"/>
      <point x="380.5" y="700" type="line"/>
      <point x="260.5" y="0" type="line"/>
      <point x="39" y="0" type="line"/>
    </contour>
  </outline>
</glyph>
<glyph name="K" format="2">
  <advance width="757"/>
  <unicode hex="004B"/>
  <outline>
    <contour>
      <point x="159" y="700" type="line"/>
      <point x="385.5" y="700" type="line"/>
      <point x="265.5" y="0" type="line"/>
      <point x="39" y="0" type="line"/>
    </contour>
    <contour>
      <point x="587.5" y="699.5" type="line"/>
      <point x="846" y="699.5" type="line"/>
      <point x="519" y="367.5" type="line"/>
      <point x="733.5" y="0" type="line"/>
      <point x="480" y="0" type="line"/>
      <point x="265.5" y="370" type="line"/>
    </contour>
  </outline>
</glyph>
<glyph name="L" format="1">
  <advance width="558"/>
  <unicode hex="004C"/>
  <outline>
    <contour>
      <point x="159" y="700" type="line"/>
      <point x="376" y="700" type="line"/>
      <point x="287.5" y="185" type="line"/>
      <point x="564.5" y="185" type="line"/>
      <point x="532" y="0" type="line"/>
      <point x="39" y="0" type="line"/>
    </contour>
  </outline>
</glyph>
<glyph name="M" format="2">
  <advance width="912"/>
  <unicode hex="004D"/>
  <outline>
    <contour>
      <point x="316.543" y="285.339" type="line"/>
      <point x="232" y="0" type="line"/>
      <point x="-1" y="0" type="line"/>
      <point x="251.5" y="735" type="line"/>
      <point x="486.5" y="358.5" type="line"/>
      <point x="857.5" y="740.5" type="line"/>
      <point x="856.5" y="0" type="line"/>
      <point x="626.5" y="0" type="line"/>
      <point x="639.957" y="278.339" type="line"/>
      <point x="443" y="63.5" type="line"/>
    </contour>
  </outline>
</glyph>
<glyph name="P" format="2">
  <advance width="648"/>
  <unicode hex="0050"/>
  <outline>
    <contour>
      <point x="159" y="700" type="line"/>
      <point x="376" y="700" type="line"/>
      <point x="255.5" y="0" type="line"/>
      <point x="39" y="0" type="line"/>
    </contour>
    <contour>
      <point x="267.5" y="525.5" type="line"/>
      <point x="297" y="700" type="line"/>
      <point x="421" y="700" type="line"/>
      <point x="596.5" y="698"/>
      <point x="685.5" y="613"/>
      <point x="672" y="460" type="curve" smooth="yes"/>
      <point x="658.112" y="304.743"/>
      <point x="532.5" y="222"/>
      <point x="351.5" y="220" type="curve"/>
      <point x="214" y="220" type="line"/>
      <point x="245" y="395" type="line"/>
      <point x="369.5" y="395" type="line" smooth="yes"/>
      <point x="418" y="395"/>
      <point x="458" y="418"/>
      <point x="466" y="460.5" type="curve" smooth="yes"/>
      <point x="473" y="500.5"/>
      <point x="447.5" y="525"/>
      <point x="401.5" y="525.5" type="curve" smooth="yes"/>
    </contour>
  </outline>
</glyph>
<glyph name="Q" format="2">
  <advance width="881"/>
  <unicode hex="0051"/>
  <outline>
    <contour>
      <point x="289" y="350" type="curve" smooth="yes"/>
      <point x="273" y="247"/>
      <point x="323.5" y="159.5"/>
      <point x="426" y="158.5" type="curve" smooth="yes"/>
      <point x="524" y="157.5"/>
      <point x="598" y="225.5"/>
      <point x="615.5" y="320" type="curve" smooth="yes"/>
      <point x="632" y="413"/>
      <point x="597" y="520"/>
      <point x="480" y="521.5" type="curve" smooth="yes"/>
      <point x="381.5" y="522.5"/>
      <point x="306" y="445"/>
    </contour>
    <contour>
      <point x="60" y="350" type="curve" smooth="yes"/>
      <point x="92" y="565"/>
      <point x="283.5" y="720.5"/>
      <point x="502" y="720" type="curve" smooth="yes"/>
      <point x="719" y="719.5"/>
      <point x="850" y="557.5"/>
      <point x="820.5" y="350" type="curve" smooth="yes"/>
      <point x="788.5" y="135"/>
      <point x="612" y="-30.5"/>
      <point x="386.5" y="-30" type="curve" smooth="yes"/>
      <point x="165" y="-29.5"/>
      <point x="30" y="141"/>
    </contour>
    <contour>
      <point x="360.5" y="300" type="line"/>
      <point x="562" y="300" type="line"/>
      <point x="857" y="-20" type="line"/>
      <point x="645.5" y="-20" type="line"/>
    </contour>
  </outline>
</glyph>
<glyph name="R" format="1">
  <advance width="679"/>
  <unicode hex="0052"/>
  <outline>
    <contour>
      <point x="292.5" y="300" type="line"/>
      <point x="507.5" y="300" type="line"/>
      <point x="650" y="0" type="line"/>
      <point x="406" y="0" type="line"/>
    </contour>
    <contour>
      <point x="159" y="700" type="line"/>
      <point x="376" y="700" type="line"/>
      <point x="255.5" y="0" type="line"/>
      <point x="39" y="0" type="line"/>
    </contour>
    <contour>
      <point x="266" y="514.5" type="line"/>
      <point x="297" y="700" type="line"/>
      <point x="440.5" y="700" type="line" smooth="yes"/>
      <point x="614.5" y="700"/>
      <point x="709" y="606.5"/>
      <point x="691.5" y="460" type="curve" smooth="yes"/>
      <point x="673.584" y="311.67"/>
      <point x="550" y="220"/>
      <point x="370.5" y="220" type="curve" smooth="yes"/>
      <point x="214" y="220" type="line"/>
      <point x="243.5" y="385" type="line"/>
      <point x="368" y="385" type="line" smooth="yes"/>
      <point x="416.5" y="385"/>
      <point x="456.5" y="408"/>
      <point x="464.5" y="450.5" type="curve" smooth="yes"/>
      <point x="471.5" y="490.5"/>
      <point x="446" y="514"/>
      <point x="400" y="514.5" type="curve" smooth="yes"/>
    </contour>
  </outline>
</glyph>
<glyph name="S" format="1">
  <advance width="652"/>
  <unicode hex="0053"/>
  <outline>
    <contour>
      <point x="186.5" y="266" type="line"/>
      <point x="223" y="201"/>
      <point x="258.5" y="158"/>
      <point x="325" y="158.5" type="curve" smooth="yes"/>
      <point x="359.5" y="158.5"/>
      <point x="392" y="170"/>
      <point x="398.5" y="200" type="curve" smooth="yes"/>
      <point x="408.5" y="243.5"/>
      <point x="343.5" y="256.5"/>
      <point x="289" y="280" type="curve" smooth="yes"/>
      <point x="209.5" y="316"/>
      <point x="115" y="385.5"/>
      <point x="130" y="510.5" type="curve" smooth="yes"/>
      <point x="150" y="642"/>
      <point x="287" y="720.5"/>
      <point x="436" y="720" type="curve" smooth="yes"/>
      <point x="566.5" y="719.5"/>
      <point x="643" y="648"/>
      <point x="679" y="562.5" type="curve"/>
      <point x="509" y="474.5" type="line"/>
      <point x="485.5" y="515.5"/>
      <point x="458.5" y="538.5"/>
      <point x="417" y="538.5" type="curve" smooth="yes"/>
      <point x="387" y="538.5"/>
      <point x="354.5" y="525.5"/>
      <point x="348.5" y="503" type="curve" smooth="yes"/>
      <point x="337.5" y="462"/>
      <point x="431" y="443"/>
      <point x="485" y="423" type="curve" smooth="yes"/>
      <point x="587.5" y="383.5"/>
      <point x="641" y="306.5"/>
      <point x="626.5" y="199.5" type="curve" smooth="yes"/>
      <point x="604.5" y="48"/>
      <point x="462.5" y="-30.5"/>
      <point x="309.5" y="-30" type="curve" smooth="yes"/>
      <point x="181" y="-29.5"/>
      <point x="64.5" y="48"/>
      <point x="27.5" y="159.5" type="curve"/>
    </contour>
  </outline>
</glyph>
<glyph name="U" format="1">
  <advance width="723"/>
  <unicode hex="0055"/>
  <outline>
    <contour>
      <point x="154" y="700" type="line"/>
      <point x="371" y="700" type="line"/>
      <point x="292" y="250" type="line" smooth="yes"/>
      <point x="286" y="201.5"/>
      <point x="299" y="157"/>
      <point x="356" y="155.5" type="curve" smooth="yes"/>
      <point x="414" y="154"/>
      <point x="450.5" y="199"/>
      <point x="460.5" y="250.5" type="curve"/>
      <point x="538.5" y="700" type="line"/>
      <point x="755" y="700" type="line"/>
      <point x="675.5" y="230" type="line" smooth="yes"/>
      <point x="646.5" y="49.5"/>
      <point x="503.5" y="-40"/>
      <point x="334" y="-40" type="curve" smooth="yes"/>
      <point x="170" y="-40"/>
      <point x="51" y="50"/>
      <point x="74.5" y="230" type="curve"/>
    </contour>
  </outline>
</glyph>
<glyph name="W" format="1">
  <advance width="1077"/>
  <unicode hex="0057"/>
  <outline>
    <contour>
      <point x="760.09" y="353.32" type="line"/>
      <point x="908" y="700" type="line"/>
      <point x="1171.5" y="699.5" type="line"/>
      <point x="744.5" y="-46.5" type="line"/>
      <point x="571" y="301" type="line"/>
      <point x="287" y="-48" type="line"/>
      <point x="91.5" y="700" type="line"/>
      <point x="348" y="700" type="line"/>
      <point x="388.411" y="356.32" type="line"/>
      <point x="633.5" y="738" type="line"/>
    </contour>
  </outline>
</glyph>
<glyph name="X" format="2">
  <advance width="742"/>
  <unicode hex="0058"/>
  <outline>
    <contour>
      <point x="548" y="699.5" type="line"/>
      <point x="823" y="699.5" type="line"/>
      <point x="544.5" y="349.5" type="line"/>
      <point x="723.5" y="0" type="line"/>
      <point x="459.5" y="0" type="line"/>
      <point x="388" y="193" type="line"/>
      <point x="253.5" y="0" type="line"/>
      <point x="-21.5" y="0" type="line"/>
      <point x="278.5" y="358.5" type="line"/>
      <point x="116.5" y="700" type="line"/>
      <point x="381" y="700" type="line"/>
      <point x="437" y="534" type="line"/>
    </contour>
  </outline>
</glyph>
<glyph name="Y" format="2">
  <advance width="698"/>
  <unicode hex="0059"/>
  <outline>
    <contour>
      <point x="545" y="699.5" type="line"/>
      <point x="800.5" y="699.5" type="line"/>
      <point x="479" y="269.853" type="line"/>
      <point x="433.5" y="0" type="line"/>
      <point x="211.5" y="0" type="line"/>
      <point x="261" y="279.01" type="line"/>
      <point x="89" y="700" type="line"/>
      <point x="334" y="700" type="line"/>
      <point x="401" y="477.5" type="line"/>
    </contour>
  </outline>
</glyph>
<glyph name="Z" format="1">
  <advance width="645"/>
  <unicode hex="005A"/>
  <outline>
    <contour>
      <point x="125" y="505" type="line"/>
      <point x="159" y="700" type="line"/>
      <point x="732.5" y="699.5" type="line"/>
      <point x="345.5" y="185.5" type="line"/>
      <point x="598.5" y="185" type="line"/>
      <point x="566" y="0" type="line"/>
      <point x="-27" y="0" type="line"/>
      <point x="352" y="504.5" type="line"/>
    </contour>
  </outline>
</glyph>
<glyph name="bracketleft" format="1">
  <advance width="388"/>
  <unicode hex="005B"/>
  <outline>
    <contour>
      <point x="350" y="615" type="line"/>
      <point x="247" y="-55" type="line"/>
      <point x="345" y="-55" type="line"/>
      <point x="319" y="-220" type="line"/>
      <point x="29.5" y="-220" type="line"/>
      <point x="184" y="780" type="line"/>
      <point x="473.5" y="780" type="line"/>
      <point x="447.5" y="615" type="line"/>
    </contour>
  </outline>
</glyph>
<glyph name="backslash" format="2">
  <advance width="548"/>
  <unicode hex="005C"/>
  <outline>
    <contour>
      <point x="108" y="700" type="line"/>
      <point x="285.5" y="700" type="line"/>
      <point x="505.5" y="0" type="line"/>
      <point x="328" y="0" type="line"/>
    </contour>
  </outline>
</glyph>
<glyph name="asciicircum" format="2">
  <advance width="494"/>
  <unicode hex="005E"/>
  <outline>
    <contour>
      <point x="317.5" y="552.5" type="line"/>
      <point x="241" y="440.5" type="line"/>
      <point x="67.5" y="440.5" type="line"/>
      <point x="279" y="709.5" type="line"/>
      <point x="398" y="710" type="line"/>
      <point x="517" y="440" type="line"/>
      <point x="355" y="440" type="line"/>
    </contour>
  </outline>
</glyph>
<glyph name="grave" format="2">
  <advance width="363"/>
  <unicode hex="0060"/>
  <outline>
    <contour>
      <point x="122.5" y="653" type="line"/>
      <point x="263.5" y="710.5" type="line"/>
      <point x="387" y="547" type="line"/>
      <point x="277.5" y="500" type="line"/>
    </contour>
  </outline>
</glyph>
<glyph name="c" format="2">
  <advance width="488"/>
  <unicode hex="0063"/>
  <outline>
    <contour>
      <point x="243" y="229.5" type="curve" smooth="yes"/>
      <point x="234.5" y="175"/>
      <point x="270.5" y="140.5"/>
      <point x="323" y="139" type="curve" smooth="yes"/>
      <point x="370.5" y="137.5"/>
      <point x="416.5" y="161.5"/>
      <point x="451.5" y="196.5" type="curve"/>
      <point x="429" y="21" type="line"/>
      <point x="391" y="2.5"/>
      <point x="351" y="-10"/>
      <point x="290.5" y="-10" type="curve" smooth="yes"/>
      <point x="139" y="-10"/>
      <point x="27" y="84.5"/>
      <point x="46" y="230.5" type="curve" smooth="yes"/>
      <point x="65.5" y="378"/>
      <point x="198" y="470"/>
      <point x="354" y="470" type="curve" smooth="yes"/>
      <point x="414" y="470"/>
      <point x="452.5" y="456.5"/>
      <point x="490" y="440.5" type="curve"/>
      <point x="466.5" y="264" type="line"/>
      <point x="439.5" y="302"/>
      <point x="399" y="322"/>
      <point x="360.5" y="322" type="curve" smooth="yes"/>
      <point x="301.5" y="322"/>
      <point x="252" y="280.5"/>
    </contour>
  </outline>
</glyph>
<glyph name="e" format="2">
  <advance width="591"/>
  <unicode hex="0065"/>
  <outline>
    <contour>
      <point x="145" y="190.5" type="line"/>
      <point x="158.5" y="283.5" type="line"/>
      <point x="386.691" y="283.5" type="line"/>
      <point x="384.482" y="320.135"/>
      <point x="371.521" y="349.5"/>
      <point x="334" y="349.5" type="curve" smooth="yes"/>
      <point x="281.5" y="349.5"/>
      <point x="253" y="303"/>
      <point x="243.5" y="249.5" type="curve"/>
      <point x="238" y="229.5" type="line"/>
      <point x="231" y="166.5"/>
      <point x="248" y="124.5"/>
      <point x="295.5" y="121" type="curve" smooth="yes"/>
      <point x="338.5" y="118.5"/>
      <point x="373.5" y="138.5"/>
      <point x="395.5" y="164.5" type="curve"/>
      <point x="569" y="135.5" type="line"/>
      <point x="510.5" y="47"/>
      <point x="422.5" y="-10"/>
      <point x="295.5" y="-10" type="curve" smooth="yes"/>
      <point x="126.5" y="-10"/>
      <point x="27" y="86"/>
      <point x="46" y="230" type="curve" smooth="yes"/>
      <point x="48" y="247"/>
      <point x="51.5" y="263"/>
      <point x="56.5" y="279" type="curve" smooth="yes"/>
      <point x="93" y="396.5"/>
      <point x="198.5" y="470"/>
      <point x="348.5" y="470" type="curve" smooth="yes"/>
      <point x="509" y="470"/>
      <point x="596.5" y="382.5"/>
      <point x="579.5" y="239" type="curve" smooth="yes"/>
      <point x="577.5" y="227"/>
      <point x="575" y="209"/>
      <point x="571.5" y="190.5" type="curve"/>
    </contour>
  </outline>
</glyph>
<glyph name="f" format="2">
  <advance width="367"/>
  <unicode hex="0066"/>
  <outline>
    <contour>
      <point x="55" y="460" type="line"/>
      <point x="412.5" y="460" type="line"/>
      <point x="385.5" y="305" type="line"/>
      <point x="27.5" y="305" type="line"/>
    </contour>
    <contour>
      <point x="418.5" y="605.5" type="line"/>
      <point x="408" y="618.5"/>
      <point x="397" y="630"/>
      <point x="379.5" y="630.5" type="curve" smooth="yes"/>
      <point x="349.5" y="631"/>
      <point x="326" y="605"/>
      <point x="321.5" y="574.5" type="curve" smooth="yes"/>
      <point x="221.5" y="0" type="line"/>
      <point x="39" y="0" type="line"/>
      <point x="145.5" y="630.5" type="line" smooth="yes"/>
      <point x="164.5" y="730.5"/>
      <point x="242" y="800"/>
      <point x="364" y="799.5" type="curve" smooth="yes"/>
      <point x="433" y="799.5"/>
      <point x="474.5" y="769.5"/>
      <point x="507" y="741.5" type="curve"/>
    </contour>
  </outline>
</glyph>
<glyph name="g" format="2">
  <advance width="616"/>
  <unicode hex="0067"/>
  <outline>
    <contour>
      <point x="3" y="-34.5" type="curve"/>
      <point x="183.5" y="-35.5" type="line"/>
      <point x="189.5" y="-78.5"/>
      <point x="207" y="-94"/>
      <point x="247.5" y="-94.5" type="curve" smooth="yes"/>
      <point x="308.5" y="-95.5"/>
      <point x="350.5" y="-49"/>
      <point x="360" y="10.5" type="curve" smooth="yes"/>
      <point x="438" y="460" type="line"/>
      <point x="621" y="460" type="line"/>
      <point x="544.5" y="9.5" type="line" smooth="yes"/>
      <point x="518" y="-159"/>
      <point x="402.5" y="-244"/>
      <point x="244" y="-244.5" type="curve" smooth="yes"/>
      <point x="77.5" y="-245"/>
      <point x="7.5" y="-166"/>
    </contour>
    <contour>
      <point x="41.5" y="240.5" type="curve" smooth="yes"/>
      <point x="59" y="378.5"/>
      <point x="166" y="470"/>
      <point x="283" y="470" type="curve" smooth="yes"/>
      <point x="405.5" y="470"/>
      <point x="463" y="366.5"/>
      <point x="447" y="239.5" type="curve" smooth="yes"/>
      <point x="430" y="108"/>
      <point x="338" y="10"/>
      <point x="216.5" y="10" type="curve" smooth="yes"/>
      <point x="99.5" y="10"/>
      <point x="25.5" y="107"/>
    </contour>
    <contour>
      <point x="243" y="239" type="curve" smooth="yes"/>
      <point x="236.5" y="195"/>
      <point x="261" y="162.5"/>
      <point x="304.5" y="160.5" type="curve" smooth="yes"/>
      <point x="347" y="158.5"/>
      <point x="393.5" y="193"/>
      <point x="400.5" y="241" type="curve" smooth="yes"/>
      <point x="407" y="287.5"/>
      <point x="381.5" y="319.5"/>
      <point x="340.5" y="319.5" type="curve" smooth="yes"/>
      <point x="290.5" y="319.5"/>
      <point x="250" y="284.5"/>
    </contour>
  </outline>
</glyph>
<glyph name="h" format="2">
  <advance width="577"/>
  <unicode hex="0068"/>
  <outline>
    <contour>
      <point x="346" y="780" type="line"/>
      <point x="212" y="0" type="line"/>
      <point x="19.5" y="0" type="line"/>
      <point x="153" y="780" type="line"/>
    </contour>
    <contour>
      <point x="361" y="280" type="line" smooth="yes"/>
      <point x="365" y="311"/>
      <point x="365.5" y="341"/>
      <point x="329.5" y="345" type="curve" smooth="yes"/>
      <point x="294" y="349"/>
      <point x="268" y="314.5"/>
      <point x="260" y="280" type="curve"/>
      <point x="232.5" y="281" type="line"/>
      <point x="250.5" y="384.5"/>
      <point x="304.5" y="480"/>
      <point x="425" y="481" type="curve" smooth="yes"/>
      <point x="542" y="482"/>
      <point x="570.5" y="409.5"/>
      <point x="555.5" y="310" type="curve" smooth="yes"/>
      <point x="503" y="0" type="line"/>
      <point x="310.5" y="0" type="line"/>
    </contour>
  </outline>
</glyph>
<glyph name="i" format="2">
  <advance width="277"/>
  <unicode hex="0069"/>
  <outline>
    <contour>
      <point x="110" y="621.5" type="curve" smooth="yes"/>
      <point x="110" y="680.5"/>
      <point x="158" y="719.5"/>
      <point x="218" y="719.5" type="curve" smooth="yes"/>
      <point x="278" y="719.5"/>
      <point x="326" y="680.5"/>
      <point x="326" y="621.5" type="curve" smooth="yes"/>
      <point x="326" y="562.5"/>
      <point x="278" y="523.5"/>
      <point x="218" y="523.5" type="curve" smooth="yes"/>
      <point x="158" y="523.5"/>
      <point x="110" y="562.5"/>
    </contour>
    <contour>
      <point x="97.5" y="460" type="line"/>
      <point x="282.5" y="460" type="line"/>
      <point x="203.5" y="0" type="line"/>
      <point x="18.5" y="0" type="line"/>
    </contour>
  </outline>
</glyph>
<glyph name="j" format="2">
  <advance width="276"/>
  <unicode hex="006A"/>
  <outline>
    <contour>
      <point x="110" y="621.5" type="curve" smooth="yes"/>
      <point x="110" y="680.5"/>
      <point x="158" y="719.5"/>
      <point x="218" y="719.5" type="curve" smooth="yes"/>
      <point x="278" y="719.5"/>
      <point x="326" y="680.5"/>
      <point x="326" y="621.5" type="curve" smooth="yes"/>
      <point x="326" y="562.5"/>
      <point x="278" y="523.5"/>
      <point x="218" y="523.5" type="curve" smooth="yes"/>
      <point x="158" y="523.5"/>
      <point x="110" y="562.5"/>
    </contour>
    <contour>
      <point x="-83" y="-55.5" type="line"/>
      <point x="-72.5" y="-68.5"/>
      <point x="-58.5" y="-80.5"/>
      <point x="-39" y="-80.5" type="curve" smooth="yes"/>
      <point x="-9.5" y="-80.5"/>
      <point x="10.5" y="-54"/>
      <point x="14.5" y="-24.5" type="curve" smooth="yes"/>
      <point x="98.5" y="460" type="line"/>
      <point x="281.5" y="460" type="line"/>
      <point x="190" y="-80.5" type="line" smooth="yes"/>
      <point x="171" y="-180.5"/>
      <point x="94" y="-250"/>
      <point x="-28" y="-249.5" type="curve" smooth="yes"/>
      <point x="-97" y="-249.5"/>
      <point x="-139" y="-219.5"/>
      <point x="-171.5" y="-191.5" type="curve"/>
    </contour>
  </outline>
</glyph>
<glyph name="l" format="1">
  <advance width="286"/>
  <unicode hex="006C"/>
  <outline>
    <contour>
      <point x="153" y="780" type="line"/>
      <point x="346" y="780" type="line"/>
      <point x="212" y="0" type="line"/>
      <point x="19.5" y="0" type="line"/>
    </contour>
  </outline>
</glyph>
<glyph name="m" format="1">
  <advance width="820"/>
  <unicode hex="006D"/>
  <outline>
    <contour>
      <point x="332" y="280.5" type="line" smooth="yes"/>
      <point x="334.5" y="309.5"/>
      <point x="335" y="341"/>
      <point x="306.5" y="345" type="curve" smooth="yes"/>
      <point x="279" y="349.5"/>
      <point x="255.5" y="313"/>
      <point x="250" y="280.5" type="curve"/>
      <point x="221.5" y="271" type="line"/>
      <point x="239" y="373"/>
      <point x="295" y="470"/>
      <point x="409" y="471" type="curve" smooth="yes"/>
      <point x="518.5" y="472"/>
      <point x="538" y="406.5"/>
      <point x="526" y="310" type="curve" smooth="yes"/>
      <point x="474" y="0" type="line"/>
      <point x="281" y="0" type="line"/>
    </contour>
    <contour>
      <point x="281.5" y="460" type="line"/>
      <point x="202.5" y="0" type="line"/>
      <point x="19.5" y="0" type="line"/>
      <point x="98.5" y="460" type="line"/>
    </contour>
    <contour>
      <point x="796.5" y="300" type="curve" smooth="yes"/>
      <point x="746" y="0" type="line"/>
      <point x="553" y="0" type="line"/>
      <point x="603.5" y="280" type="line" smooth="yes"/>
      <point x="606" y="309"/>
      <point x="607" y="341"/>
      <point x="578.5" y="345" type="curve" smooth="yes"/>
      <point x="551" y="349.5"/>
      <point x="527" y="313"/>
      <point x="521.5" y="280.5" type="curve"/>
      <point x="464.5" y="271" type="line"/>
      <point x="484.5" y="375.5"/>
      <point x="564.5" y="470.5"/>
      <point x="680.5" y="471" type="curve" smooth="yes"/>
      <point x="791.5" y="471.5"/>
      <point x="809" y="396.5"/>
    </contour>
  </outline>
</glyph>
<glyph name="n" format="1">
  <advance width="587"/>
  <unicode hex="006E"/>
  <outline>
    <contour>
      <point x="291" y="460" type="line"/>
      <point x="212" y="0" type="line"/>
      <point x="19.5" y="0" type="line"/>
      <point x="98.5" y="460" type="line"/>
    </contour>
    <contour>
      <point x="361" y="280" type="line" smooth="yes"/>
      <point x="365" y="311"/>
      <point x="365" y="341"/>
      <point x="329" y="345" type="curve" smooth="yes"/>
      <point x="293.5" y="349"/>
      <point x="268" y="315"/>
      <point x="260" y="280.5" type="curve"/>
      <point x="231.5" y="271" type="line"/>
      <point x="249" y="374.5"/>
      <point x="302.5" y="470"/>
      <point x="423" y="471" type="curve" smooth="yes"/>
      <point x="539.5" y="472"/>
      <point x="579" y="400.5"/>
      <point x="563.5" y="300" type="curve" smooth="yes"/>
      <point x="513" y="0" type="line"/>
      <point x="310.5" y="0" type="line"/>
    </contour>
  </outline>
</glyph>
<glyph name="p" format="1">
  <advance width="625"/>
  <unicode hex="0070"/>
  <outline>
    <contour>
      <point x="174.5" y="-220" type="line"/>
      <point x="-18" y="-220" type="line"/>
      <point x="98.5" y="460" type="line"/>
      <point x="291" y="460" type="line"/>
    </contour>
    <contour>
      <point x="610.5" y="229.5" type="curve" smooth="yes"/>
      <point x="592.5" y="85.5"/>
      <point x="485.5" y="-20.5"/>
      <point x="365.5" y="-20" type="curve" smooth="yes"/>
      <point x="233.5" y="-19.5"/>
      <point x="199.5" y="105"/>
      <point x="215" y="230" type="curve" smooth="yes"/>
      <point x="232.5" y="362"/>
      <point x="309.5" y="479"/>
      <point x="439" y="479.5" type="curve" smooth="yes"/>
      <point x="560" y="480"/>
      <point x="626.5" y="367.5"/>
    </contour>
    <contour>
      <point x="409" y="231" type="curve" smooth="yes"/>
      <point x="415.5" y="275"/>
      <point x="391" y="307.5"/>
      <point x="347.5" y="309.5" type="curve" smooth="yes"/>
      <point x="305" y="311.5"/>
      <point x="258.5" y="277"/>
      <point x="251.5" y="229" type="curve" smooth="yes"/>
      <point x="245" y="182.5"/>
      <point x="270.5" y="152.5"/>
      <point x="311.5" y="150.5" type="curve" smooth="yes"/>
      <point x="356.5" y="148.5"/>
      <point x="402" y="185.5"/>
    </contour>
  </outline>
</glyph>
<glyph name="q" format="2">
  <advance width="625"/>
  <unicode hex="0071"/>
  <outline>
    <contour>
      <point x="321.5" y="-220" type="line"/>
      <point x="438" y="460" type="line"/>
      <point x="631" y="460" type="line"/>
      <point x="514" y="-220" type="line"/>
    </contour>
    <contour>
      <point x="39.5" y="230.5" type="curve" smooth="yes"/>
      <point x="57.5" y="374.5"/>
      <point x="164.5" y="480.5"/>
      <point x="284.5" y="480" type="curve" smooth="yes"/>
      <point x="416.5" y="479.5"/>
      <point x="451" y="355"/>
      <point x="435.5" y="230" type="curve" smooth="yes"/>
      <point x="418" y="98"/>
      <point x="341" y="-19"/>
      <point x="211.5" y="-19.5" type="curve" smooth="yes"/>
      <point x="90.5" y="-20"/>
      <point x="23.5" y="92.5"/>
    </contour>
    <contour>
      <point x="241.5" y="229" type="curve" smooth="yes"/>
      <point x="235" y="185"/>
      <point x="259.5" y="152.5"/>
      <point x="303" y="150.5" type="curve" smooth="yes"/>
      <point x="345.5" y="148.5"/>
      <point x="391.5" y="183"/>
      <point x="398.5" y="231" type="curve" smooth="yes"/>
      <point x="405" y="277.5"/>
      <point x="379.5" y="307.5"/>
      <point x="338.5" y="309.5" type="curve" smooth="yes"/>
      <point x="293.5" y="311.5"/>
      <point x="248.5" y="274.5"/>
    </contour>
  </outline>
</glyph>
<glyph name="r" format="2">
  <advance width="444"/>
  <unicode hex="0072"/>
  <outline>
    <contour>
      <point x="286.5" y="460" type="line"/>
      <point x="207" y="0" type="line"/>
      <point x="19.5" y="0" type="line"/>
      <point x="98.5" y="460" type="line"/>
    </contour>
    <contour>
      <point x="385.5" y="262.5" type="line"/>
      <point x="373.5" y="277"/>
      <point x="358.5" y="289.5"/>
      <point x="335.5" y="290" type="curve" smooth="yes"/>
      <point x="292" y="291"/>
      <point x="247" y="246.5"/>
      <point x="240.5" y="194.5" type="curve"/>
      <point x="227" y="281" type="line"/>
      <point x="244" y="377"/>
      <point x="330.5" y="472"/>
      <point x="410" y="472" type="curve" smooth="yes"/>
      <point x="443.5" y="472"/>
      <point x="471" y="451.5"/>
      <point x="487" y="428" type="curve"/>
    </contour>
  </outline>
</glyph>
<glyph name="s" format="1">
  <advance width="473"/>
  <unicode hex="0073"/>
  <outline>
    <contour>
      <point x="82.5" y="182.5" type="line"/>
      <point x="152" y="130.5"/>
      <point x="203" y="106"/>
      <point x="238.5" y="110" type="curve" smooth="yes"/>
      <point x="252.5" y="111"/>
      <point x="268.5" y="121.5"/>
      <point x="270" y="134.5" type="curve" smooth="yes"/>
      <point x="273.5" y="165"/>
      <point x="226" y="173"/>
      <point x="190.5" y="185.5" type="curve" smooth="yes"/>
      <point x="125" y="210"/>
      <point x="74" y="253.5"/>
      <point x="83.5" y="334.5" type="curve" smooth="yes"/>
      <point x="96" y="423.5"/>
      <point x="180" y="469"/>
      <point x="281" y="469.5" type="curve" smooth="yes"/>
      <point x="358" y="470"/>
      <point x="423" y="444.5"/>
      <point x="488" y="413.5" type="curve"/>
      <point x="424" y="283" type="line"/>
      <point x="386" y="317"/>
      <point x="338" y="346"/>
      <point x="296" y="346" type="curve" smooth="yes"/>
      <point x="276" y="346"/>
      <point x="258.5" y="337.5"/>
      <point x="256" y="326" type="curve" smooth="yes"/>
      <point x="249.5" y="294"/>
      <point x="311.5" y="286"/>
      <point x="352" y="270.5" type="curve" smooth="yes"/>
      <point x="415" y="246"/>
      <point x="466.5" y="207"/>
      <point x="458.5" y="129.5" type="curve" smooth="yes"/>
      <point x="446.5" y="25"/>
      <point x="369" y="-23.5"/>
      <point x="261" y="-24.5" type="curve" smooth="yes"/>
      <point x="164.5" y="-25.5"/>
      <point x="83.5" y="3.5"/>
      <point x="4" y="47.5" type="curve"/>
    </contour>
  </outline>
</glyph>
<glyph name="v" format="1">
  <advance width="562"/>
  <unicode hex="0076"/>
  <outline>
    <contour>
      <point x="50" y="460" type="line"/>
      <point x="249.5" y="460" type="line"/>
      <point x="302.5" y="251" type="line"/>
      <point x="421.5" y="459.5" type="line"/>
      <point x="625.5" y="459.5" type="line"/>
      <point x="256" y="-67.5" type="line"/>
    </contour>
  </outline>
</glyph>
<glyph name="z" format="2">
  <advance width="543"/>
  <unicode hex="007A"/>
  <outline>
    <contour>
      <point x="240" y="285.5" type="line"/>
      <point x="82.5" y="285.5" type="line"/>
      <point x="113" y="459.5" type="line"/>
      <point x="585" y="459.5" type="line"/>
      <point x="346" y="174.5" type="line"/>
      <point x="495" y="174.5" type="line"/>
      <point x="464.5" y="0" type="line"/>
      <point x="-17.5" y="0" type="line"/>
    </contour>
  </outline>
</glyph>
<glyph name="braceleft" format="2">
  <advance width="437"/>
  <unicode hex="007B"/>
  <outline>
    <contour>
      <point x="383.5" y="579.5" type="curve" smooth="yes"/>
      <point x="369.5" y="489.5" type="line" smooth="yes"/>
      <point x="350.5" y="386"/>
      <point x="319" y="289"/>
      <point x="176" y="280.5" type="curve"/>
      <point x="178.5" y="300.5" type="line"/>
      <point x="318" y="290"/>
      <point x="321" y="185.5"/>
      <point x="305.5" y="89.5" type="curve" smooth="yes"/>
      <point x="291" y="0" type="line" smooth="yes"/>
      <point x="286.5" y="-27"/>
      <point x="298.5" y="-49"/>
      <point x="328" y="-49.5" type="curve" smooth="yes"/>
      <point x="364.5" y="-50" type="line"/>
      <point x="342.5" y="-199.5" type="line"/>
      <point x="240" y="-200" type="line" smooth="yes"/>
      <point x="145.5" y="-198.5"/>
      <point x="53.5" y="-158.5"/>
      <point x="68.5" y="-60" type="curve" smooth="yes"/>
      <point x="94.5" y="110" type="line" smooth="yes"/>
      <point x="102" y="174"/>
      <point x="94.5" y="201"/>
      <point x="45" y="220" type="curve"/>
      <point x="65" y="359.5" type="line"/>
      <point x="117" y="376"/>
      <point x="138.5" y="405"/>
      <point x="148" y="470.5" type="curve" smooth="yes"/>
      <point x="174" y="640.5" type="line" smooth="yes"/>
      <point x="189" y="738"/>
      <point x="280.5" y="778"/>
      <point x="380" y="780" type="curve"/>
      <point x="494" y="780" type="line"/>
      <point x="472" y="630.5" type="line"/>
      <point x="439" y="630.5" type="line" smooth="yes"/>
      <point x="409" y="630.5"/>
      <point x="388" y="607.5"/>
    </contour>
  </outline>
</glyph>
<glyph name="braceright" format="2">
  <advance width="437"/>
  <unicode hex="007D"/>
  <outline>
    <contour>
      <point x="109.5" y="0" type="curve" smooth="yes"/>
      <point x="123.5" y="90.5" type="line" smooth="yes"/>
      <point x="142.5" y="194"/>
      <point x="173.5" y="291"/>
      <point x="316.5" y="299.5" type="curve"/>
      <point x="314.5" y="279.5" type="line"/>
      <point x="175" y="290"/>
      <point x="171.5" y="394.5"/>
      <point x="187" y="490.5" type="curve" smooth="yes"/>
      <point x="201.5" y="580.5" type="line" smooth="yes"/>
      <point x="206" y="607"/>
      <point x="193.5" y="629"/>
      <point x="164.5" y="629.5" type="curve" smooth="yes"/>
      <point x="128.5" y="629.5" type="line"/>
      <point x="150.5" y="780" type="line"/>
      <point x="253" y="780" type="line" smooth="yes"/>
      <point x="347.5" y="778.5"/>
      <point x="439" y="738.5"/>
      <point x="424" y="640" type="curve" smooth="yes"/>
      <point x="398" y="470" type="line" smooth="yes"/>
      <point x="390.5" y="406"/>
      <point x="398" y="379"/>
      <point x="447.5" y="360" type="curve"/>
      <point x="428" y="220.5" type="line"/>
      <point x="376" y="204"/>
      <point x="354" y="175"/>
      <point x="344.5" y="109.5" type="curve" smooth="yes"/>
      <point x="319" y="-60.5" type="line" smooth="yes"/>
      <point x="304.5" y="-158.5"/>
      <point x="212" y="-198"/>
      <point x="112.5" y="-200" type="curve"/>
      <point x="-1.5" y="-200" type="line"/>
      <point x="20.5" y="-50.5" type="line"/>
      <point x="53.5" y="-50.5" type="line" smooth="yes"/>
      <point x="83.5" y="-50.5"/>
      <point x="105" y="-28"/>
    </contour>
  </outline>
</glyph>
<glyph name="asciitilde" format="2">
  <advance width="558"/>
  <unicode hex="007E"/>
  <outline>
    <contour>
      <point x="170" y="155" type="curve"/>
      <point x="26" y="161" type="line"/>
      <point x="25" y="168.5"/>
      <point x="24.5" y="177"/>
      <point x="25.5" y="185.5" type="curve" smooth="yes"/>
      <point x="29.5" y="226.5"/>
      <point x="45.5" y="263.5"/>
      <point x="74" y="295" type="curve" smooth="yes"/>
      <point x="107.5" y="331.5"/>
      <point x="151.5" y="358"/>
      <point x="220.5" y="357" type="curve" smooth="yes"/>
      <point x="265.5" y="356.5"/>
      <point x="296" y="336.5"/>
      <point x="337" y="307.5" type="curve" smooth="yes"/>
      <point x="359.5" y="292"/>
      <point x="379" y="272"/>
      <point x="398" y="272" type="curve" smooth="yes"/>
      <point x="415" y="272"/>
      <point x="428.5" y="291.5"/>
      <point x="431.5" y="306" type="curve" smooth="yes"/>
      <point x="434" y="318.5"/>
      <point x="432" y="333"/>
      <point x="430" y="344" type="curve"/>
      <point x="573.5" y="338" type="line"/>
      <point x="574.5" y="329"/>
      <point x="575.5" y="319"/>
      <point x="574.5" y="309.5" type="curve" smooth="yes"/>
      <point x="570.5" y="269"/>
      <point x="556.5" y="229.5"/>
      <point x="528.5" y="198" type="curve" smooth="yes"/>
      <point x="498.5" y="164.5"/>
      <point x="459" y="141.5"/>
      <point x="402" y="142" type="curve" smooth="yes"/>
      <point x="359" y="142.5"/>
      <point x="325" y="164.5"/>
      <point x="282.5" y="193.5" type="curve" smooth="yes"/>
      <point x="258" y="210.5"/>
      <point x="235.5" y="229"/>
      <point x="211" y="228" type="curve" smooth="yes"/>
      <point x="185.5" y="227"/>
      <point x="172" y="204"/>
      <point x="168" y="188" type="curve" smooth="yes"/>
      <point x="165.5" y="174.5"/>
      <point x="168.5" y="164.5"/>
    </contour>
  </outline>
</glyph>
<glyph name="exclamdown" format="2">
  <advance width="359"/>
  <unicode hex="00A1"/>
  <outline>
    <contour>
      <point x="232" y="-220" type="line"/>
      <point x="-4" y="-220" type="line"/>
      <point x="112" y="230" type="line"/>
      <point x="271" y="230" type="line"/>
    </contour>
    <contour>
      <point x="337" y="404" type="curve" smooth="yes"/>
      <point x="329" y="343"/>
      <point x="273" y="300.5"/>
      <point x="208" y="300.5" type="curve" smooth="yes"/>
      <point x="143" y="300.5"/>
      <point x="97.5" y="344"/>
      <point x="106" y="406" type="curve" smooth="yes"/>
      <point x="114" y="467"/>
      <point x="170" y="509.5"/>
      <point x="235" y="509.5" type="curve" smooth="yes"/>
      <point x="300" y="509.5"/>
      <point x="345.5" y="466"/>
    </contour>
  </outline>
</glyph>
<glyph name="cent" format="2">
  <advance width="562"/>
  <unicode hex="00A2"/>
  <outline>
    <contour>
      <point x="181.5" y="38" type="line"/>
      <point x="320" y="38" type="line"/>
      <point x="307.5" y="-112" type="line"/>
      <point x="140" y="-112" type="line"/>
    </contour>
    <contour>
      <point x="237" y="229.5" type="curve" smooth="yes"/>
      <point x="228" y="173"/>
      <point x="265.5" y="140.5"/>
      <point x="316" y="139" type="curve" smooth="yes"/>
      <point x="368.5" y="137.5"/>
      <point x="410.5" y="167.5"/>
      <point x="446" y="198" type="curve"/>
      <point x="420" y="19" type="line"/>
      <point x="382" y="1"/>
      <point x="337" y="-10"/>
      <point x="281.5" y="-10" type="curve" smooth="yes"/>
      <point x="130" y="-9.5"/>
      <point x="19.5" y="85"/>
      <point x="40.5" y="230.5" type="curve" smooth="yes"/>
      <point x="62" y="378"/>
      <point x="195.5" y="469.5"/>
      <point x="352" y="470" type="curve" smooth="yes"/>
      <point x="407" y="470"/>
      <point x="450.5" y="458.5"/>
      <point x="488" y="440.5" type="curve"/>
      <point x="461.5" y="261" type="line"/>
      <point x="435" y="295.5"/>
      <point x="406" y="322"/>
      <point x="357" y="322" type="curve" smooth="yes"/>
      <point x="305" y="322"/>
      <point x="246.5" y="283"/>
    </contour>
    <contour>
      <point x="260" y="578" type="line"/>
      <point x="427.5" y="578" type="line"/>
      <point x="386.5" y="428" type="line"/>
      <point x="248" y="428" type="line"/>
    </contour>
  </outline>
</glyph>
<glyph name="sterling" format="2">
  <advance width="611"/>
  <unicode hex="00A3"/>
  <outline>
    <contour>
      <point x="100" y="370" type="line"/>
      <point x="481.5" y="370" type="line"/>
      <point x="461" y="255" type="line"/>
      <point x="79" y="255" type="line"/>
    </contour>
    <contour>
      <point x="466.5" y="459.5" type="line"/>
      <point x="467" y="501"/>
      <point x="461" y="544.5"/>
      <point x="402.5" y="545.5" type="curve" smooth="yes"/>
      <point x="362" y="546.5"/>
      <point x="324.5" y="520.5"/>
      <point x="316.5" y="479.5" type="curve" smooth="yes"/>
      <point x="301.5" y="413"/>
      <point x="379" y="364.5"/>
      <point x="369" y="273.5" type="curve" smooth="yes"/>
      <point x="352" y="160"/>
      <point x="202" y="77"/>
      <point x="110" y="52" type="curve"/>
      <point x="206.5" y="174.5" type="line"/>
      <point x="540.5" y="175" type="line"/>
      <point x="510" y="0" type="line"/>
      <point x="15.5" y="0" type="line"/>
      <point x="107.5" y="97"/>
      <point x="174.5" y="192"/>
      <point x="192" y="309" type="curve" smooth="yes"/>
      <point x="203" y="394.5"/>
      <point x="114.5" y="432"/>
      <point x="124.5" y="523.5" type="curve" smooth="yes"/>
      <point x="141" y="645.5"/>
      <point x="280.5" y="709.5"/>
      <point x="409" y="709.5" type="curve" smooth="yes"/>
      <point x="548.5" y="709.5"/>
      <point x="649" y="629"/>
      <point x="647.5" y="522.5" type="curve"/>
    </contour>
  </outline>
</glyph>
<glyph name="yen" format="2">
  <advance width="701"/>
  <unicode hex="00A5"/>
  <outline>
    <contour>
      <point x="57" y="250" type="line"/>
      <point x="77.5" y="365" type="line"/>
      <point x="692.5" y="365" type="line"/>
      <point x="672" y="250" type="line"/>
    </contour>
    <contour>
      <point x="31.5" y="100" type="line"/>
      <point x="52" y="215" type="line"/>
      <point x="667" y="215" type="line"/>
      <point x="646.5" y="100" type="line"/>
    </contour>
    <contour>
      <point x="545.5" y="699.5" type="line"/>
      <point x="800.5" y="699.5" type="line"/>
      <point x="480" y="271" type="line"/>
      <point x="434.5" y="0" type="line"/>
      <point x="211.5" y="0" type="line"/>
      <point x="261" y="279" type="line"/>
      <point x="89" y="700" type="line"/>
      <point x="334" y="700" type="line"/>
      <point x="401" y="477.5" type="line"/>
    </contour>
  </outline>
</glyph>
<glyph name="brokenbar" format="2">
  <advance width="388"/>
  <unicode hex="00A6"/>
  <outline>
    <contour>
      <point x="187.5" y="695" type="line"/>
      <point x="385" y="695" type="line"/>
      <point x="336" y="415" type="line"/>
      <point x="138.5" y="415" type="line"/>
    </contour>
    <contour>
      <point x="315" y="285" type="line"/>
      <point x="266" y="5" type="line"/>
      <point x="68.5" y="5" type="line"/>
      <point x="117.5" y="285" type="line"/>
    </contour>
  </outline>
</glyph>
<glyph name="section" format="2">
  <advance width="658"/>
  <unicode hex="00A7"/>
  <outline>
    <contour>
      <point x="510" y="532" type="line"/>
      <point x="481.5" y="555.5"/>
      <point x="442.5" y="577.5"/>
      <point x="411.5" y="577" type="curve" smooth="yes"/>
      <point x="390.5" y="577"/>
      <point x="366" y="567.5"/>
      <point x="365" y="555" type="curve" smooth="yes"/>
      <point x="364" y="534.5"/>
      <point x="413" y="535"/>
      <point x="447" y="527.5" type="curve" smooth="yes"/>
      <point x="522.5" y="510"/>
      <point x="575.5" y="456"/>
      <point x="565.5" y="382" type="curve" smooth="yes"/>
      <point x="548.5" y="269.5"/>
      <point x="415.5" y="226"/>
      <point x="305" y="223" type="curve"/>
      <point x="312.5" y="268" type="line"/>
      <point x="344" y="279.5"/>
      <point x="385" y="294.5"/>
      <point x="391.5" y="333.5" type="curve" smooth="yes"/>
      <point x="402" y="389.5"/>
      <point x="326.5" y="404.5"/>
      <point x="282" y="423.5" type="curve" smooth="yes"/>
      <point x="225" y="448.5"/>
      <point x="179.5" y="496.5"/>
      <point x="188.5" y="572.5" type="curve" smooth="yes"/>
      <point x="203" y="678"/>
      <point x="314" y="731"/>
      <point x="413" y="731.5" type="curve" smooth="yes"/>
      <point x="490" y="732"/>
      <point x="561" y="704.5"/>
      <point x="602.5" y="663" type="curve"/>
    </contour>
    <contour>
      <point x="141.5" y="180" type="line"/>
      <point x="198.5" y="142.5"/>
      <point x="256.5" y="123.5"/>
      <point x="296.5" y="125" type="curve" smooth="yes"/>
      <point x="318" y="125.5"/>
      <point x="341" y="133.5"/>
      <point x="343" y="146.5" type="curve" smooth="yes"/>
      <point x="346" y="169"/>
      <point x="297" y="173.5"/>
      <point x="262" y="181.5" type="curve" smooth="yes"/>
      <point x="187.5" y="199"/>
      <point x="113.5" y="243"/>
      <point x="123.5" y="320" type="curve" smooth="yes"/>
      <point x="139" y="433.5"/>
      <point x="283" y="476"/>
      <point x="393" y="479" type="curve"/>
      <point x="386" y="434" type="line"/>
      <point x="355" y="422.5"/>
      <point x="312.5" y="407.5"/>
      <point x="306.5" y="368.5" type="curve" smooth="yes"/>
      <point x="297" y="312"/>
      <point x="384" y="305"/>
      <point x="427" y="286.5" type="curve" smooth="yes"/>
      <point x="490.5" y="258.5"/>
      <point x="539.5" y="206.5"/>
      <point x="529.5" y="129.5" type="curve" smooth="yes"/>
      <point x="514.5" y="23"/>
      <point x="394.5" y="-29"/>
      <point x="295" y="-30" type="curve" smooth="yes"/>
      <point x="189" y="-31"/>
      <point x="115" y="0"/>
      <point x="49" y="49" type="curve"/>
    </contour>
  </outline>
</glyph>
<glyph name="dieresis" format="2">
  <advance width="520"/>
  <unicode hex="00A8"/>
  <outline>
    <contour>
      <point x="362.5" y="616" type="curve" smooth="yes"/>
      <point x="369" y="672"/>
      <point x="423" y="712.5"/>
      <point x="480" y="712.5" type="curve" smooth="yes"/>
      <point x="537.5" y="712.5"/>
      <point x="581.5" y="671"/>
      <point x="574.5" y="614" type="curve" smooth="yes"/>
      <point x="568" y="558"/>
      <point x="514.5" y="517.5"/>
      <point x="457.5" y="517.5" type="curve" smooth="yes"/>
      <point x="400" y="517.5"/>
      <point x="355.5" y="559"/>
    </contour>
    <contour>
      <point x="100.5" y="616" type="curve" smooth="yes"/>
      <point x="107" y="672"/>
      <point x="161" y="712.5"/>
      <point x="218" y="712.5" type="curve" smooth="yes"/>
      <point x="275.5" y="712.5"/>
      <point x="319.5" y="671"/>
      <point x="312.5" y="614" type="curve" smooth="yes"/>
      <point x="306" y="558"/>
      <point x="252.5" y="517.5"/>
      <point x="195.5" y="517.5" type="curve" smooth="yes"/>
      <point x="138" y="517.5"/>
      <point x="93.5" y="559"/>
    </contour>
  </outline>
</glyph>
<glyph name="copyright" format="1">
  <advance width="776"/>
  <unicode hex="00A9"/>
  <outline>
    <contour>
      <point x="347" y="349.5" type="curve" smooth="yes"/>
      <point x="338" y="291.5"/>
      <point x="375.5" y="254.5"/>
      <point x="432" y="253" type="curve" smooth="yes"/>
      <point x="486" y="252"/>
      <point x="525.5" y="279"/>
      <point x="558.5" y="303.5" type="curve"/>
      <point x="541" y="168" type="line"/>
      <point x="504.5" y="145.5"/>
      <point x="466.5" y="129"/>
      <point x="412.5" y="128.5" type="curve" smooth="yes"/>
      <point x="276" y="128"/>
      <point x="187.5" y="222"/>
      <point x="204" y="350.5" type="curve" smooth="yes"/>
      <point x="221" y="481.5"/>
      <point x="331.5" y="572"/>
      <point x="470.5" y="572" type="curve" smooth="yes"/>
      <point x="523.5" y="572"/>
      <point x="559.5" y="555.5"/>
      <point x="594.5" y="531.5" type="curve"/>
      <point x="577" y="396" type="line"/>
      <point x="551.5" y="423.5"/>
      <point x="521.5" y="448"/>
      <point x="471" y="448" type="curve" smooth="yes"/>
      <point x="412" y="448"/>
      <point x="357" y="410"/>
    </contour>
    <contour>
      <point x="130.5" y="350" type="curve" smooth="yes"/>
      <point x="106.5" y="189.5"/>
      <point x="200.5" y="41.5"/>
      <point x="372" y="40.5" type="curve" smooth="yes"/>
      <point x="546.5" y="39.5"/>
      <point x="692.5" y="181"/>
      <point x="719.5" y="350" type="curve" smooth="yes"/>
      <point x="743.5" y="510.5"/>
      <point x="649.5" y="658.5"/>
      <point x="478" y="659.5" type="curve" smooth="yes"/>
      <point x="303.5" y="660.5"/>
      <point x="157.5" y="519"/>
    </contour>
    <contour>
      <point x="74" y="350" type="curve" smooth="yes"/>
      <point x="100.5" y="550"/>
      <point x="270.5" y="710.5"/>
      <point x="474.5" y="710" type="curve" smooth="yes"/>
      <point x="675.5" y="709.5"/>
      <point x="800.5" y="543.5"/>
      <point x="776" y="350" type="curve" smooth="yes"/>
      <point x="749.5" y="150"/>
      <point x="579" y="-10.5"/>
      <point x="375" y="-10" type="curve" smooth="yes"/>
      <point x="174" y="-9.5"/>
      <point x="49.5" y="156.5"/>
    </contour>
  </outline>
</glyph>
<glyph name="ordfeminine" format="2">
  <advance width="281"/>
  <unicode hex="00AA"/>
  <outline>
    <contour>
      <point x="174" y="528" type="curve" smooth="yes"/>
      <point x="173" y="518.5"/>
      <point x="181.5" y="513"/>
      <point x="191" y="513" type="curve" smooth="yes"/>
      <point x="214" y="513.5"/>
      <point x="232.5" y="529.5"/>
      <point x="240" y="554.5" type="curve"/>
      <point x="243" y="523.5" type="line"/>
      <point x="231.5" y="483.5"/>
      <point x="200" y="455.5"/>
      <point x="153" y="455.5" type="curve" smooth="yes"/>
      <point x="106.5" y="455.5"/>
      <point x="71" y="482.5"/>
      <point x="77" y="526.5" type="curve" smooth="yes"/>
      <point x="83.5" y="571.5"/>
      <point x="132" y="596.5"/>
      <point x="183.5" y="597" type="curve" smooth="yes"/>
      <point x="212.5" y="597.5"/>
      <point x="242.5" y="588.5"/>
      <point x="261" y="576" type="curve"/>
      <point x="254" y="533.5" type="line"/>
      <point x="241" y="543"/>
      <point x="228.5" y="550.5"/>
      <point x="208.5" y="550" type="curve" smooth="yes"/>
      <point x="194" y="550"/>
      <point x="176" y="540.5"/>
    </contour>
    <contour>
      <point x="143" y="611.5" type="curve"/>
      <point x="123.5" y="681" type="line"/>
      <point x="157" y="692.5"/>
      <point x="196" y="705"/>
      <point x="236" y="705" type="curve" smooth="yes"/>
      <point x="294" y="705"/>
      <point x="346.5" y="681.5"/>
      <point x="342" y="627.5" type="curve"/>
      <point x="314.5" y="460" type="line"/>
      <point x="222" y="460.5" type="line"/>
      <point x="248" y="596" type="line"/>
      <point x="247.5" y="613"/>
      <point x="243" y="626.5"/>
      <point x="221.5" y="629" type="curve" smooth="yes"/>
      <point x="192.5" y="632"/>
      <point x="160" y="618.5"/>
    </contour>
  </outline>
</glyph>
<glyph name="guillemotleft" format="1">
  <advance width="543"/>
  <unicode hex="00AB"/>
  <outline>
    <contour>
      <point x="394.384" y="254.709" type="line"/>
      <point x="507" y="61" type="line"/>
      <point x="381" y="-11.5" type="line"/>
      <point x="259" y="260.5" type="line"/>
      <point x="465" y="519.5" type="line"/>
      <point x="574" y="440.5" type="line"/>
    </contour>
    <contour>
      <point x="171.383" y="254.709" type="line"/>
      <point x="284" y="61" type="line"/>
      <point x="158" y="-11.5" type="line"/>
      <point x="36" y="260.5" type="line"/>
      <point x="242" y="519.5" type="line"/>
      <point x="350.5" y="440.5" type="line"/>
    </contour>
  </outline>
</glyph>
<glyph name="uni00AD" format="2">
  <advance width="203"/>
  <unicode hex="00AD"/>
  <outline>
    <contour>
      <point x="13" y="200.5" type="line"/>
      <point x="24.5" y="275" type="line"/>
      <point x="221.5" y="275" type="line"/>
      <point x="209.5" y="200.5" type="line"/>
    </contour>
  </outline>
</glyph>
<glyph name="macron" format="2">
  <advance width="528"/>
  <unicode hex="00AF"/>
  <outline>
    <contour>
      <point x="144" y="555" type="line"/>
      <point x="170" y="720" type="line"/>
      <point x="547" y="720" type="line"/>
      <point x="521" y="555" type="line"/>
    </contour>
  </outline>
</glyph>
<glyph name="degree" format="1">
  <advance width="298"/>
  <unicode hex="00B0"/>
  <outline>
    <contour>
      <point x="87.5" y="596" type="curve" smooth="yes"/>
      <point x="97" y="667.5"/>
      <point x="163.5" y="719.5"/>
      <point x="239" y="719.5" type="curve" smooth="yes"/>
      <point x="314.5" y="719.5"/>
      <point x="370" y="666.5"/>
      <point x="360" y="594" type="curve" smooth="yes"/>
      <point x="350.5" y="522"/>
      <point x="282.5" y="470.5"/>
      <point x="206.5" y="470.5" type="curve" smooth="yes"/>
      <point x="131" y="470.5"/>
      <point x="77.5" y="524"/>
    </contour>
    <contour>
      <point x="181" y="594" type="curve" smooth="yes"/>
      <point x="178.5" y="572.5"/>
      <point x="190.5" y="552.5"/>
      <point x="212.5" y="551.5" type="curve" smooth="yes"/>
      <point x="236" y="550.5"/>
      <point x="262" y="572.5"/>
      <point x="265.5" y="596" type="curve" smooth="yes"/>
      <point x="268" y="617.5"/>
      <point x="255.5" y="638.5"/>
      <point x="233.5" y="639.5" type="curve" smooth="yes"/>
      <point x="210" y="640.5"/>
      <point x="184.5" y="617.5"/>
    </contour>
  </outline>
</glyph>
<glyph name="plusminus" format="2">
  <advance width="625"/>
  <unicode hex="00B1"/>
  <outline>
    <contour>
      <point x="45.5" y="10" type="line"/>
      <point x="71" y="170" type="line"/>
      <point x="574" y="170" type="line"/>
      <point x="548.5" y="10" type="line"/>
    </contour>
    <contour>
      <point x="94" y="325" type="line"/>
      <point x="121" y="495" type="line"/>
      <point x="624" y="495" type="line"/>
      <point x="597" y="325" type="line"/>
    </contour>
    <contour>
      <point x="295.5" y="620" type="line"/>
      <point x="488" y="620" type="line"/>
      <point x="422.5" y="200" type="line"/>
      <point x="230" y="200" type="line"/>
    </contour>
  </outline>
</glyph>
<glyph name="uni00B3" format="2">
  <advance width="385"/>
  <unicode hex="00B3"/>
  <outline>
    <contour>
      <point x="212.5" y="481.5" type="curve"/>
      <point x="220.5" y="533.5" type="line"/>
      <point x="255.5" y="536.5"/>
      <point x="297" y="552"/>
      <point x="301.5" y="581.5" type="curve" smooth="yes"/>
      <point x="303" y="596"/>
      <point x="291.5" y="606.5"/>
      <point x="272.5" y="606.5" type="curve" smooth="yes"/>
      <point x="246" y="606"/>
      <point x="228.5" y="587.5"/>
      <point x="221" y="566.5" type="curve"/>
      <point x="99.5" y="567.5" type="line"/>
      <point x="117.5" y="647.5"/>
      <point x="183.5" y="707.5"/>
      <point x="280.5" y="708.5" type="curve" smooth="yes"/>
      <point x="369" y="709"/>
      <point x="441" y="664.5"/>
      <point x="429" y="589" type="curve" smooth="yes"/>
      <point x="415.5" y="501.5"/>
      <point x="308.5" y="483"/>
    </contour>
    <contour>
      <point x="210.5" y="268" type="curve" smooth="yes"/>
      <point x="105" y="269"/>
      <point x="51" y="341.5"/>
      <point x="56" y="427" type="curve"/>
      <point x="182" y="426.5" type="line"/>
      <point x="182" y="393"/>
      <point x="194" y="372.5"/>
      <point x="223.5" y="370.5" type="curve" smooth="yes"/>
      <point x="248" y="369"/>
      <point x="277.5" y="384.5"/>
      <point x="281" y="410.5" type="curve" smooth="yes"/>
      <point x="288" y="443"/>
      <point x="251.5" y="455.5"/>
      <point x="206" y="457.5" type="curve"/>
      <point x="216" y="518.5" type="line"/>
      <point x="317.5" y="517"/>
      <point x="422" y="491"/>
      <point x="408" y="396" type="curve" smooth="yes"/>
      <point x="396.5" y="315.5"/>
      <point x="311.5" y="267"/>
    </contour>
  </outline>
</glyph>
<glyph name="acute" format="2">
  <advance width="363"/>
  <unicode hex="00B4"/>
  <outline>
    <contour>
      <point x="404.5" y="647" type="line"/>
      <point x="210" y="500.5" type="line"/>
      <point x="104.5" y="553.5" type="line"/>
      <point x="272" y="709.5" type="line"/>
    </contour>
  </outline>
</glyph>
<glyph name="mu" format="1">
  <advance width="587"/>
  <unicode hex="00B5"/>
  <outline>
    <contour>
      <point x="320" y="0" type="line"/>
      <point x="399.5" y="460" type="line"/>
      <point x="592" y="460" type="line"/>
      <point x="513" y="0" type="line"/>
    </contour>
    <contour>
      <point x="250.5" y="180" type="line"/>
      <point x="247.5" y="148.5"/>
      <point x="246" y="119"/>
      <point x="282" y="115" type="curve" smooth="yes"/>
      <point x="317.5" y="111"/>
      <point x="343.5" y="145"/>
      <point x="351.5" y="179.5" type="curve"/>
      <point x="380" y="189" type="line"/>
      <point x="362.5" y="85.5"/>
      <point x="308.5" y="-10"/>
      <point x="188" y="-11" type="curve" smooth="yes"/>
      <point x="71.5" y="-12"/>
      <point x="35" y="58.5"/>
      <point x="48" y="160" type="curve"/>
      <point x="98.5" y="460" type="line"/>
      <point x="301" y="460" type="line"/>
    </contour>
    <contour>
      <point x="98.5" y="460" type="line"/>
      <point x="281.5" y="460" type="line"/>
      <point x="147.5" y="-320" type="line"/>
      <point x="-35" y="-320" type="line"/>
    </contour>
  </outline>
</glyph>
<glyph name="paragraph" format="2">
  <advance width="706"/>
  <unicode hex="00B6"/>
  <outline>
    <contour>
      <point x="351" y="590" type="line"/>
      <point x="370.5" y="700" type="line"/>
      <point x="616.5" y="700" type="line"/>
      <point x="597" y="590" type="line"/>
    </contour>
    <contour>
      <point x="574.5" y="700" type="line"/>
      <point x="742.5" y="700" type="line"/>
      <point x="585" y="-220" type="line"/>
      <point x="416.5" y="-220" type="line"/>
    </contour>
    <contour>
      <point x="370.5" y="700" type="line"/>
      <point x="539" y="700" type="line"/>
      <point x="381" y="-220" type="line"/>
      <point x="213" y="-220" type="line"/>
    </contour>
    <contour>
      <point x="302" y="270.5" type="line"/>
      <point x="180" y="277"/>
      <point x="94.1945" y="355.591"/>
      <point x="112.5" y="485.5" type="curve" smooth="yes"/>
      <point x="132.5" y="621"/>
      <point x="242.5" y="700"/>
      <point x="370.5" y="700" type="curve"/>
    </contour>
  </outline>
</glyph>
<glyph name="uni00B9" format="1">
  <advance width="475"/>
  <unicode hex="00B9"/>
  <outline>
    <contour>
      <point x="182.5" y="547.5" type="line"/>
      <point x="202.5" y="660" type="line"/>
      <point x="444" y="704.5" type="line"/>
      <point x="369.5" y="274" type="line"/>
      <point x="243.5" y="274" type="line"/>
      <point x="295" y="572" type="line"/>
    </contour>
  </outline>
</glyph>
<glyph name="ordmasculine" format="2">
  <advance width="269"/>
  <unicode hex="00BA"/>
  <outline>
    <contour>
      <point x="88" y="581" type="curve" smooth="yes"/>
      <point x="97.5" y="652.5"/>
      <point x="163.5" y="699.5"/>
      <point x="238.5" y="699.5" type="curve" smooth="yes"/>
      <point x="313" y="699.5"/>
      <point x="370.5" y="651.5"/>
      <point x="360.5" y="579" type="curve" smooth="yes"/>
      <point x="351" y="507"/>
      <point x="283" y="460.5"/>
      <point x="208" y="460.5" type="curve" smooth="yes"/>
      <point x="133.5" y="460.5"/>
      <point x="78" y="508.5"/>
    </contour>
    <contour>
      <point x="186.5" y="579" type="curve" smooth="yes"/>
      <point x="184" y="558.5"/>
      <point x="194" y="539.5"/>
      <point x="213" y="538.5" type="curve" smooth="yes"/>
      <point x="233" y="537.5"/>
      <point x="258" y="558.5"/>
      <point x="261" y="581" type="curve" smooth="yes"/>
      <point x="263.5" y="601.5"/>
      <point x="252.5" y="621.5"/>
      <point x="233.5" y="622.5" type="curve" smooth="yes"/>
      <point x="213.5" y="623.5"/>
      <point x="189.5" y="601.5"/>
    </contour>
  </outline>
</glyph>
<glyph name="guillemotright" format="1">
  <advance width="543"/>
  <unicode hex="00BB"/>
  <outline>
    <contour>
      <point x="181.617" y="255.291" type="line"/>
      <point x="69" y="449" type="line"/>
      <point x="195.5" y="521.5" type="line"/>
      <point x="317" y="249.5" type="line"/>
      <point x="111.5" y="-9.5" type="line"/>
      <point x="2.5" y="69.5" type="line"/>
    </contour>
    <contour>
      <point x="405.116" y="255.291" type="line"/>
      <point x="292" y="449" type="line"/>
      <point x="418.5" y="521.5" type="line"/>
      <point x="540.5" y="249.5" type="line"/>
      <point x="334.5" y="-9.5" type="line"/>
      <point x="225.5" y="69.5" type="line"/>
    </contour>
  </outline>
</glyph>
<glyph name="onequarter" format="2">
  <advance width="838"/>
  <unicode hex="00BC"/>
  <outline>
    <contour>
      <point x="707" y="699.5" type="line"/>
      <point x="828.5" y="699.5" type="line"/>
      <point x="203.5" y="0" type="line"/>
      <point x="82" y="0" type="line"/>
    </contour>
    <contour>
      <point x="83.5" y="547.5" type="line"/>
      <point x="103.5" y="660" type="line"/>
      <point x="345" y="704.5" type="line"/>
      <point x="270.5" y="274" type="line"/>
      <point x="144.5" y="274" type="line"/>
      <point x="196" y="572" type="line"/>
    </contour>
    <contour>
      <point x="378.5" y="69.5" type="line"/>
      <point x="499.5" y="158.5" type="line"/>
      <point x="681" y="159" type="line"/>
      <point x="695" y="180" type="line"/>
      <point x="818" y="180" type="line"/>
      <point x="798" y="69" type="line"/>
    </contour>
    <contour>
      <point x="524.5" y="116.5" type="line"/>
      <point x="373.5" y="64.5" type="line"/>
      <point x="683.5" y="419.5" type="line"/>
      <point x="795" y="420" type="line"/>
      <point x="722" y="0" type="line"/>
      <point x="584.5" y="0" type="line"/>
      <point x="600" y="90.5" type="line"/>
      <point x="618.5" y="96.5" type="line"/>
      <point x="643.5" y="243.5" type="line"/>
    </contour>
  </outline>
</glyph>
<glyph name="onehalf" format="2">
  <advance width="911"/>
  <unicode hex="00BD"/>
  <outline>
    <contour>
      <point x="707" y="699.5" type="line"/>
      <point x="828.5" y="699.5" type="line"/>
      <point x="203.5" y="0" type="line"/>
      <point x="82" y="0" type="line"/>
    </contour>
    <contour>
      <point x="83.5" y="547.5" type="line"/>
      <point x="103.5" y="660" type="line"/>
      <point x="345" y="704.5" type="line"/>
      <point x="270.5" y="274" type="line"/>
      <point x="144.5" y="274" type="line"/>
      <point x="196" y="572" type="line"/>
    </contour>
    <contour>
      <point x="465.5" y="2.5" type="line"/>
      <point x="673.5" y="185" type="line" smooth="yes"/>
      <point x="708" y="217"/>
      <point x="747.5" y="244"/>
      <point x="753" y="281.5" type="curve" smooth="yes"/>
      <point x="755" y="300"/>
      <point x="746" y="319.5"/>
      <point x="721" y="320.5" type="curve" smooth="yes"/>
      <point x="689.5" y="322.5"/>
      <point x="668.5" y="288.5"/>
      <point x="661.5" y="260" type="curve"/>
      <point x="532.5" y="261" type="line"/>
      <point x="551" y="352"/>
      <point x="620.5" y="431.5"/>
      <point x="735" y="431.5" type="curve" smooth="yes"/>
      <point x="830" y="431.5"/>
      <point x="899.5" y="369"/>
      <point x="887.5" y="290.5" type="curve" smooth="yes"/>
      <point x="881" y="244"/>
      <point x="849" y="208.5"/>
      <point x="811" y="180.5" type="curve" smooth="yes"/>
      <point x="728" y="122.5" type="line"/>
      <point x="874" y="121.5" type="line"/>
      <point x="853" y="2" type="line"/>
    </contour>
  </outline>
</glyph>
<glyph name="questiondown" format="1">
  <advance width="649"/>
  <unicode hex="00BF"/>
  <outline>
    <contour>
      <point x="246" y="199.5" type="curve" smooth="yes"/>
      <point x="239.5" y="158"/>
      <point x="270" y="136.5"/>
      <point x="319" y="135.5" type="curve" smooth="yes"/>
      <point x="382.5" y="133.5"/>
      <point x="449.5" y="173"/>
      <point x="495.5" y="224" type="curve"/>
      <point x="604" y="111" type="line"/>
      <point x="515" y="30"/>
      <point x="412.5" y="-25.5"/>
      <point x="293" y="-25" type="curve" smooth="yes"/>
      <point x="162" y="-24.5"/>
      <point x="34" y="58"/>
      <point x="54" y="200.5" type="curve" smooth="yes"/>
      <point x="72" y="325.368"/>
      <point x="187.676" y="389.368"/>
      <point x="296.773" y="417.91" type="curve"/>
      <point x="311.5" y="480" type="line"/>
      <point x="473" y="480" type="line"/>
      <point x="463" y="300" type="line"/>
      <point x="429.5" y="300" type="line" smooth="yes"/>
      <point x="337" y="298.5"/>
      <point x="257.5" y="254"/>
    </contour>
    <contour>
      <point x="535" y="629" type="curve" smooth="yes"/>
      <point x="527.5" y="574.5"/>
      <point x="469.5" y="530.5"/>
      <point x="406.5" y="530.5" type="curve" smooth="yes"/>
      <point x="343.5" y="530.5"/>
      <point x="296" y="575.5"/>
      <point x="303.5" y="631" type="curve" smooth="yes"/>
      <point x="311" y="685.5"/>
      <point x="368.5" y="729.5"/>
      <point x="431.5" y="729.5" type="curve" smooth="yes"/>
      <point x="494.5" y="729.5"/>
      <point x="542.5" y="684.5"/>
    </contour>
  </outline>
</glyph>
<glyph name="Agrave" format="2">
  <advance width="756"/>
  <unicode hex="00C0"/>
  <outline>
    <contour>
      <point x="187" y="90" type="line"/>
      <point x="215" y="248" type="line"/>
      <point x="577.5" y="248" type="line"/>
      <point x="549.5" y="90" type="line"/>
    </contour>
    <contour>
      <point x="420.5" y="382" type="line"/>
      <point x="302.5" y="188.5" type="line"/>
      <point x="311" y="138" type="line"/>
      <point x="214.5" y="0" type="line"/>
      <point x="-36.5" y="0" type="line"/>
      <point x="478" y="752.5" type="line"/>
      <point x="733.5" y="0" type="line"/>
      <point x="493.5" y="0" type="line"/>
      <point x="442.5" y="132.5" type="line"/>
      <point x="467.5" y="189" type="line"/>
    </contour>
    <contour>
      <point x="341.5" y="963" type="line"/>
      <point x="483" y="1020.5" type="line"/>
      <point x="604" y="856.5" type="line"/>
      <point x="494" y="810" type="line"/>
    </contour>
  </outline>
</glyph>
<glyph name="Aacute" format="2">
  <advance width="756"/>
  <unicode hex="00C1"/>
  <outline>
    <contour>
      <point x="187" y="90" type="line"/>
      <point x="215" y="248" type="line"/>
      <point x="577.5" y="248" type="line"/>
      <point x="549.5" y="90" type="line"/>
    </contour>
    <contour>
      <point x="420.5" y="382" type="line"/>
      <point x="302.5" y="188.5" type="line"/>
      <point x="311" y="138" type="line"/>
      <point x="214.5" y="0" type="line"/>
      <point x="-36.5" y="0" type="line"/>
      <point x="478" y="752.5" type="line"/>
      <point x="733.5" y="0" type="line"/>
      <point x="493.5" y="0" type="line"/>
      <point x="442.5" y="132.5" type="line"/>
      <point x="467.5" y="189" type="line"/>
    </contour>
    <contour>
      <point x="686.5" y="956.5" type="line"/>
      <point x="490" y="810.5" type="line"/>
      <point x="385" y="863.5" type="line"/>
      <point x="554.5" y="1019" type="line"/>
    </contour>
  </outline>
</glyph>
<glyph name="Acircumflex" format="2">
  <advance width="756"/>
  <unicode hex="00C2"/>
  <outline>
    <contour>
      <point x="187" y="90" type="line"/>
      <point x="215" y="248" type="line"/>
      <point x="577.5" y="248" type="line"/>
      <point x="549.5" y="90" type="line"/>
    </contour>
    <contour>
      <point x="420.5" y="382" type="line"/>
      <point x="302.5" y="188.5" type="line"/>
      <point x="311" y="138" type="line"/>
      <point x="214.5" y="0" type="line"/>
      <point x="-36.5" y="0" type="line"/>
      <point x="478" y="752.5" type="line"/>
      <point x="733.5" y="0" type="line"/>
      <point x="493.5" y="0" type="line"/>
      <point x="442.5" y="132.5" type="line"/>
      <point x="467.5" y="189" type="line"/>
    </contour>
    <contour>
      <point x="507.5" y="888.5" type="line"/>
      <point x="416.5" y="810" type="line"/>
      <point x="291.5" y="903.5" type="line"/>
      <point x="524" y="1040" type="line"/>
      <point x="718.5" y="896.5" type="line"/>
      <point x="571" y="809" type="line"/>
    </contour>
  </outline>
</glyph>
<glyph name="Atilde" format="2">
  <advance width="756"/>
  <unicode hex="00C3"/>
  <outline>
    <contour>
      <point x="187" y="90" type="line"/>
      <point x="215" y="248" type="line"/>
      <point x="577.5" y="248" type="line"/>
      <point x="549.5" y="90" type="line"/>
    </contour>
    <contour>
      <point x="420.5" y="382" type="line"/>
      <point x="302.5" y="188.5" type="line"/>
      <point x="311" y="138" type="line"/>
      <point x="214.5" y="0" type="line"/>
      <point x="-36.5" y="0" type="line"/>
      <point x="478" y="752.5" type="line"/>
      <point x="733.5" y="0" type="line"/>
      <point x="493.5" y="0" type="line"/>
      <point x="442.5" y="132.5" type="line"/>
      <point x="467.5" y="189" type="line"/>
    </contour>
    <contour>
      <point x="294" y="895" type="line"/>
      <point x="315.5" y="944"/>
      <point x="362.5" y="996"/>
      <point x="432" y="994.5" type="curve" smooth="yes"/>
      <point x="488" y="993.5"/>
      <point x="511" y="939.5"/>
      <point x="562.5" y="941" type="curve" smooth="yes"/>
      <point x="594.5" y="942"/>
      <point x="619.5" y="969"/>
      <point x="642" y="996" type="curve"/>
      <point x="715.5" y="901" type="line"/>
      <point x="688" y="861"/>
      <point x="624" y="808"/>
      <point x="557.5" y="810.5" type="curve" smooth="yes"/>
      <point x="507.5" y="812.5"/>
      <point x="470" y="870"/>
      <point x="421" y="866" type="curve" smooth="yes"/>
      <point x="388.5" y="863.5"/>
      <point x="375" y="834"/>
      <point x="366.5" y="816" type="curve"/>
    </contour>
  </outline>
</glyph>
<glyph name="Adieresis" format="2">
  <advance width="756"/>
  <unicode hex="00C4"/>
  <outline>
    <contour>
      <point x="187" y="90" type="line"/>
      <point x="215" y="248" type="line"/>
      <point x="577.5" y="248" type="line"/>
      <point x="549.5" y="90" type="line"/>
    </contour>
    <contour>
      <point x="420.5" y="382" type="line"/>
      <point x="302.5" y="188.5" type="line"/>
      <point x="311" y="138" type="line"/>
      <point x="214.5" y="0" type="line"/>
      <point x="-36.5" y="0" type="line"/>
      <point x="478" y="752.5" type="line"/>
      <point x="733.5" y="0" type="line"/>
      <point x="493.5" y="0" type="line"/>
      <point x="442.5" y="132.5" type="line"/>
      <point x="467.5" y="189" type="line"/>
    </contour>
    <contour>
      <point x="545" y="819.5" type="curve" smooth="yes"/>
      <point x="552.5" y="875.5"/>
      <point x="606.5" y="915.5"/>
      <point x="663.5" y="915.5" type="curve" smooth="yes"/>
      <point x="721" y="915.5"/>
      <point x="764.5" y="873.5"/>
      <point x="757" y="816.5" type="curve" smooth="yes"/>
      <point x="749.5" y="760.5"/>
      <point x="695.5" y="720.5"/>
      <point x="638.5" y="720.5" type="curve" smooth="yes"/>
      <point x="581" y="720.5"/>
      <point x="537.5" y="762.5"/>
    </contour>
    <contour>
      <point x="217" y="829.5" type="curve" smooth="yes"/>
      <point x="224.5" y="885.5"/>
      <point x="278.5" y="925.5"/>
      <point x="335.5" y="925.5" type="curve" smooth="yes"/>
      <point x="393" y="925.5"/>
      <point x="436.5" y="883.5"/>
      <point x="429" y="826.5" type="curve" smooth="yes"/>
      <point x="421.5" y="770.5"/>
      <point x="367.5" y="730.5"/>
      <point x="310.5" y="730.5" type="curve" smooth="yes"/>
      <point x="253" y="730.5"/>
      <point x="209.5" y="772.5"/>
    </contour>
  </outline>
</glyph>
<glyph name="Aring" format="2">
  <advance width="756"/>
  <unicode hex="00C5"/>
  <outline>
    <contour>
      <point x="187" y="90" type="line"/>
      <point x="215" y="248" type="line"/>
      <point x="577.5" y="248" type="line"/>
      <point x="549.5" y="90" type="line"/>
    </contour>
    <contour>
      <point x="420.5" y="382" type="line"/>
      <point x="302.5" y="188.5" type="line"/>
      <point x="311" y="138" type="line"/>
      <point x="214.5" y="0" type="line"/>
      <point x="-36.5" y="0" type="line"/>
      <point x="478" y="752.5" type="line"/>
      <point x="733.5" y="0" type="line"/>
      <point x="493.5" y="0" type="line"/>
      <point x="442.5" y="132.5" type="line"/>
      <point x="467.5" y="189" type="line"/>
    </contour>
    <contour>
      <point x="352" y="803" type="curve" smooth="yes"/>
      <point x="361.5" y="874.5"/>
      <point x="428" y="926.5"/>
      <point x="503.5" y="926.5" type="curve" smooth="yes"/>
      <point x="579" y="926.5"/>
      <point x="634.5" y="873.5"/>
      <point x="624.5" y="801" type="curve" smooth="yes"/>
      <point x="615" y="729"/>
      <point x="547" y="677.5"/>
      <point x="471" y="677.5" type="curve" smooth="yes"/>
      <point x="395.5" y="677.5"/>
      <point x="342" y="731"/>
    </contour>
    <contour>
      <point x="445.5" y="801" type="curve" smooth="yes"/>
      <point x="443" y="779.5"/>
      <point x="454.5" y="759.5"/>
      <point x="476.5" y="758.5" type="curve" smooth="yes"/>
      <point x="500" y="757.5"/>
      <point x="526.5" y="779.5"/>
      <point x="530" y="803" type="curve" smooth="yes"/>
      <point x="532.5" y="824.5"/>
      <point x="520" y="845.5"/>
      <point x="498" y="846.5" type="curve" smooth="yes"/>
      <point x="474.5" y="847.5"/>
      <point x="449" y="824.5"/>
    </contour>
  </outline>
</glyph>
<glyph name="AE" format="2">
  <advance width="1125"/>
  <unicode hex="00C6"/>
  <outline>
    <contour>
      <point x="283" y="115" type="line"/>
      <point x="328" y="315" type="line"/>
      <point x="622.5" y="315" type="line"/>
      <point x="587.5" y="115" type="line"/>
    </contour>
    <contour>
      <point x="523.5" y="700" type="line"/>
      <point x="728" y="658" type="line"/>
      <point x="273" y="0" type="line"/>
      <point x="-12.5" y="0" type="line"/>
    </contour>
    <contour>
      <point x="637.5" y="0" type="line"/>
      <point x="668" y="175" type="line"/>
      <point x="1062.5" y="175" type="line"/>
      <point x="1032" y="0" type="line"/>
    </contour>
    <contour>
      <point x="741.5" y="525" type="line"/>
      <point x="523.5" y="700" type="line"/>
      <point x="1152" y="700" type="line"/>
      <point x="1121.5" y="525" type="line"/>
    </contour>
    <contour>
      <point x="684.5" y="275" type="line"/>
      <point x="714.5" y="445" type="line"/>
      <point x="1089.5" y="445" type="line"/>
      <point x="1059.5" y="275" type="line"/>
    </contour>
    <contour>
      <point x="658.5" y="700" type="line"/>
      <point x="895" y="700" type="line"/>
      <point x="775" y="0" type="line"/>
      <point x="538.5" y="0" type="line"/>
    </contour>
  </outline>
</glyph>
<glyph name="Igrave" format="2">
  <advance width="354"/>
  <unicode hex="00CC"/>
  <outline>
    <contour>
      <point x="159" y="700" type="line"/>
      <point x="380.5" y="700" type="line"/>
      <point x="260.5" y="0" type="line"/>
      <point x="39" y="0" type="line"/>
    </contour>
    <contour>
      <point x="126.5" y="943" type="line"/>
      <point x="268" y="1000.5" type="line"/>
      <point x="389" y="836.5" type="line"/>
      <point x="279" y="790" type="line"/>
    </contour>
  </outline>
</glyph>
<glyph name="Icircumflex" format="1">
  <advance width="354"/>
  <unicode hex="00CE"/>
  <outline>
    <contour>
      <point x="159" y="700" type="line"/>
      <point x="380.5" y="700" type="line"/>
      <point x="260.5" y="0" type="line"/>
      <point x="39" y="0" type="line"/>
    </contour>
    <contour>
      <point x="297.5" y="894" type="line"/>
      <point x="173.5" y="800" type="line"/>
      <point x="127" y="843" type="line"/>
      <point x="303" y="980.5" type="line"/>
      <point x="439.5" y="837.5" type="line"/>
      <point x="388" y="800" type="line"/>
    </contour>
  </outline>
</glyph>
<glyph name="Idieresis" format="2">
  <advance width="354"/>
  <unicode hex="00CF"/>
  <outline>
    <contour>
      <point x="159" y="700" type="line"/>
      <point x="380.5" y="700" type="line"/>
      <point x="260.5" y="0" type="line"/>
      <point x="39" y="0" type="line"/>
    </contour>
    <contour>
      <point x="325.5" y="879.5" type="curve" smooth="yes"/>
      <point x="333" y="935.5"/>
      <point x="387" y="975.5"/>
      <point x="444" y="975.5" type="curve" smooth="yes"/>
      <point x="501.5" y="975.5"/>
      <point x="545" y="933.5"/>
      <point x="537.5" y="876.5" type="curve" smooth="yes"/>
      <point x="530" y="820.5"/>
      <point x="476" y="780.5"/>
      <point x="419" y="780.5" type="curve" smooth="yes"/>
      <point x="361.5" y="780.5"/>
      <point x="318" y="822.5"/>
    </contour>
    <contour>
      <point x="63.5" y="879.5" type="curve" smooth="yes"/>
      <point x="71" y="935.5"/>
      <point x="124.5" y="975.5"/>
      <point x="181.5" y="975.5" type="curve" smooth="yes"/>
      <point x="239" y="975.5"/>
      <point x="283" y="933.5"/>
      <point x="275.5" y="876.5" type="curve" smooth="yes"/>
      <point x="268" y="820.5"/>
      <point x="214" y="780.5"/>
      <point x="157" y="780.5" type="curve" smooth="yes"/>
      <point x="99.5" y="780.5"/>
      <point x="56" y="822.5"/>
    </contour>
  </outline>
</glyph>
<glyph name="Ocircumflex" format="1">
  <advance width="815"/>
  <unicode hex="00D4"/>
  <outline>
    <contour>
      <point x="289" y="350" type="curve" smooth="yes"/>
      <point x="275" y="262"/>
      <point x="307.5" y="180"/>
      <point x="405" y="178.5" type="curve" smooth="yes"/>
      <point x="503.5" y="177"/>
      <point x="574.5" y="255.5"/>
      <point x="591.5" y="350" type="curve" smooth="yes"/>
      <point x="606" y="438.5"/>
      <point x="576" y="520.5"/>
      <point x="475.5" y="521.5" type="curve" smooth="yes"/>
      <point x="377" y="522.5"/>
      <point x="305.5" y="444.5"/>
    </contour>
    <contour>
      <point x="60" y="350" type="curve" smooth="yes"/>
      <point x="92" y="564.5"/>
      <point x="278.5" y="720"/>
      <point x="497" y="720" type="curve" smooth="yes"/>
      <point x="714" y="720"/>
      <point x="850.5" y="558.5"/>
      <point x="820.5" y="350" type="curve" smooth="yes"/>
      <point x="788.5" y="134.5"/>
      <point x="607" y="-30.5"/>
      <point x="381.5" y="-30" type="curve" smooth="yes"/>
      <point x="160" y="-29.5"/>
      <point x="30" y="141.5"/>
    </contour>
    <contour>
      <point x="553" y="894" type="line"/>
      <point x="429" y="800" type="line"/>
      <point x="382" y="843" type="line"/>
      <point x="558.5" y="980.5" type="line"/>
      <point x="695" y="837.5" type="line"/>
      <point x="643" y="800" type="line"/>
    </contour>
  </outline>
</glyph>
<glyph name="Otilde" format="2">
  <advance width="815"/>
  <unicode hex="00D5"/>
  <outline>
    <contour>
      <point x="289" y="350" type="curve" smooth="yes"/>
      <point x="275" y="262"/>
      <point x="307.5" y="180"/>
      <point x="405" y="178.5" type="curve" smooth="yes"/>
      <point x="503.5" y="177"/>
      <point x="574.5" y="255.5"/>
      <point x="591.5" y="350" type="curve" smooth="yes"/>
      <point x="606" y="438.5"/>
      <point x="576" y="520.5"/>
      <point x="475.5" y="521.5" type="curve" smooth="yes"/>
      <point x="377" y="522.5"/>
      <point x="305.5" y="444.5"/>
    </contour>
    <contour>
      <point x="60" y="350" type="curve" smooth="yes"/>
      <point x="92" y="564.5"/>
      <point x="278.5" y="720"/>
      <point x="497" y="720" type="curve" smooth="yes"/>
      <point x="714" y="720"/>
      <point x="850.5" y="558.5"/>
      <point x="820.5" y="350" type="curve" smooth="yes"/>
      <point x="788.5" y="134.5"/>
      <point x="607" y="-30.5"/>
      <point x="381.5" y="-30" type="curve" smooth="yes"/>
      <point x="160" y="-29.5"/>
      <point x="30" y="141.5"/>
    </contour>
    <contour>
      <point x="371.5" y="865" type="line"/>
      <point x="371.5" y="909"/>
      <point x="445.5" y="945"/>
      <point x="482" y="944.5" type="curve" smooth="yes"/>
      <point x="534" y="944"/>
      <point x="548" y="897.5"/>
      <point x="594.5" y="899" type="curve" smooth="yes"/>
      <point x="618" y="900"/>
      <point x="638.5" y="921.5"/>
      <point x="658.5" y="946" type="curve"/>
      <point x="700.5" y="900.5" type="line"/>
      <point x="678.5" y="866.5"/>
      <point x="637.5" y="828.5"/>
      <point x="589.5" y="830.5" type="curve" smooth="yes"/>
      <point x="543" y="832"/>
      <point x="522" y="877.5"/>
      <point x="480.5" y="876.5" type="curve" smooth="yes"/>
      <point x="445" y="875.5"/>
      <point x="429.5" y="844"/>
      <point x="421" y="826" type="curve"/>
    </contour>
  </outline>
</glyph>
<glyph name="Odieresis" format="2">
  <advance width="815"/>
  <unicode hex="00D6"/>
  <outline>
    <contour>
      <point x="289" y="350" type="curve" smooth="yes"/>
      <point x="275" y="262"/>
      <point x="307.5" y="180"/>
      <point x="405" y="178.5" type="curve" smooth="yes"/>
      <point x="503.5" y="177"/>
      <point x="574.5" y="255.5"/>
      <point x="591.5" y="350" type="curve" smooth="yes"/>
      <point x="606" y="438.5"/>
      <point x="576" y="520.5"/>
      <point x="475.5" y="521.5" type="curve" smooth="yes"/>
      <point x="377" y="522.5"/>
      <point x="305.5" y="444.5"/>
    </contour>
    <contour>
      <point x="60" y="350" type="curve" smooth="yes"/>
      <point x="92" y="564.5"/>
      <point x="278.5" y="720"/>
      <point x="497" y="720" type="curve" smooth="yes"/>
      <point x="714" y="720"/>
      <point x="850.5" y="558.5"/>
      <point x="820.5" y="350" type="curve" smooth="yes"/>
      <point x="788.5" y="134.5"/>
      <point x="607" y="-30.5"/>
      <point x="381.5" y="-30" type="curve" smooth="yes"/>
      <point x="160" y="-29.5"/>
      <point x="30" y="141.5"/>
    </contour>
    <contour>
      <point x="555.5" y="879.5" type="curve" smooth="yes"/>
      <point x="563" y="935.5"/>
      <point x="617" y="975.5"/>
      <point x="674" y="975.5" type="curve" smooth="yes"/>
      <point x="731.5" y="975.5"/>
      <point x="775" y="933.5"/>
      <point x="767.5" y="876.5" type="curve" smooth="yes"/>
      <point x="760" y="820.5"/>
      <point x="706" y="780.5"/>
      <point x="649" y="780.5" type="curve" smooth="yes"/>
      <point x="591.5" y="780.5"/>
      <point x="548" y="822.5"/>
    </contour>
    <contour>
      <point x="293.5" y="879.5" type="curve" smooth="yes"/>
      <point x="301" y="935.5"/>
      <point x="354.5" y="975.5"/>
      <point x="411.5" y="975.5" type="curve" smooth="yes"/>
      <point x="469" y="975.5"/>
      <point x="513" y="933.5"/>
      <point x="505.5" y="876.5" type="curve" smooth="yes"/>
      <point x="498" y="820.5"/>
      <point x="444" y="780.5"/>
      <point x="387" y="780.5" type="curve" smooth="yes"/>
      <point x="329.5" y="780.5"/>
      <point x="286" y="822.5"/>
    </contour>
  </outline>
</glyph>
<glyph name="Oslash" format="2">
  <advance width="766"/>
  <unicode hex="00D8"/>
  <outline>
    <contour>
      <point x="289" y="350" type="curve" smooth="yes"/>
      <point x="274.5" y="259"/>
      <point x="307" y="179.5"/>
      <point x="405" y="178.5" type="curve" smooth="yes"/>
      <point x="504" y="177"/>
      <point x="574.5" y="252.5"/>
      <point x="591.5" y="350" type="curve" smooth="yes"/>
      <point x="606" y="441"/>
      <point x="573.5" y="520.5"/>
      <point x="475.5" y="521.5" type="curve" smooth="yes"/>
      <point x="376.5" y="523"/>
      <point x="306" y="447.5"/>
    </contour>
    <contour>
      <point x="60" y="350" type="curve" smooth="yes"/>
      <point x="92" y="565"/>
      <point x="275.5" y="720.5"/>
      <point x="497" y="720" type="curve" smooth="yes"/>
      <point x="713.5" y="719.5"/>
      <point x="850.5" y="558.5"/>
      <point x="820.5" y="350" type="curve" smooth="yes"/>
      <point x="788.5" y="135"/>
      <point x="604" y="-30.5"/>
      <point x="381.5" y="-30" type="curve" smooth="yes"/>
      <point x="163" y="-29.5"/>
      <point x="30" y="142"/>
    </contour>
    <contour>
      <point x="779.5" y="759.5" type="line"/>
      <point x="851.5" y="695" type="line"/>
      <point x="95" y="-60" type="line"/>
      <point x="25" y="0" type="line"/>
    </contour>
  </outline>
</glyph>
<glyph name="Ugrave" format="2">
  <advance width="723"/>
  <unicode hex="00D9"/>
  <outline>
    <contour>
      <point x="154" y="700" type="line"/>
      <point x="371" y="700" type="line"/>
      <point x="292" y="250" type="line" smooth="yes"/>
      <point x="286" y="201.5"/>
      <point x="299" y="157"/>
      <point x="356" y="155.5" type="curve" smooth="yes"/>
      <point x="414" y="154"/>
      <point x="450.5" y="199"/>
      <point x="460.5" y="250.5" type="curve"/>
      <point x="538.5" y="700" type="line"/>
      <point x="755" y="700" type="line"/>
      <point x="675.5" y="230" type="line" smooth="yes"/>
      <point x="646.5" y="49.5"/>
      <point x="503.5" y="-40"/>
      <point x="334" y="-40" type="curve" smooth="yes"/>
      <point x="170" y="-40"/>
      <point x="51" y="50"/>
      <point x="74.5" y="230" type="curve"/>
    </contour>
    <contour>
      <point x="320" y="933" type="line"/>
      <point x="461.5" y="990.5" type="line"/>
      <point x="582" y="826.5" type="line"/>
      <point x="472.5" y="780" type="line"/>
    </contour>
  </outline>
</glyph>
<glyph name="Udieresis" format="2">
  <advance width="723"/>
  <unicode hex="00DC"/>
  <outline>
    <contour>
      <point x="154" y="700" type="line"/>
      <point x="371" y="700" type="line"/>
      <point x="292" y="250" type="line" smooth="yes"/>
      <point x="286" y="201.5"/>
      <point x="299" y="157"/>
      <point x="356" y="155.5" type="curve" smooth="yes"/>
      <point x="414" y="154"/>
      <point x="450.5" y="199"/>
      <point x="460.5" y="250.5" type="curve"/>
      <point x="538.5" y="700" type="line"/>
      <point x="755" y="700" type="line"/>
      <point x="675.5" y="230" type="line" smooth="yes"/>
      <point x="646.5" y="49.5"/>
      <point x="503.5" y="-40"/>
      <point x="334" y="-40" type="curve" smooth="yes"/>
      <point x="170" y="-40"/>
      <point x="51" y="50"/>
      <point x="74.5" y="230" type="curve"/>
    </contour>
    <contour>
      <point x="539" y="879.5" type="curve" smooth="yes"/>
      <point x="546.5" y="935.5"/>
      <point x="600.5" y="975.5"/>
      <point x="657.5" y="975.5" type="curve" smooth="yes"/>
      <point x="715" y="975.5"/>
      <point x="758.5" y="933.5"/>
      <point x="751" y="876.5" type="curve" smooth="yes"/>
      <point x="743.5" y="820.5"/>
      <point x="689.5" y="780.5"/>
      <point x="632.5" y="780.5" type="curve" smooth="yes"/>
      <point x="575" y="780.5"/>
      <point x="531.5" y="822.5"/>
    </contour>
    <contour>
      <point x="218.5" y="879.5" type="curve" smooth="yes"/>
      <point x="226" y="935.5"/>
      <point x="280" y="975.5"/>
      <point x="337" y="975.5" type="curve" smooth="yes"/>
      <point x="394.5" y="975.5"/>
      <point x="438" y="933.5"/>
      <point x="430.5" y="876.5" type="curve" smooth="yes"/>
      <point x="423" y="820.5"/>
      <point x="369" y="780.5"/>
      <point x="312" y="780.5" type="curve" smooth="yes"/>
      <point x="254.5" y="780.5"/>
      <point x="211" y="822.5"/>
    </contour>
  </outline>
</glyph>
<glyph name="Thorn" format="2">
  <advance width="630"/>
  <unicode hex="00DE"/>
  <outline>
    <contour>
      <point x="168.5" y="700" type="line"/>
      <point x="351.5" y="700" type="line"/>
      <point x="231.5" y="0" type="line"/>
      <point x="48.5" y="0" type="line"/>
    </contour>
    <contour>
      <point x="239" y="425" type="line"/>
      <point x="268.5" y="590" type="line"/>
      <point x="392.5" y="590" type="line"/>
      <point x="567" y="588"/>
      <point x="668" y="507.5"/>
      <point x="644.5" y="354.5" type="curve" smooth="yes"/>
      <point x="621" y="201.5"/>
      <point x="504.5" y="122"/>
      <point x="324.5" y="120" type="curve"/>
      <point x="187" y="120" type="line"/>
      <point x="216.5" y="285" type="line"/>
      <point x="341" y="285" type="line" smooth="yes"/>
      <point x="401.5" y="286"/>
      <point x="447.5" y="300.5"/>
      <point x="458" y="355.5" type="curve" smooth="yes"/>
      <point x="468" y="409.5"/>
      <point x="432" y="423"/>
      <point x="375.5" y="424.5" type="curve" smooth="yes"/>
    </contour>
  </outline>
</glyph>
<glyph name="germandbls" format="1">
  <advance width="587"/>
  <unicode hex="00DF"/>
  <outline>
    <contour>
      <point x="276.5" y="164.5" type="line"/>
      <point x="347.5" y="170"/>
      <point x="393" y="206"/>
      <point x="404.5" y="266" type="curve" smooth="yes"/>
      <point x="416.5" y="323"/>
      <point x="381" y="342.5"/>
      <point x="300" y="345" type="curve"/>
      <point x="321" y="479.5" type="line"/>
      <point x="480" y="475"/>
      <point x="613" y="383"/>
      <point x="590" y="224.5" type="curve" smooth="yes"/>
      <point x="565.5" y="61"/>
      <point x="428.5" y="-6"/>
      <point x="251" y="-9.5" type="curve"/>
    </contour>
    <contour>
      <point x="309.5" y="405.5" type="curve"/>
      <point x="327" y="519.5" type="line"/>
      <point x="380" y="522"/>
      <point x="415.5" y="536.5"/>
      <point x="420" y="577" type="curve" smooth="yes"/>
      <point x="423" y="609.5"/>
      <point x="399.037" y="625"/>
      <point x="365.5" y="625" type="curve" smooth="yes"/>
      <point x="322" y="625"/>
      <point x="297.842" y="605.381"/>
      <point x="292" y="575.5" type="curve" smooth="yes"/>
      <point x="192.5" y="0" type="line"/>
      <point x="9.5" y="0" type="line"/>
      <point x="112.5" y="606.5" type="line" smooth="yes"/>
      <point x="133.5" y="732.5"/>
      <point x="255" y="800"/>
      <point x="386.5" y="800" type="curve" smooth="yes"/>
      <point x="526" y="800"/>
      <point x="624.5" y="723.5"/>
      <point x="606.5" y="605.5" type="curve" smooth="yes"/>
      <point x="586.5" y="474"/>
      <point x="464" y="409"/>
    </contour>
  </outline>
</glyph>
<glyph name="aring" format="1">
  <advance width="625"/>
  <unicode hex="00E5"/>
  <outline>
    <contour>
      <point x="438" y="460" type="line"/>
      <point x="631" y="460" type="line"/>
      <point x="551.5" y="0" type="line"/>
      <point x="359" y="0" type="line"/>
    </contour>
    <contour>
      <point x="39.5" y="230.5" type="curve" smooth="yes"/>
      <point x="57" y="368.5"/>
      <point x="165" y="470"/>
      <point x="283" y="470" type="curve" smooth="yes"/>
      <point x="406.5" y="470"/>
      <point x="460.5" y="355.5"/>
      <point x="445" y="229.5" type="curve" smooth="yes"/>
      <point x="427.5" y="97.5"/>
      <point x="335.5" y="-9.5"/>
      <point x="213" y="-9.5" type="curve" smooth="yes"/>
      <point x="94.5" y="-9.5"/>
      <point x="23.5" y="97.5"/>
    </contour>
    <contour>
      <point x="241.5" y="229.5" type="curve" smooth="yes"/>
      <point x="235" y="187"/>
      <point x="256" y="142"/>
      <point x="301" y="140.5" type="curve" smooth="yes"/>
      <point x="345" y="139"/>
      <point x="390.5" y="182"/>
      <point x="398.5" y="230.5" type="curve" smooth="yes"/>
      <point x="405" y="275.5"/>
      <point x="383" y="318"/>
      <point x="340.5" y="319.5" type="curve" smooth="yes"/>
      <point x="294" y="321"/>
      <point x="249.5" y="275.5"/>
    </contour>
    <contour>
      <point x="262" y="657" type="curve" smooth="yes"/>
      <point x="271.5" y="728.5"/>
      <point x="338" y="780.5"/>
      <point x="413.5" y="780.5" type="curve" smooth="yes"/>
      <point x="489" y="780.5"/>
      <point x="544.5" y="727.5"/>
      <point x="534.5" y="655" type="curve" smooth="yes"/>
      <point x="525" y="583"/>
      <point x="457" y="531.5"/>
      <point x="381" y="531.5" type="curve" smooth="yes"/>
      <point x="305.5" y="531.5"/>
      <point x="252" y="585"/>
    </contour>
    <contour>
      <point x="355.5" y="655" type="curve" smooth="yes"/>
      <point x="353" y="633.5"/>
      <point x="364.5" y="613.5"/>
      <point x="386.5" y="612.5" type="curve" smooth="yes"/>
      <point x="410" y="611.5"/>
      <point x="436.5" y="633.5"/>
      <point x="440" y="657" type="curve" smooth="yes"/>
      <point x="442.5" y="678.5"/>
      <point x="430" y="699.5"/>
      <point x="408" y="700.5" type="curve" smooth="yes"/>
      <point x="384.5" y="701.5"/>
      <point x="359" y="678.5"/>
    </contour>
  </outline>
</glyph>
<glyph name="ae" format="2">
  <advance width="911"/>
  <unicode hex="00E6"/>
  <outline>
    <contour>
      <point x="205.5" y="138" type="curve" smooth="yes"/>
      <point x="203" y="117"/>
      <point x="222" y="107.5"/>
      <point x="242" y="106.5" type="curve" smooth="yes"/>
      <point x="287.5" y="104"/>
      <point x="325" y="138"/>
      <point x="336.5" y="190" type="curve"/>
      <point x="414.5" y="128.5" type="line"/>
      <point x="392.5" y="35.5"/>
      <point x="318" y="-10"/>
      <point x="193.5" y="-9.5" type="curve" smooth="yes"/>
      <point x="89.5" y="-9.5"/>
      <point x="-1" y="35"/>
      <point x="13" y="130.5" type="curve" smooth="yes"/>
      <point x="26.5" y="222.5"/>
      <point x="122" y="274"/>
      <point x="228.5" y="274.5" type="curve" smooth="yes"/>
      <point x="284.5" y="275"/>
      <point x="346" y="259.5"/>
      <point x="380" y="232" type="curve"/>
      <point x="367.5" y="147.5" type="line"/>
      <point x="341" y="168.5"/>
      <point x="315" y="181"/>
      <point x="274" y="180" type="curve" smooth="yes"/>
      <point x="245" y="179"/>
      <point x="209" y="163.5"/>
    </contour>
    <contour>
      <point x="144" y="297.5" type="curve"/>
      <point x="103.5" y="425" type="line"/>
      <point x="171.5" y="450"/>
      <point x="252" y="475.5"/>
      <point x="332.5" y="475" type="curve" smooth="yes"/>
      <point x="450.5" y="474"/>
      <point x="488" y="418.5"/>
      <point x="474.5" y="320" type="curve"/>
      <point x="443" y="130" type="line"/>
      <point x="327.5" y="130.5" type="line"/>
      <point x="355" y="272.5" type="line"/>
      <point x="359" y="307"/>
      <point x="342" y="329.5"/>
      <point x="299.5" y="332" type="curve" smooth="yes"/>
      <point x="240.5" y="335.5"/>
      <point x="179" y="311.5"/>
    </contour>
    <contour>
      <point x="420" y="190.5" type="line"/>
      <point x="434.5" y="284" type="line"/>
      <point x="886" y="284" type="line"/>
      <point x="884.5" y="190" type="line"/>
    </contour>
    <contour>
      <point x="694.5" y="240" type="line" smooth="yes"/>
      <point x="700" y="294.5"/>
      <point x="704.5" y="346"/>
      <point x="652" y="349" type="curve" smooth="yes"/>
      <point x="599" y="352"/>
      <point x="569" y="303.5"/>
      <point x="558.5" y="250" type="curve"/>
      <point x="552" y="229.5" type="line"/>
      <point x="544" y="167"/>
      <point x="559.5" y="125"/>
      <point x="607.5" y="121" type="curve" smooth="yes"/>
      <point x="650.5" y="118.5"/>
      <point x="685.5" y="138.5"/>
      <point x="708" y="164.5" type="curve"/>
      <point x="881.5" y="135" type="line"/>
      <point x="822" y="47"/>
      <point x="733" y="-10"/>
      <point x="606" y="-10" type="curve" smooth="yes"/>
      <point x="433.5" y="-9.5"/>
      <point x="388" y="93"/>
      <point x="408.5" y="230" type="curve" smooth="yes"/>
      <point x="411" y="247"/>
      <point x="414.5" y="263"/>
      <point x="419.5" y="279" type="curve" smooth="yes"/>
      <point x="456" y="392.5"/>
      <point x="558" y="470"/>
      <point x="695.5" y="470" type="curve" smooth="yes"/>
      <point x="839" y="470"/>
      <point x="911" y="374"/>
      <point x="894" y="239" type="curve" smooth="yes"/>
      <point x="892" y="227"/>
      <point x="888.5" y="209"/>
      <point x="885" y="190.5" type="curve"/>
      <point x="689.5" y="211" type="line"/>
    </contour>
  </outline>
</glyph>
<glyph name="ccedilla" format="2">
  <advance width="488"/>
  <unicode hex="00E7"/>
  <outline>
    <contour>
      <point x="237" y="229.5" type="curve" smooth="yes"/>
      <point x="228" y="175.5"/>
      <point x="262" y="140.5"/>
      <point x="315" y="139" type="curve" smooth="yes"/>
      <point x="362.5" y="137"/>
      <point x="409" y="161"/>
      <point x="444.5" y="196" type="curve"/>
      <point x="419.5" y="21" type="line"/>
      <point x="381.5" y="2.5"/>
      <point x="341.5" y="-10"/>
      <point x="281" y="-10" type="curve" smooth="yes"/>
      <point x="129.5" y="-10"/>
      <point x="18.5" y="85"/>
      <point x="39.5" y="230.5" type="curve" smooth="yes"/>
      <point x="61" y="378"/>
      <point x="194.5" y="470"/>
      <point x="351" y="470" type="curve" smooth="yes"/>
      <point x="411" y="470"/>
      <point x="449.5" y="456.5"/>
      <point x="487" y="440.5" type="curve"/>
      <point x="461" y="264" type="line"/>
      <point x="434.5" y="302.5"/>
      <point x="395" y="322.5"/>
      <point x="356.5" y="322" type="curve" smooth="yes"/>
      <point x="302" y="321.5"/>
      <point x="246.5" y="280.5"/>
    </contour>
    <contour>
      <point x="197.5" y="60.9668" type="line"/>
      <point x="341.5" y="55.4668" type="line"/>
      <point x="217.071" y="-72.2896" type="line"/>
      <point x="231.95" y="-68.6636"/>
      <point x="248.648" y="-66.5332"/>
      <point x="265.5" y="-67.0332" type="curve" smooth="yes"/>
      <point x="317" y="-69.0332"/>
      <point x="360.5" y="-114.033"/>
      <point x="352.5" y="-179.033" type="curve" smooth="yes"/>
      <point x="342" y="-254.533"/>
      <point x="263.5" y="-293.533"/>
      <point x="194.5" y="-295.533" type="curve" smooth="yes"/>
      <point x="131.5" y="-297.033"/>
      <point x="78.5" y="-283.033"/>
      <point x="23.5" y="-254.033" type="curve"/>
      <point x="86" y="-171.033" type="line"/>
      <point x="112.5" y="-187.533"/>
      <point x="148.5" y="-197.033"/>
      <point x="171" y="-196.533" type="curve" smooth="yes"/>
      <point x="197" y="-196.033"/>
      <point x="234.5" y="-185.533"/>
      <point x="236" y="-162.033" type="curve" smooth="yes"/>
      <point x="237.5" y="-137.533"/>
      <point x="200.5" y="-134.533"/>
      <point x="180" y="-134.033" type="curve" smooth="yes"/>
      <point x="158" y="-133.033"/>
      <point x="118" y="-137.533"/>
      <point x="79.5" y="-147.533" type="curve"/>
    </contour>
  </outline>
</glyph>
<glyph name="egrave" format="1">
  <advance width="591"/>
  <unicode hex="00E8"/>
  <outline>
    <contour>
      <point x="138.5" y="190.5" type="line"/>
      <point x="153" y="283.5" type="line"/>
      <point x="376.191" y="284.5" type="line"/>
      <point x="374.482" y="320.635"/>
      <point x="368.021" y="347.5"/>
      <point x="330.5" y="349.5" type="curve" smooth="yes"/>
      <point x="277.5" y="352.5"/>
      <point x="248.5" y="302.5"/>
      <point x="238" y="249.5" type="curve"/>
      <point x="231.5" y="229.5" type="line"/>
      <point x="223.5" y="167"/>
      <point x="239.5" y="125"/>
      <point x="287" y="121" type="curve" smooth="yes"/>
      <point x="330" y="118.5"/>
      <point x="365.5" y="138.5"/>
      <point x="388" y="164.5" type="curve"/>
      <point x="561.5" y="135" type="line"/>
      <point x="502" y="46.5"/>
      <point x="413.5" y="-10"/>
      <point x="286" y="-10" type="curve" smooth="yes"/>
      <point x="116.5" y="-10"/>
      <point x="19" y="86.5"/>
      <point x="40" y="230" type="curve" smooth="yes"/>
      <point x="42.5" y="247"/>
      <point x="46" y="263"/>
      <point x="51" y="279" type="curve" smooth="yes"/>
      <point x="89" y="396.5"/>
      <point x="195.5" y="470"/>
      <point x="346" y="470" type="curve" smooth="yes"/>
      <point x="507" y="470"/>
      <point x="592" y="382.5"/>
      <point x="573.5" y="239" type="curve" smooth="yes"/>
      <point x="571.5" y="227"/>
      <point x="568.5" y="209"/>
      <point x="565" y="190.5" type="curve"/>
    </contour>
    <contour>
      <point x="214.5" y="684" type="line"/>
      <point x="356" y="741.5" type="line"/>
      <point x="476.5" y="577.5" type="line"/>
      <point x="367" y="531" type="line"/>
    </contour>
  </outline>
</glyph>
<glyph name="igrave" format="1">
  <advance width="277"/>
  <unicode hex="00EC"/>
  <outline>
    <contour>
      <point x="97.5" y="460" type="line"/>
      <point x="282.5" y="460" type="line"/>
      <point x="203.5" y="0" type="line"/>
      <point x="18.5" y="0" type="line"/>
    </contour>
    <contour>
      <point x="41.5" y="684" type="line"/>
      <point x="183" y="741.5" type="line"/>
      <point x="304" y="577.5" type="line"/>
      <point x="194" y="531" type="line"/>
    </contour>
  </outline>
</glyph>
<glyph name="idieresis" format="1">
  <advance width="277"/>
  <unicode hex="00EF"/>
  <outline>
    <contour>
      <point x="97.5" y="460" type="line"/>
      <point x="282.5" y="460" type="line"/>
      <point x="203.5" y="0" type="line"/>
      <point x="18.5" y="0" type="line"/>
    </contour>
    <contour>
      <point x="244" y="630.5" type="curve" smooth="yes"/>
      <point x="251.5" y="686.5"/>
      <point x="305.5" y="726.5"/>
      <point x="362.5" y="726.5" type="curve" smooth="yes"/>
      <point x="420" y="726.5"/>
      <point x="463.5" y="684.5"/>
      <point x="456" y="627.5" type="curve" smooth="yes"/>
      <point x="448.5" y="571.5"/>
      <point x="394.5" y="531.5"/>
      <point x="337.5" y="531.5" type="curve" smooth="yes"/>
      <point x="280" y="531.5"/>
      <point x="236.5" y="573.5"/>
    </contour>
    <contour>
      <point x="-18" y="630.5" type="curve" smooth="yes"/>
      <point x="-10.5" y="686.5"/>
      <point x="43.5" y="726.5"/>
      <point x="100.5" y="726.5" type="curve" smooth="yes"/>
      <point x="158" y="726.5"/>
      <point x="201.5" y="684.5"/>
      <point x="194" y="627.5" type="curve" smooth="yes"/>
      <point x="186.5" y="571.5"/>
      <point x="132.5" y="531.5"/>
      <point x="75.5" y="531.5" type="curve" smooth="yes"/>
      <point x="18" y="531.5"/>
      <point x="-25.5" y="573.5"/>
    </contour>
  </outline>
</glyph>
<glyph name="eth" format="2">
  <advance width="704"/>
  <unicode hex="00F0"/>
  <outline>
    <contour>
      <point x="459.5" y="255.5" type="curve" smooth="yes"/>
      <point x="467.5" y="304"/>
      <point x="440.5" y="345.5"/>
      <point x="389" y="346.5" type="curve" smooth="yes"/>
      <point x="336" y="348"/>
      <point x="287" y="306"/>
      <point x="278" y="254.5" type="curve" smooth="yes"/>
      <point x="270" y="205.5"/>
      <point x="297.5" y="166.5"/>
      <point x="348.5" y="165.5" type="curve" smooth="yes"/>
      <point x="401" y="164.5"/>
      <point x="450.5" y="204"/>
    </contour>
    <contour>
      <point x="468" y="695" type="line"/>
      <point x="607.5" y="480" type="line" smooth="yes"/>
      <point x="652" y="410"/>
      <point x="685.5" y="337.5"/>
      <point x="674" y="255" type="curve" smooth="yes"/>
      <point x="650" y="78.5"/>
      <point x="497.5" y="-20"/>
      <point x="328" y="-20" type="curve" smooth="yes"/>
      <point x="163" y="-20"/>
      <point x="38" y="81.5"/>
      <point x="63" y="255.5" type="curve" smooth="yes"/>
      <point x="81.5" y="389"/>
      <point x="200.5" y="481.5"/>
      <point x="313.5" y="483.5" type="curve" smooth="yes"/>
      <point x="364.5" y="484.5"/>
      <point x="394" y="469.5"/>
      <point x="433.5" y="435" type="curve"/>
      <point x="388" y="463" type="line"/>
      <point x="203.5" y="695" type="line"/>
    </contour>
    <contour>
      <point x="184" y="520.5" type="line"/>
      <point x="197" y="605" type="line"/>
      <point x="704.5" y="605" type="line"/>
      <point x="691" y="520.5" type="line"/>
    </contour>
  </outline>
</glyph>
<glyph name="otilde" format="2">
  <advance width="597"/>
  <unicode hex="00F5"/>
  <outline>
    <contour>
      <point x="39.5" y="230.5" type="curve" smooth="yes"/>
      <point x="60.5" y="376.5"/>
      <point x="192.5" y="471"/>
      <point x="346" y="471" type="curve" smooth="yes"/>
      <point x="495" y="471"/>
      <point x="603" y="373.5"/>
      <point x="582.5" y="229.5" type="curve" smooth="yes"/>
      <point x="561.5" y="83.5"/>
      <point x="429" y="-10"/>
      <point x="276" y="-10" type="curve" smooth="yes"/>
      <point x="127" y="-10"/>
      <point x="19" y="86.5"/>
    </contour>
    <contour>
      <point x="236.5" y="229.5" type="curve" smooth="yes"/>
      <point x="230" y="185"/>
      <point x="250" y="147"/>
      <point x="292" y="145.5" type="curve" smooth="yes"/>
      <point x="335.5" y="144"/>
      <point x="377.5" y="182.5"/>
      <point x="385.5" y="230.5" type="curve" smooth="yes"/>
      <point x="392" y="275"/>
      <point x="372" y="314"/>
      <point x="330" y="315.5" type="curve" smooth="yes"/>
      <point x="286.5" y="317"/>
      <point x="244.5" y="277.5"/>
    </contour>
    <contour>
      <point x="167" y="615.5" type="line"/>
      <point x="167" y="666.5"/>
      <point x="248" y="716"/>
      <point x="305" y="715.5" type="curve" smooth="yes"/>
      <point x="361.5" y="715"/>
      <point x="383" y="660.5"/>
      <point x="435" y="662" type="curve" smooth="yes"/>
      <point x="467" y="663"/>
      <point x="492.5" y="690"/>
      <point x="515" y="717" type="curve"/>
      <point x="588" y="622" type="line"/>
      <point x="560.5" y="582"/>
      <point x="497" y="529"/>
      <point x="430.5" y="531.5" type="curve" smooth="yes"/>
      <point x="380.5" y="533.5"/>
      <point x="342.5" y="591"/>
      <point x="293.5" y="587" type="curve" smooth="yes"/>
      <point x="261" y="584.5"/>
      <point x="248" y="555"/>
      <point x="239.5" y="537" type="curve"/>
    </contour>
  </outline>
</glyph>
<glyph name="divide" format="2">
  <advance width="630"/>
  <unicode hex="00F7"/>
  <outline>
    <contour>
      <point x="277.5" y="616" type="curve" smooth="yes"/>
      <point x="286" y="677.5"/>
      <point x="341.5" y="729.5"/>
      <point x="408" y="729.5" type="curve" smooth="yes"/>
      <point x="475" y="729.5"/>
      <point x="517.5" y="675"/>
      <point x="509" y="614" type="curve" smooth="yes"/>
      <point x="500.5" y="552.5"/>
      <point x="445" y="500.5"/>
      <point x="378.5" y="500.5" type="curve" smooth="yes"/>
      <point x="311.5" y="500.5"/>
      <point x="269" y="555"/>
    </contour>
    <contour>
      <point x="192" y="116" type="curve" smooth="yes"/>
      <point x="200.5" y="177.5"/>
      <point x="256.5" y="229.5"/>
      <point x="323" y="229.5" type="curve" smooth="yes"/>
      <point x="390" y="229.5"/>
      <point x="432" y="175"/>
      <point x="423.5" y="114" type="curve" smooth="yes"/>
      <point x="415" y="52.5"/>
      <point x="359.5" y="0.5"/>
      <point x="293" y="0.5" type="curve" smooth="yes"/>
      <point x="226" y="0.5"/>
      <point x="183.5" y="55"/>
    </contour>
    <contour>
      <point x="23.5" y="280" type="line"/>
      <point x="53.5" y="450" type="line"/>
      <point x="678" y="450" type="line"/>
      <point x="648" y="280" type="line"/>
    </contour>
  </outline>
</glyph>
<glyph name="udieresis" format="2">
  <advance width="587"/>
  <unicode hex="00FC"/>
  <outline>
    <contour>
      <point x="320" y="0" type="line"/>
      <point x="399.5" y="460" type="line"/>
      <point x="592" y="460" type="line"/>
      <point x="513" y="0" type="line"/>
    </contour>
    <contour>
      <point x="250.5" y="180" type="line"/>
      <point x="247.5" y="148.5"/>
      <point x="246" y="119"/>
      <point x="282" y="115" type="curve" smooth="yes"/>
      <point x="317.5" y="111"/>
      <point x="343.5" y="145"/>
      <point x="351.5" y="179.5" type="curve"/>
      <point x="380" y="189" type="line"/>
      <point x="362.5" y="85.5"/>
      <point x="308.5" y="-10"/>
      <point x="188" y="-11" type="curve" smooth="yes"/>
      <point x="71.5" y="-12"/>
      <point x="35" y="58.5"/>
      <point x="48" y="160" type="curve"/>
      <point x="98.5" y="460" type="line"/>
      <point x="301" y="460" type="line"/>
    </contour>
    <contour>
      <point x="399.5" y="630.5" type="curve" smooth="yes"/>
      <point x="407" y="686.5"/>
      <point x="460.5" y="726.5"/>
      <point x="517.5" y="726.5" type="curve" smooth="yes"/>
      <point x="575" y="726.5"/>
      <point x="619" y="684.5"/>
      <point x="611.5" y="627.5" type="curve" smooth="yes"/>
      <point x="604" y="571.5"/>
      <point x="550" y="531.5"/>
      <point x="493" y="531.5" type="curve" smooth="yes"/>
      <point x="435.5" y="531.5"/>
      <point x="392" y="573.5"/>
    </contour>
    <contour>
      <point x="137.5" y="630.5" type="curve" smooth="yes"/>
      <point x="145" y="686.5"/>
      <point x="198.5" y="726.5"/>
      <point x="255.5" y="726.5" type="curve" smooth="yes"/>
      <point x="313" y="726.5"/>
      <point x="356.5" y="684.5"/>
      <point x="349" y="627.5" type="curve" smooth="yes"/>
      <point x="341.5" y="571.5"/>
      <point x="288" y="531.5"/>
      <point x="231" y="531.5" type="curve" smooth="yes"/>
      <point x="173.5" y="531.5"/>
      <point x="130" y="573.5"/>
    </contour>
  </outline>
</glyph>
<glyph name="yacute" format="2">
  <advance width="553"/>
  <unicode hex="00FD"/>
  <outline>
    <contour>
      <point x="623.5" y="459.5" type="line"/>
      <point x="215.5" y="-219.5" type="line"/>
      <point x="23.5" y="-219.5" type="line"/>
      <point x="169.5" y="25.5" type="line"/>
      <point x="38" y="460" type="line"/>
      <point x="240" y="460" type="line"/>
      <point x="321" y="85" type="line"/>
      <point x="216" y="85.5" type="line"/>
      <point x="426.5" y="459.5" type="line"/>
    </contour>
    <contour>
      <point x="541.5" y="677.5" type="line"/>
      <point x="345" y="531.5" type="line"/>
      <point x="240.5" y="584.5" type="line"/>
      <point x="410" y="740" type="line"/>
    </contour>
  </outline>
</glyph>
<glyph name="thorn" format="2">
  <advance width="625"/>
  <unicode hex="00FE"/>
  <outline>
    <contour>
      <point x="174.5" y="-220" type="line"/>
      <point x="-18" y="-220" type="line"/>
      <point x="153" y="780" type="line"/>
      <point x="346" y="780" type="line"/>
    </contour>
    <contour>
      <point x="610.5" y="229.5" type="curve" smooth="yes"/>
      <point x="593" y="91.5"/>
      <point x="485.5" y="-10"/>
      <point x="367.5" y="-10" type="curve" smooth="yes"/>
      <point x="244" y="-10"/>
      <point x="188" y="104.5"/>
      <point x="203.5" y="230.5" type="curve" smooth="yes"/>
      <point x="221" y="362.5"/>
      <point x="315" y="469.5"/>
      <point x="437.5" y="469.5" type="curve" smooth="yes"/>
      <point x="556" y="469.5"/>
      <point x="626.5" y="362.5"/>
    </contour>
    <contour>
      <point x="409" y="230.5" type="curve" smooth="yes"/>
      <point x="415.5" y="273"/>
      <point x="394" y="318"/>
      <point x="349" y="319.5" type="curve" smooth="yes"/>
      <point x="305" y="321"/>
      <point x="258" y="278"/>
      <point x="250" y="229.5" type="curve" smooth="yes"/>
      <point x="243.5" y="184.5"/>
      <point x="267.5" y="142"/>
      <point x="310" y="140.5" type="curve" smooth="yes"/>
      <point x="356.5" y="139"/>
      <point x="401" y="184.5"/>
    </contour>
  </outline>
</glyph>
<glyph name="ydieresis" format="2">
  <advance width="553"/>
  <unicode hex="00FF"/>
  <outline>
    <contour>
      <point x="623.5" y="459.5" type="line"/>
      <point x="215.5" y="-219.5" type="line"/>
      <point x="23.5" y="-219.5" type="line"/>
      <point x="169.5" y="25.5" type="line"/>
      <point x="38" y="460" type="line"/>
      <point x="240" y="460" type="line"/>
      <point x="321" y="85" type="line"/>
      <point x="216" y="85.5" type="line"/>
      <point x="426.5" y="459.5" type="line"/>
    </contour>
    <contour>
      <point x="382" y="630.5" type="curve" smooth="yes"/>
      <point x="389.5" y="686.5"/>
      <point x="443.5" y="726.5"/>
      <point x="500.5" y="726.5" type="curve" smooth="yes"/>
      <point x="558" y="726.5"/>
      <point x="601.5" y="684.5"/>
      <point x="594" y="627.5" type="curve" smooth="yes"/>
      <point x="586.5" y="571.5"/>
      <point x="532.5" y="531.5"/>
      <point x="475.5" y="531.5" type="curve" smooth="yes"/>
      <point x="418" y="531.5"/>
      <point x="374.5" y="573.5"/>
    </contour>
    <contour>
      <point x="120" y="630.5" type="curve" smooth="yes"/>
      <point x="127.5" y="686.5"/>
      <point x="181" y="726.5"/>
      <point x="238" y="726.5" type="curve" smooth="yes"/>
      <point x="295.5" y="726.5"/>
      <point x="339.5" y="684.5"/>
      <point x="332" y="627.5" type="curve" smooth="yes"/>
      <point x="324.5" y="571.5"/>
      <point x="270.5" y="531.5"/>
      <point x="213.5" y="531.5" type="curve" smooth="yes"/>
      <point x="156" y="531.5"/>
      <point x="112.5" y="573.5"/>
    </contour>
  </outline>
</glyph>
<glyph name="Abreve" format="1">
  <advance width="756"/>
  <unicode hex="0102"/>
  <outline>
    <contour>
      <point x="187" y="90" type="line"/>
      <point x="215" y="248" type="line"/>
      <point x="577.5" y="248" type="line"/>
      <point x="549.5" y="90" type="line"/>
    </contour>
    <contour>
      <point x="420.5" y="382" type="line"/>
      <point x="302.5" y="188.5" type="line"/>
      <point x="311" y="138" type="line"/>
      <point x="214.5" y="0" type="line"/>
      <point x="-36.5" y="0" type="line"/>
      <point x="478" y="752.5" type="line"/>
      <point x="733.5" y="0" type="line"/>
      <point x="493.5" y="0" type="line"/>
      <point x="442.5" y="132.5" type="line"/>
      <point x="467.5" y="189" type="line"/>
    </contour>
    <contour>
      <point x="350" y="960" type="curve"/>
      <point x="461.5" y="960" type="line"/>
      <point x="462.5" y="929"/>
      <point x="477.5" y="912.5"/>
      <point x="501" y="910.5" type="curve" smooth="yes"/>
      <point x="525.5" y="908.5"/>
      <point x="553" y="929.5"/>
      <point x="561" y="959.5" type="curve"/>
      <point x="678" y="958.5" type="line"/>
      <point x="660.5" y="872"/>
      <point x="595" y="811"/>
      <point x="495" y="810.5" type="curve" smooth="yes"/>
      <point x="395" y="810"/>
      <point x="344.5" y="872"/>
    </contour>
  </outline>
</glyph>
<glyph name="Aogonek" format="2">
  <advance width="756"/>
  <unicode hex="0104"/>
  <outline>
    <contour>
      <point x="187" y="90" type="line"/>
      <point x="215" y="248" type="line"/>
      <point x="577.5" y="248" type="line"/>
      <point x="549.5" y="90" type="line"/>
    </contour>
    <contour>
      <point x="420.5" y="382" type="line"/>
      <point x="302.5" y="188.5" type="line"/>
      <point x="311" y="138" type="line"/>
      <point x="214.5" y="0" type="line"/>
      <point x="-36.5" y="0" type="line"/>
      <point x="478" y="752.5" type="line"/>
      <point x="733.5" y="0" type="line"/>
      <point x="493.5" y="0" type="line"/>
      <point x="442.5" y="132.5" type="line"/>
      <point x="467.5" y="189" type="line"/>
    </contour>
    <contour>
      <point x="643.5" y="-99.5" type="curve"/>
      <point x="664" y="-181.5" type="line"/>
      <point x="640" y="-202.5"/>
      <point x="607.5" y="-220.5"/>
      <point x="556" y="-220" type="curve" smooth="yes"/>
      <point x="500.5" y="-219"/>
      <point x="450.5" y="-183"/>
      <point x="458" y="-119" type="curve" smooth="yes"/>
      <point x="468" y="-46"/>
      <point x="550" y="-8"/>
      <point x="617" y="25" type="curve"/>
      <point x="658" y="0" type="line"/>
      <point x="615.5" y="-28.5"/>
      <point x="578" y="-55.5"/>
      <point x="571" y="-90.5" type="curve" smooth="yes"/>
      <point x="569.5" y="-105"/>
      <point x="573" y="-118"/>
      <point x="590" y="-119.5" type="curve" smooth="yes"/>
      <point x="606.5" y="-121"/>
      <point x="629" y="-109.5"/>
    </contour>
  </outline>
</glyph>
<glyph name="aogonek" format="1">
  <advance width="625"/>
  <unicode hex="0105"/>
  <outline>
    <contour>
      <point x="438" y="460" type="line"/>
      <point x="631" y="460" type="line"/>
      <point x="551.5" y="0" type="line"/>
      <point x="359" y="0" type="line"/>
    </contour>
    <contour>
      <point x="39.5" y="230.5" type="curve" smooth="yes"/>
      <point x="57" y="368.5"/>
      <point x="165" y="470"/>
      <point x="283" y="470" type="curve" smooth="yes"/>
      <point x="406.5" y="470"/>
      <point x="460.5" y="355.5"/>
      <point x="445" y="229.5" type="curve" smooth="yes"/>
      <point x="427.5" y="97.5"/>
      <point x="335.5" y="-9.5"/>
      <point x="213" y="-9.5" type="curve" smooth="yes"/>
      <point x="94.5" y="-9.5"/>
      <point x="23.5" y="97.5"/>
    </contour>
    <contour>
      <point x="241.5" y="229.5" type="curve" smooth="yes"/>
      <point x="235" y="187"/>
      <point x="256" y="142"/>
      <point x="301" y="140.5" type="curve" smooth="yes"/>
      <point x="345" y="139"/>
      <point x="390.5" y="182"/>
      <point x="398.5" y="230.5" type="curve" smooth="yes"/>
      <point x="405" y="275.5"/>
      <point x="383" y="318"/>
      <point x="340.5" y="319.5" type="curve" smooth="yes"/>
      <point x="294" y="321"/>
      <point x="249.5" y="275.5"/>
    </contour>
    <contour>
      <point x="488" y="-99.5" type="curve"/>
      <point x="509" y="-181.5" type="line"/>
      <point x="485" y="-202.5"/>
      <point x="452" y="-220.5"/>
      <point x="400.5" y="-220" type="curve" smooth="yes"/>
      <point x="345" y="-219"/>
      <point x="295" y="-183"/>
      <point x="302.5" y="-119" type="curve" smooth="yes"/>
      <point x="312.5" y="-46"/>
      <point x="395" y="-8"/>
      <point x="462" y="25" type="curve"/>
      <point x="502.5" y="0" type="line"/>
      <point x="460" y="-28.5"/>
      <point x="423" y="-55.5"/>
      <point x="416" y="-90.5" type="curve" smooth="yes"/>
      <point x="414.5" y="-105"/>
      <point x="418" y="-118"/>
      <point x="435" y="-119.5" type="curve" smooth="yes"/>
      <point x="451.5" y="-121"/>
      <point x="473.5" y="-109.5"/>
    </contour>
  </outline>
</glyph>
<glyph name="Ccircumflex" format="2">
  <advance width="689"/>
  <unicode hex="0108"/>
  <outline>
    <contour>
      <point x="297.5" y="350" type="curve" smooth="yes"/>
      <point x="281" y="253.5"/>
      <point x="341" y="189"/>
      <point x="437" y="187.5" type="curve" smooth="yes"/>
      <point x="527.5" y="186.5"/>
      <point x="592.5" y="230.5"/>
      <point x="648" y="272" type="curve"/>
      <point x="615" y="47" type="line"/>
      <point x="553.5" y="8.5"/>
      <point x="488.5" y="-20"/>
      <point x="398" y="-20" type="curve" smooth="yes"/>
      <point x="169.5" y="-20"/>
      <point x="28.5" y="137"/>
      <point x="60" y="350" type="curve" smooth="yes"/>
      <point x="93" y="568.5"/>
      <point x="278" y="720.5"/>
      <point x="512" y="720" type="curve" smooth="yes"/>
      <point x="599.5" y="720"/>
      <point x="658.5" y="693"/>
      <point x="714.5" y="652.5" type="curve"/>
      <point x="680.5" y="427" type="line"/>
      <point x="639.5" y="474.5"/>
      <point x="587.5" y="512.5"/>
      <point x="504" y="512.5" type="curve" smooth="yes"/>
      <point x="405" y="512"/>
      <point x="315.5" y="450.5"/>
    </contour>
    <contour>
      <point x="546" y="858.5" type="line"/>
      <point x="455" y="780" type="line"/>
      <point x="330" y="873.5" type="line"/>
      <point x="562.5" y="1010" type="line"/>
      <point x="757" y="866.5" type="line"/>
      <point x="609.5" y="779" type="line"/>
    </contour>
  </outline>
</glyph>
<glyph name="Ccaron" format="2">
  <advance width="689"/>
  <unicode hex="010C"/>
  <outline>
    <contour>
      <point x="297.5" y="350" type="curve" smooth="yes"/>
      <point x="281" y="253.5"/>
      <point x="341" y="189"/>
      <point x="437" y="187.5" type="curve" smooth="yes"/>
      <point x="527.5" y="186.5"/>
      <point x="592.5" y="230.5"/>
      <point x="648" y="272" type="curve"/>
      <point x="615" y="47" type="line"/>
      <point x="553.5" y="8.5"/>
      <point x="488.5" y="-20"/>
      <point x="398" y="-20" type="curve" smooth="yes"/>
      <point x="169.5" y="-20"/>
      <point x="28.5" y="137"/>
      <point x="60" y="350" type="curve" smooth="yes"/>
      <point x="93" y="568.5"/>
      <point x="278" y="720.5"/>
      <point x="512" y="720" type="curve" smooth="yes"/>
      <point x="599.5" y="720"/>
      <point x="658.5" y="693"/>
      <point x="714.5" y="652.5" type="curve"/>
      <point x="680.5" y="427" type="line"/>
      <point x="639.5" y="474.5"/>
      <point x="587.5" y="512.5"/>
      <point x="504" y="512.5" type="curve" smooth="yes"/>
      <point x="405" y="512"/>
      <point x="315.5" y="450.5"/>
    </contour>
    <contour>
      <point x="549.5" y="931.5" type="line"/>
      <point x="640.5" y="1010" type="line"/>
      <point x="765.5" y="916.5" type="line"/>
      <point x="533" y="780" type="line"/>
      <point x="338.5" y="923.5" type="line"/>
      <point x="486" y="1011" type="line"/>
    </contour>
  </outline>
</glyph>
<glyph name="Dcroat" format="1">
  <advance width="742"/>
  <unicode hex="0110"/>
  <outline>
    <contour>
      <point x="25" y="290" type="line"/>
      <point x="45.5" y="405" type="line"/>
      <point x="408" y="405" type="line"/>
      <point x="387.5" y="290" type="line"/>
    </contour>
    <contour>
      <point x="159" y="700" type="line"/>
      <point x="384.5" y="700" type="line"/>
      <point x="264.5" y="0" type="line"/>
      <point x="39" y="0" type="line"/>
    </contour>
    <contour>
      <point x="313.5" y="0" type="curve"/>
      <point x="186" y="0" type="line"/>
      <point x="219.5" y="190" type="line"/>
      <point x="324.5" y="190" type="line"/>
      <point x="415.5" y="192"/>
      <point x="502.5" y="230"/>
      <point x="521.5" y="350" type="curve" smooth="yes"/>
      <point x="539" y="466"/>
      <point x="479" y="507"/>
      <point x="390.5" y="509.5" type="curve" smooth="yes"/>
      <point x="273" y="510.5" type="line"/>
      <point x="306.5" y="700" type="line"/>
      <point x="421" y="700" type="line"/>
      <point x="645.5" y="697.5"/>
      <point x="779" y="560.5"/>
      <point x="747.5" y="350" type="curve" smooth="yes"/>
      <point x="715" y="135"/>
      <point x="544.5" y="2.5"/>
    </contour>
  </outline>
</glyph>
<glyph name="dcroat" format="1">
  <advance width="625"/>
  <unicode hex="0111"/>
  <outline>
    <contour>
      <point x="351" y="550" type="line"/>
      <point x="371.5" y="665" type="line"/>
      <point x="753.5" y="665" type="line"/>
      <point x="733" y="550" type="line"/>
    </contour>
    <contour>
      <point x="493" y="780" type="line"/>
      <point x="685.5" y="780" type="line"/>
      <point x="551.5" y="0" type="line"/>
      <point x="359" y="0" type="line"/>
    </contour>
    <contour>
      <point x="39.5" y="230.5" type="curve" smooth="yes"/>
      <point x="57" y="368.5"/>
      <point x="165" y="470"/>
      <point x="283" y="470" type="curve" smooth="yes"/>
      <point x="406.5" y="470"/>
      <point x="462" y="355.5"/>
      <point x="446.5" y="229.5" type="curve" smooth="yes"/>
      <point x="429" y="97.5"/>
      <point x="335.5" y="-9.5"/>
      <point x="213" y="-9.5" type="curve" smooth="yes"/>
      <point x="94.5" y="-9.5"/>
      <point x="23.5" y="97.5"/>
    </contour>
    <contour>
      <point x="241.5" y="229.5" type="curve" smooth="yes"/>
      <point x="235" y="187"/>
      <point x="256" y="142"/>
      <point x="301" y="140.5" type="curve" smooth="yes"/>
      <point x="345" y="139"/>
      <point x="392" y="182"/>
      <point x="400" y="230.5" type="curve" smooth="yes"/>
      <point x="406.5" y="275.5"/>
      <point x="383" y="318"/>
      <point x="340.5" y="319.5" type="curve" smooth="yes"/>
      <point x="294" y="321"/>
      <point x="249.5" y="275.5"/>
    </contour>
  </outline>
</glyph>
<glyph name="ebreve" format="2">
  <advance width="591"/>
  <unicode hex="0115"/>
  <outline>
    <contour>
      <point x="138.5" y="190.5" type="line"/>
      <point x="153" y="283.5" type="line"/>
      <point x="376.191" y="284.5" type="line"/>
      <point x="374.482" y="320.635"/>
      <point x="368.021" y="347.5"/>
      <point x="330.5" y="349.5" type="curve" smooth="yes"/>
      <point x="277.5" y="352.5"/>
      <point x="248.5" y="302.5"/>
      <point x="238" y="249.5" type="curve"/>
      <point x="231.5" y="229.5" type="line"/>
      <point x="223.5" y="167"/>
      <point x="239.5" y="125"/>
      <point x="287" y="121" type="curve" smooth="yes"/>
      <point x="330" y="118.5"/>
      <point x="365.5" y="138.5"/>
      <point x="388" y="164.5" type="curve"/>
      <point x="561.5" y="135" type="line"/>
      <point x="502" y="46.5"/>
      <point x="413.5" y="-10"/>
      <point x="286" y="-10" type="curve" smooth="yes"/>
      <point x="116.5" y="-10"/>
      <point x="19" y="86.5"/>
      <point x="40" y="230" type="curve" smooth="yes"/>
      <point x="42.5" y="247"/>
      <point x="46" y="263"/>
      <point x="51" y="279" type="curve" smooth="yes"/>
      <point x="89" y="396.5"/>
      <point x="195.5" y="470"/>
      <point x="346" y="470" type="curve" smooth="yes"/>
      <point x="507" y="470"/>
      <point x="592" y="382.5"/>
      <point x="573.5" y="239" type="curve" smooth="yes"/>
      <point x="571.5" y="227"/>
      <point x="568.5" y="209"/>
      <point x="565" y="190.5" type="curve"/>
    </contour>
    <contour>
      <point x="222.5" y="681" type="curve"/>
      <point x="334.5" y="681" type="line"/>
      <point x="335.5" y="650"/>
      <point x="350" y="633.5"/>
      <point x="373.5" y="631.5" type="curve" smooth="yes"/>
      <point x="398" y="629.5"/>
      <point x="426" y="650.5"/>
      <point x="434" y="680.5" type="curve"/>
      <point x="551" y="679.5" type="line"/>
      <point x="533.5" y="593"/>
      <point x="468" y="532"/>
      <point x="368" y="531.5" type="curve" smooth="yes"/>
      <point x="268" y="531"/>
      <point x="217" y="593"/>
    </contour>
  </outline>
</glyph>
<glyph name="Edotaccent" format="2">
  <advance width="616"/>
  <unicode hex="0116"/>
  <outline>
    <contour>
      <point x="186" y="0" type="line"/>
      <point x="217" y="175" type="line"/>
      <point x="563" y="175" type="line"/>
      <point x="532" y="0" type="line"/>
    </contour>
    <contour>
      <point x="276" y="525" type="line"/>
      <point x="306.5" y="700" type="line"/>
      <point x="652.5" y="700" type="line"/>
      <point x="622" y="525" type="line"/>
    </contour>
    <contour>
      <point x="233" y="275" type="line"/>
      <point x="263" y="445" type="line"/>
      <point x="589.5" y="445" type="line"/>
      <point x="559.5" y="275" type="line"/>
    </contour>
    <contour>
      <point x="159" y="700" type="line"/>
      <point x="366" y="700" type="line"/>
      <point x="246" y="0" type="line"/>
      <point x="39" y="0" type="line"/>
    </contour>
    <contour>
      <point x="329" y="879.5" type="curve" smooth="yes"/>
      <point x="336.5" y="935.5"/>
      <point x="390.5" y="975.5"/>
      <point x="447.5" y="975.5" type="curve" smooth="yes"/>
      <point x="505" y="975.5"/>
      <point x="548.5" y="933.5"/>
      <point x="541" y="876.5" type="curve" smooth="yes"/>
      <point x="533.5" y="820.5"/>
      <point x="480" y="780.5"/>
      <point x="423" y="780.5" type="curve" smooth="yes"/>
      <point x="365.5" y="780.5"/>
      <point x="321.5" y="822.5"/>
    </contour>
  </outline>
</glyph>
<glyph name="edotaccent" format="2">
  <advance width="591"/>
  <unicode hex="0117"/>
  <outline>
    <contour>
      <point x="138.5" y="190.5" type="line"/>
      <point x="153" y="283.5" type="line"/>
      <point x="376.191" y="284.5" type="line"/>
      <point x="374.482" y="320.635"/>
      <point x="368.021" y="347.5"/>
      <point x="330.5" y="349.5" type="curve" smooth="yes"/>
      <point x="277.5" y="352.5"/>
      <point x="248.5" y="302.5"/>
      <point x="238" y="249.5" type="curve"/>
      <point x="231.5" y="229.5" type="line"/>
      <point x="223.5" y="167"/>
      <point x="239.5" y="125"/>
      <point x="287" y="121" type="curve" smooth="yes"/>
      <point x="330" y="118.5"/>
      <point x="365.5" y="138.5"/>
      <point x="388" y="164.5" type="curve"/>
      <point x="561.5" y="135" type="line"/>
      <point x="502" y="46.5"/>
      <point x="413.5" y="-10"/>
      <point x="286" y="-10" type="curve" smooth="yes"/>
      <point x="116.5" y="-10"/>
      <point x="19" y="86.5"/>
      <point x="40" y="230" type="curve" smooth="yes"/>
      <point x="42.5" y="247"/>
      <point x="46" y="263"/>
      <point x="51" y="279" type="curve" smooth="yes"/>
      <point x="89" y="396.5"/>
      <point x="195.5" y="470"/>
      <point x="346" y="470" type="curve" smooth="yes"/>
      <point x="507" y="470"/>
      <point x="592" y="382.5"/>
      <point x="573.5" y="239" type="curve" smooth="yes"/>
      <point x="571.5" y="227"/>
      <point x="568.5" y="209"/>
      <point x="565" y="190.5" type="curve"/>
    </contour>
    <contour>
      <point x="273" y="630.5" type="curve" smooth="yes"/>
      <point x="280.5" y="686.5"/>
      <point x="334.5" y="726.5"/>
      <point x="391.5" y="726.5" type="curve" smooth="yes"/>
      <point x="449" y="726.5"/>
      <point x="492.5" y="684.5"/>
      <point x="485" y="627.5" type="curve" smooth="yes"/>
      <point x="477.5" y="571.5"/>
      <point x="423.5" y="531.5"/>
      <point x="366.5" y="531.5" type="curve" smooth="yes"/>
      <point x="309" y="531.5"/>
      <point x="265.5" y="573.5"/>
    </contour>
  </outline>
</glyph>
<glyph name="Eogonek" format="2">
  <advance width="616"/>
  <unicode hex="0118"/>
  <outline>
    <contour>
      <point x="186" y="0" type="line"/>
      <point x="217" y="175" type="line"/>
      <point x="563" y="175" type="line"/>
      <point x="532" y="0" type="line"/>
    </contour>
    <contour>
      <point x="276" y="525" type="line"/>
      <point x="306.5" y="700" type="line"/>
      <point x="652.5" y="700" type="line"/>
      <point x="622" y="525" type="line"/>
    </contour>
    <contour>
      <point x="233" y="275" type="line"/>
      <point x="263" y="445" type="line"/>
      <point x="589.5" y="445" type="line"/>
      <point x="559.5" y="275" type="line"/>
    </contour>
    <contour>
      <point x="159" y="700" type="line"/>
      <point x="366" y="700" type="line"/>
      <point x="246" y="0" type="line"/>
      <point x="39" y="0" type="line"/>
    </contour>
    <contour>
      <point x="362" y="-99.5" type="curve"/>
      <point x="382.5" y="-181.5" type="line"/>
      <point x="358.5" y="-202.5"/>
      <point x="326" y="-220.5"/>
      <point x="274.5" y="-220" type="curve" smooth="yes"/>
      <point x="219" y="-219"/>
      <point x="169" y="-183"/>
      <point x="176.5" y="-119" type="curve" smooth="yes"/>
      <point x="186.5" y="-46"/>
      <point x="268.5" y="-8"/>
      <point x="335.5" y="25" type="curve"/>
      <point x="376.5" y="0" type="line"/>
      <point x="334" y="-28.5"/>
      <point x="297" y="-55.5"/>
      <point x="290" y="-90.5" type="curve" smooth="yes"/>
      <point x="288.5" y="-105"/>
      <point x="291.5" y="-118"/>
      <point x="308.5" y="-119.5" type="curve" smooth="yes"/>
      <point x="325" y="-121"/>
      <point x="347.5" y="-109.5"/>
    </contour>
  </outline>
</glyph>
<glyph name="eogonek" format="2">
  <advance width="591"/>
  <unicode hex="0119"/>
  <outline>
    <contour>
      <point x="138.5" y="190.5" type="line"/>
      <point x="153" y="283.5" type="line"/>
      <point x="376.191" y="284.5" type="line"/>
      <point x="374.482" y="320.635"/>
      <point x="368.021" y="347.5"/>
      <point x="330.5" y="349.5" type="curve" smooth="yes"/>
      <point x="277.5" y="352.5"/>
      <point x="248.5" y="302.5"/>
      <point x="238" y="249.5" type="curve"/>
      <point x="231.5" y="229.5" type="line"/>
      <point x="223.5" y="167"/>
      <point x="239.5" y="125"/>
      <point x="287" y="121" type="curve" smooth="yes"/>
      <point x="330" y="118.5"/>
      <point x="365.5" y="138.5"/>
      <point x="388" y="164.5" type="curve"/>
      <point x="561.5" y="135" type="line"/>
      <point x="502" y="46.5"/>
      <point x="413.5" y="-10"/>
      <point x="286" y="-10" type="curve" smooth="yes"/>
      <point x="116.5" y="-10"/>
      <point x="19" y="86.5"/>
      <point x="40" y="230" type="curve" smooth="yes"/>
      <point x="42.5" y="247"/>
      <point x="46" y="263"/>
      <point x="51" y="279" type="curve" smooth="yes"/>
      <point x="89" y="396.5"/>
      <point x="195.5" y="470"/>
      <point x="346" y="470" type="curve" smooth="yes"/>
      <point x="507" y="470"/>
      <point x="592" y="382.5"/>
      <point x="573.5" y="239" type="curve" smooth="yes"/>
      <point x="571.5" y="227"/>
      <point x="568.5" y="209"/>
      <point x="565" y="190.5" type="curve"/>
    </contour>
    <contour>
      <point x="290.5" y="-86.4165" type="curve"/>
      <point x="311" y="-168.417" type="line"/>
      <point x="287.5" y="-189.417"/>
      <point x="254.5" y="-206.917"/>
      <point x="203" y="-206.417" type="curve" smooth="yes"/>
      <point x="147.5" y="-205.417"/>
      <point x="97.5" y="-169.917"/>
      <point x="105" y="-105.916" type="curve" smooth="yes"/>
      <point x="115" y="-32.9165"/>
      <point x="197" y="5.5835"/>
      <point x="264" y="38.5835" type="curve"/>
      <point x="304.5" y="10.5835" type="line"/>
      <point x="261" y="-15.4165"/>
      <point x="225" y="-42.9165"/>
      <point x="218" y="-76.9165" type="curve" smooth="yes"/>
      <point x="216" y="-91.4165"/>
      <point x="220" y="-104.416"/>
      <point x="237" y="-105.916" type="curve" smooth="yes"/>
      <point x="253.5" y="-107.416"/>
      <point x="276" y="-96.4165"/>
    </contour>
  </outline>
</glyph>
<glyph name="Ecaron" format="1">
  <advance width="616"/>
  <unicode hex="011A"/>
  <outline>
    <contour>
      <point x="186" y="0" type="line"/>
      <point x="217" y="175" type="line"/>
      <point x="563" y="175" type="line"/>
      <point x="532" y="0" type="line"/>
    </contour>
    <contour>
      <point x="276" y="525" type="line"/>
      <point x="306.5" y="700" type="line"/>
      <point x="652.5" y="700" type="line"/>
      <point x="622" y="525" type="line"/>
    </contour>
    <contour>
      <point x="233" y="275" type="line"/>
      <point x="263" y="445" type="line"/>
      <point x="589.5" y="445" type="line"/>
      <point x="559.5" y="275" type="line"/>
    </contour>
    <contour>
      <point x="159" y="700" type="line"/>
      <point x="366" y="700" type="line"/>
      <point x="246" y="0" type="line"/>
      <point x="39" y="0" type="line"/>
    </contour>
    <contour>
      <point x="440" y="931.5" type="line"/>
      <point x="531" y="1010" type="line"/>
      <point x="655.5" y="916.5" type="line"/>
      <point x="423.5" y="780" type="line"/>
      <point x="229" y="923.5" type="line"/>
      <point x="376" y="1011" type="line"/>
    </contour>
  </outline>
</glyph>
<glyph name="Gcircumflex" format="1">
  <advance width="813"/>
  <unicode hex="011C"/>
  <outline>
    <contour>
      <point x="428.5" y="240" type="line"/>
      <point x="457" y="400" type="line"/>
      <point x="818" y="399.5" type="line"/>
      <point x="800" y="168.5"/>
      <point x="640.5" y="-29.5"/>
      <point x="391.5" y="-30" type="curve" smooth="yes"/>
      <point x="166.5" y="-30"/>
      <point x="29" y="136.5"/>
      <point x="60" y="350" type="curve" smooth="yes"/>
      <point x="93.5" y="571"/>
      <point x="287.5" y="721"/>
      <point x="516.5" y="720" type="curve" smooth="yes"/>
      <point x="659" y="719.5"/>
      <point x="753" y="645.5"/>
      <point x="815.5" y="542.5" type="curve"/>
      <point x="604" y="452" type="line"/>
      <point x="585" y="497"/>
      <point x="557" y="533.5"/>
      <point x="497" y="534.5" type="curve" smooth="yes"/>
      <point x="394" y="537"/>
      <point x="304.5" y="458.5"/>
      <point x="286" y="350" type="curve" smooth="yes"/>
      <point x="269.5" y="246"/>
      <point x="311.5" y="157"/>
      <point x="420.5" y="155.5" type="curve" smooth="yes"/>
      <point x="497.312" y="154.5"/>
      <point x="547.725" y="191.619"/>
      <point x="584.822" y="241" type="curve"/>
    </contour>
    <contour>
      <point x="550.5" y="858.5" type="line"/>
      <point x="460" y="780" type="line"/>
      <point x="335" y="873.5" type="line"/>
      <point x="567.5" y="1010" type="line"/>
      <point x="761.5" y="866.5" type="line"/>
      <point x="614.5" y="779" type="line"/>
    </contour>
  </outline>
</glyph>
<glyph name="gbreve" format="2">
  <advance width="616"/>
  <unicode hex="011F"/>
  <outline>
    <contour>
      <point x="3" y="-34.5" type="curve"/>
      <point x="183.5" y="-35.5" type="line"/>
      <point x="189.5" y="-78.5"/>
      <point x="207" y="-94"/>
      <point x="247.5" y="-94.5" type="curve" smooth="yes"/>
      <point x="308.5" y="-95.5"/>
      <point x="349" y="-48.5"/>
      <point x="360" y="10.5" type="curve"/>
      <point x="438" y="460" type="line"/>
      <point x="621" y="460" type="line"/>
      <point x="544.5" y="9.5" type="line" smooth="yes"/>
      <point x="518" y="-159"/>
      <point x="402.5" y="-244"/>
      <point x="244" y="-244.5" type="curve" smooth="yes"/>
      <point x="77.5" y="-245"/>
      <point x="7.5" y="-166"/>
    </contour>
    <contour>
      <point x="41.5" y="240.5" type="curve" smooth="yes"/>
      <point x="59" y="378.5"/>
      <point x="166" y="470"/>
      <point x="283" y="470" type="curve" smooth="yes"/>
      <point x="405.5" y="470"/>
      <point x="464.5" y="366.5"/>
      <point x="448.5" y="239.5" type="curve" smooth="yes"/>
      <point x="431.5" y="108"/>
      <point x="338" y="10"/>
      <point x="216.5" y="10" type="curve" smooth="yes"/>
      <point x="99.5" y="10"/>
      <point x="25.5" y="107"/>
    </contour>
    <contour>
      <point x="243" y="239" type="curve" smooth="yes"/>
      <point x="236.5" y="195"/>
      <point x="261" y="162.5"/>
      <point x="304.5" y="160.5" type="curve" smooth="yes"/>
      <point x="347" y="158.5"/>
      <point x="395" y="193"/>
      <point x="402" y="241" type="curve" smooth="yes"/>
      <point x="408.5" y="287.5"/>
      <point x="381.5" y="317.5"/>
      <point x="340.5" y="319.5" type="curve" smooth="yes"/>
      <point x="295.5" y="321.5"/>
      <point x="250" y="284.5"/>
    </contour>
    <contour>
      <point x="266.5" y="681" type="curve"/>
      <point x="378" y="681" type="line"/>
      <point x="379" y="650"/>
      <point x="394" y="633.5"/>
      <point x="417.5" y="631.5" type="curve" smooth="yes"/>
      <point x="442" y="629.5"/>
      <point x="469.5" y="650.5"/>
      <point x="477.5" y="680.5" type="curve"/>
      <point x="594.5" y="679.5" type="line"/>
      <point x="577" y="593"/>
      <point x="511.5" y="532"/>
      <point x="411.5" y="531.5" type="curve" smooth="yes"/>
      <point x="311.5" y="531"/>
      <point x="261" y="593"/>
    </contour>
  </outline>
</glyph>
<glyph name="Gdotaccent" format="2">
  <advance width="813"/>
  <unicode hex="0120"/>
  <outline>
    <contour>
      <point x="428.5" y="240" type="line"/>
      <point x="457" y="400" type="line"/>
      <point x="818" y="399.5" type="line"/>
      <point x="800" y="168.5"/>
      <point x="640.5" y="-29.5"/>
      <point x="391.5" y="-30" type="curve" smooth="yes"/>
      <point x="166.5" y="-30"/>
      <point x="29" y="136.5"/>
      <point x="60" y="350" type="curve" smooth="yes"/>
      <point x="93.5" y="571"/>
      <point x="287.5" y="721"/>
      <point x="516.5" y="720" type="curve" smooth="yes"/>
      <point x="659" y="719.5"/>
      <point x="753" y="645.5"/>
      <point x="815.5" y="542.5" type="curve"/>
      <point x="604" y="452" type="line"/>
      <point x="585" y="497"/>
      <point x="557" y="533.5"/>
      <point x="497" y="534.5" type="curve" smooth="yes"/>
      <point x="394" y="537"/>
      <point x="304.5" y="458.5"/>
      <point x="286" y="350" type="curve" smooth="yes"/>
      <point x="269.5" y="246"/>
      <point x="311.5" y="157"/>
      <point x="420.5" y="155.5" type="curve" smooth="yes"/>
      <point x="497.312" y="154.5"/>
      <point x="547.725" y="191.619"/>
      <point x="584.822" y="241" type="curve"/>
    </contour>
    <contour>
      <point x="444" y="879.5" type="curve" smooth="yes"/>
      <point x="451.5" y="935.5"/>
      <point x="505" y="975.5"/>
      <point x="562" y="975.5" type="curve" smooth="yes"/>
      <point x="619.5" y="975.5"/>
      <point x="663" y="933.5"/>
      <point x="655.5" y="876.5" type="curve" smooth="yes"/>
      <point x="648" y="820.5"/>
      <point x="594.5" y="780.5"/>
      <point x="537.5" y="780.5" type="curve" smooth="yes"/>
      <point x="480" y="780.5"/>
      <point x="436.5" y="822.5"/>
    </contour>
  </outline>
</glyph>
<glyph name="uni0122" format="1">
  <advance width="813"/>
  <unicode hex="0122"/>
  <outline>
    <contour>
      <point x="428.5" y="240" type="line"/>
      <point x="457" y="400" type="line"/>
      <point x="818" y="399.5" type="line"/>
      <point x="800" y="168.5"/>
      <point x="640.5" y="-29.5"/>
      <point x="391.5" y="-30" type="curve" smooth="yes"/>
      <point x="166.5" y="-30"/>
      <point x="29" y="136.5"/>
      <point x="60" y="350" type="curve" smooth="yes"/>
      <point x="93.5" y="571"/>
      <point x="287.5" y="721"/>
      <point x="516.5" y="720" type="curve" smooth="yes"/>
      <point x="659" y="719.5"/>
      <point x="753" y="645.5"/>
      <point x="815.5" y="542.5" type="curve"/>
      <point x="604" y="452" type="line"/>
      <point x="585" y="497"/>
      <point x="557" y="533.5"/>
      <point x="497" y="534.5" type="curve" smooth="yes"/>
      <point x="394" y="537"/>
      <point x="304.5" y="458.5"/>
      <point x="286" y="350" type="curve" smooth="yes"/>
      <point x="269.5" y="246"/>
      <point x="311.5" y="157"/>
      <point x="420.5" y="155.5" type="curve" smooth="yes"/>
      <point x="497.312" y="154.5"/>
      <point x="547.725" y="191.619"/>
      <point x="584.822" y="241" type="curve"/>
    </contour>
    <contour>
      <point x="271.25" y="-91" type="line"/>
      <point x="461.25" y="-126" type="line"/>
      <point x="288.25" y="-373" type="line"/>
      <point x="141.75" y="-347" type="line"/>
    </contour>
  </outline>
</glyph>
<glyph name="Hcircumflex" format="1">
  <advance width="805"/>
  <unicode hex="0124"/>
  <outline>
    <contour>
      <point x="129.5" y="265" type="line"/>
      <point x="163.5" y="460" type="line"/>
      <point x="710.5" y="460" type="line"/>
      <point x="676.5" y="265" type="line"/>
    </contour>
    <contour>
      <point x="615" y="700" type="line"/>
      <point x="832" y="700" type="line"/>
      <point x="712" y="0" type="line"/>
      <point x="495" y="0" type="line"/>
    </contour>
    <contour>
      <point x="159" y="700" type="line"/>
      <point x="376" y="700" type="line"/>
      <point x="255.5" y="0" type="line"/>
      <point x="39" y="0" type="line"/>
    </contour>
    <contour>
      <point x="526.5" y="858.5" type="line"/>
      <point x="435.5" y="780" type="line"/>
      <point x="310.5" y="873.5" type="line"/>
      <point x="543" y="1010" type="line"/>
      <point x="737.5" y="866.5" type="line"/>
      <point x="590.5" y="779" type="line"/>
    </contour>
  </outline>
</glyph>
<glyph name="hbar" format="2">
  <advance width="577"/>
  <unicode hex="0127"/>
  <outline>
    <contour>
      <point x="271.92" y="779.886" type="line"/>
      <point x="138.143" y="0" type="line"/>
      <point x="-56.7615" y="0" type="line"/>
      <point x="77.0159" y="779.9" type="line"/>
    </contour>
    <contour>
      <point x="285.859" y="280.24" type="line"/>
      <point x="288.905" y="310.754"/>
      <point x="291.386" y="340.945"/>
      <point x="256.07" y="344.772" type="curve" smooth="yes"/>
      <point x="220.938" y="349.178"/>
      <point x="194.888" y="315.244"/>
      <point x="187.08" y="280.749" type="curve"/>
      <point x="157.44" y="281.257" type="line"/>
      <point x="173.98" y="384.934"/>
      <point x="227.08" y="479.484"/>
      <point x="347.059" y="480.883" type="curve" smooth="yes"/>
      <point x="464.155" y="482.213"/>
      <point x="493.674" y="410.907"/>
      <point x="480.931" y="309.866" type="curve"/>
      <point x="429.309" y="0" type="line"/>
      <point x="234.208" y="0" type="line"/>
    </contour>
    <contour>
      <point x="-1.59845" y="580.154" type="line"/>
      <point x="27.4728" y="744.858" type="line"/>
      <point x="366.248" y="744.846" type="line"/>
      <point x="337.177" y="580.142" type="line"/>
    </contour>
  </outline>
</glyph>
<glyph name="Itilde" format="2">
  <advance width="354"/>
  <unicode hex="0128"/>
  <outline>
    <contour>
      <point x="159" y="700" type="line"/>
      <point x="380.5" y="700" type="line"/>
      <point x="260.5" y="0" type="line"/>
      <point x="39" y="0" type="line"/>
    </contour>
    <contour>
      <point x="88" y="865" type="line"/>
      <point x="109.5" y="914"/>
      <point x="155.5" y="966"/>
      <point x="225" y="964.5" type="curve" smooth="yes"/>
      <point x="281.5" y="963.5"/>
      <point x="303.5" y="909.5"/>
      <point x="355.5" y="911" type="curve" smooth="yes"/>
      <point x="387.5" y="912"/>
      <point x="413.5" y="939"/>
      <point x="436" y="966" type="curve"/>
      <point x="509.5" y="871" type="line"/>
      <point x="481.5" y="831"/>
      <point x="417" y="778"/>
      <point x="350.5" y="780.5" type="curve" smooth="yes"/>
      <point x="300.5" y="782.5"/>
      <point x="264" y="840"/>
      <point x="215" y="836" type="curve" smooth="yes"/>
      <point x="182.5" y="833.5"/>
      <point x="168" y="804"/>
      <point x="159.5" y="786" type="curve"/>
    </contour>
  </outline>
</glyph>
<glyph name="imacron" format="2">
  <advance width="277"/>
  <unicode hex="012B"/>
  <outline>
    <contour>
      <point x="97.5" y="460" type="line"/>
      <point x="282.5" y="460" type="line"/>
      <point x="203.5" y="0" type="line"/>
      <point x="18.5" y="0" type="line"/>
    </contour>
    <contour>
      <point x="13" y="531" type="line"/>
      <point x="42" y="696" type="line"/>
      <point x="419" y="696" type="line"/>
      <point x="390" y="531" type="line"/>
    </contour>
  </outline>
</glyph>
<glyph name="Ibreve" format="1">
  <advance width="354"/>
  <unicode hex="012C"/>
  <outline>
    <contour>
      <point x="159" y="700" type="line"/>
      <point x="380.5" y="700" type="line"/>
      <point x="260.5" y="0" type="line"/>
      <point x="39" y="0" type="line"/>
    </contour>
    <contour>
      <point x="143" y="930" type="curve"/>
      <point x="254.5" y="930" type="line"/>
      <point x="255.5" y="899"/>
      <point x="270.5" y="882.5"/>
      <point x="294" y="880.5" type="curve" smooth="yes"/>
      <point x="318.5" y="878.5"/>
      <point x="346.5" y="899.5"/>
      <point x="354.5" y="929.5" type="curve"/>
      <point x="471" y="928.5" type="line"/>
      <point x="453.5" y="842"/>
      <point x="388" y="781"/>
      <point x="288" y="780.5" type="curve" smooth="yes"/>
      <point x="188" y="780"/>
      <point x="137.5" y="842"/>
    </contour>
  </outline>
</glyph>
<glyph name="Idotaccent" format="2">
  <advance width="354"/>
  <unicode hex="0130"/>
  <outline>
    <contour>
      <point x="159" y="700" type="line"/>
      <point x="380.5" y="700" type="line"/>
      <point x="260.5" y="0" type="line"/>
      <point x="39" y="0" type="line"/>
    </contour>
    <contour>
      <point x="193.5" y="879.5" type="curve" smooth="yes"/>
      <point x="201" y="935.5"/>
      <point x="255" y="975.5"/>
      <point x="312" y="975.5" type="curve" smooth="yes"/>
      <point x="369.5" y="975.5"/>
      <point x="413" y="933.5"/>
      <point x="405.5" y="876.5" type="curve" smooth="yes"/>
      <point x="398" y="820.5"/>
      <point x="344" y="780.5"/>
      <point x="287" y="780.5" type="curve" smooth="yes"/>
      <point x="229.5" y="780.5"/>
      <point x="186" y="822.5"/>
    </contour>
  </outline>
</glyph>
<glyph name="dotlessi" format="2">
  <advance width="277"/>
  <unicode hex="0131"/>
  <outline>
    <contour>
      <point x="97.5" y="460" type="line"/>
      <point x="282.5" y="460" type="line"/>
      <point x="203.5" y="0" type="line"/>
      <point x="18.5" y="0" type="line"/>
    </contour>
  </outline>
</glyph>
<glyph name="IJ" format="2">
  <advance width="684"/>
  <unicode hex="0132"/>
  <outline>
    <contour>
      <point x="198.5" y="-39.5" type="line"/>
      <point x="220" y="-54"/>
      <point x="247" y="-71"/>
      <point x="272.5" y="-70.5" type="curve" smooth="yes"/>
      <point x="308.5" y="-70"/>
      <point x="341.5" y="-40"/>
      <point x="349.5" y="5.5" type="curve"/>
      <point x="469.5" y="700" type="line"/>
      <point x="710.5" y="700" type="line"/>
      <point x="583" y="-50.5" type="line" smooth="yes"/>
      <point x="558" y="-193"/>
      <point x="424" y="-250"/>
      <point x="282.5" y="-250" type="curve" smooth="yes"/>
      <point x="197.5" y="-250"/>
      <point x="120.5" y="-222"/>
      <point x="60" y="-188" type="curve"/>
    </contour>
    <contour>
      <point x="159" y="700" type="line"/>
      <point x="380.5" y="700" type="line"/>
      <point x="260.5" y="0" type="line"/>
      <point x="39" y="0" type="line"/>
    </contour>
  </outline>
</glyph>
<glyph name="Jcircumflex" format="2">
  <advance width="373"/>
  <unicode hex="0134"/>
  <outline>
    <contour>
      <point x="-112" y="-39.5" type="line"/>
      <point x="-90.5" y="-54"/>
      <point x="-63.5" y="-71"/>
      <point x="-38" y="-70.5" type="curve" smooth="yes"/>
      <point x="-2" y="-70"/>
      <point x="31" y="-40"/>
      <point x="39" y="5.5" type="curve"/>
      <point x="159" y="700" type="line"/>
      <point x="400" y="700" type="line"/>
      <point x="272.5" y="-50.5" type="line" smooth="yes"/>
      <point x="247.5" y="-193"/>
      <point x="113.5" y="-250"/>
      <point x="-28" y="-250" type="curve" smooth="yes"/>
      <point x="-113" y="-250"/>
      <point x="-190" y="-222"/>
      <point x="-250.5" y="-188" type="curve"/>
    </contour>
    <contour>
      <point x="310" y="858.5" type="line"/>
      <point x="219.5" y="780" type="line"/>
      <point x="94.5" y="873.5" type="line"/>
      <point x="326.5" y="1010" type="line"/>
      <point x="521" y="866.5" type="line"/>
      <point x="374" y="779" type="line"/>
    </contour>
  </outline>
</glyph>
<glyph name="jcircumflex" format="2">
  <advance width="276"/>
  <unicode hex="0135"/>
  <outline>
    <contour>
      <point x="-83" y="-55.5" type="line"/>
      <point x="-72.5" y="-68.5"/>
      <point x="-61.5" y="-80"/>
      <point x="-44" y="-80.5" type="curve" smooth="yes"/>
      <point x="-14" y="-81"/>
      <point x="8.5" y="-54.5"/>
      <point x="14.5" y="-24.5" type="curve"/>
      <point x="98.5" y="460" type="line"/>
      <point x="281.5" y="460" type="line"/>
      <point x="190" y="-80.5" type="line" smooth="yes"/>
      <point x="171" y="-180.5"/>
      <point x="94" y="-250"/>
      <point x="-28" y="-249.5" type="curve" smooth="yes"/>
      <point x="-97" y="-249.5"/>
      <point x="-139" y="-219.5"/>
      <point x="-171.5" y="-191.5" type="curve"/>
    </contour>
    <contour>
      <point x="219" y="609.5" type="line"/>
      <point x="128.5" y="531" type="line"/>
      <point x="3.5" y="624.5" type="line"/>
      <point x="235.5" y="761" type="line"/>
      <point x="430" y="617.5" type="line"/>
      <point x="283" y="530" type="line"/>
    </contour>
  </outline>
</glyph>
<glyph name="uni0136" format="2">
  <advance width="757"/>
  <unicode hex="0136"/>
  <outline>
    <contour>
      <point x="159" y="700" type="line"/>
      <point x="385.5" y="700" type="line"/>
      <point x="265.5" y="0" type="line"/>
      <point x="39" y="0" type="line"/>
    </contour>
    <contour>
      <point x="587.5" y="699.5" type="line"/>
      <point x="846" y="699.5" type="line"/>
      <point x="519" y="367.5" type="line"/>
      <point x="733.5" y="0" type="line"/>
      <point x="480" y="0" type="line"/>
      <point x="265.5" y="370" type="line"/>
    </contour>
    <contour>
      <point x="283.5" y="-61" type="line"/>
      <point x="474.5" y="-96" type="line"/>
      <point x="300.5" y="-343" type="line"/>
      <point x="154" y="-317" type="line"/>
    </contour>
  </outline>
</glyph>
<glyph name="kgreenlandic" format="2">
  <advance width="640"/>
  <unicode hex="0138"/>
  <outline>
    <contour>
      <point x="98.5" y="460" type="line"/>
      <point x="281.5" y="460" type="line"/>
      <point x="202.5" y="0" type="line"/>
      <point x="19.5" y="0" type="line"/>
    </contour>
    <contour>
      <point x="435.5" y="459.5" type="line"/>
      <point x="668.5" y="459.5" type="line"/>
      <point x="440" y="266" type="line"/>
      <point x="601" y="0" type="line"/>
      <point x="388" y="0" type="line"/>
      <point x="219" y="275" type="line"/>
    </contour>
  </outline>
</glyph>
<glyph name="Lacute" format="1">
  <advance width="558"/>
  <unicode hex="0139"/>
  <outline>
    <contour>
      <point x="159" y="700" type="line"/>
      <point x="376" y="700" type="line"/>
      <point x="287.5" y="185" type="line"/>
      <point x="564.5" y="185" type="line"/>
      <point x="532" y="0" type="line"/>
      <point x="39" y="0" type="line"/>
    </contour>
    <contour>
      <point x="620.75" y="926.5" type="line"/>
      <point x="424.25" y="780.5" type="line"/>
      <point x="319.25" y="833.5" type="line"/>
      <point x="488.75" y="989" type="line"/>
    </contour>
  </outline>
</glyph>
<glyph name="lacute" format="2">
  <advance width="286"/>
  <unicode hex="013A"/>
  <outline>
    <contour>
      <point x="153" y="780" type="line"/>
      <point x="346" y="780" type="line"/>
      <point x="212" y="0" type="line"/>
      <point x="19.5" y="0" type="line"/>
    </contour>
    <contour>
      <point x="461.5" y="986.5" type="line"/>
      <point x="265" y="840.5" type="line"/>
      <point x="160" y="893.5" type="line"/>
      <point x="329.5" y="1049" type="line"/>
    </contour>
  </outline>
</glyph>
<glyph name="uni013C" format="1">
  <advance width="286"/>
  <unicode hex="013C"/>
  <outline>
    <contour>
      <point x="153" y="780" type="line"/>
      <point x="346" y="780" type="line"/>
      <point x="212" y="0" type="line"/>
      <point x="19.5" y="0" type="line"/>
    </contour>
    <contour>
      <point x="50.5" y="-61" type="line"/>
      <point x="240.5" y="-96" type="line"/>
      <point x="67.5" y="-343" type="line"/>
      <point x="-79" y="-317" type="line"/>
    </contour>
  </outline>
</glyph>
<glyph name="Ldot" format="2">
  <advance width="558"/>
  <unicode hex="013F"/>
  <outline>
    <contour>
      <point x="159" y="700" type="line"/>
      <point x="376" y="700" type="line"/>
      <point x="287.5" y="185" type="line"/>
      <point x="564.5" y="185" type="line"/>
      <point x="532" y="0" type="line"/>
      <point x="39" y="0" type="line"/>
    </contour>
    <contour>
      <point x="400.25" y="441" type="curve" smooth="yes"/>
      <point x="408.75" y="502.5"/>
      <point x="464.75" y="554.5"/>
      <point x="531.25" y="554.5" type="curve" smooth="yes"/>
      <point x="598.25" y="554.5"/>
      <point x="640.75" y="500"/>
      <point x="632.25" y="439" type="curve" smooth="yes"/>
      <point x="623.75" y="377.5"/>
      <point x="567.75" y="325.5"/>
      <point x="501.25" y="325.5" type="curve" smooth="yes"/>
      <point x="434.25" y="325.5"/>
      <point x="391.75" y="380"/>
    </contour>
  </outline>
</glyph>
<glyph name="lslash" format="2">
  <advance width="286"/>
  <unicode hex="0142"/>
  <outline>
    <contour>
      <point x="12" y="290" type="line"/>
      <point x="-25" y="379.5" type="line"/>
      <point x="386" y="636.5" type="line"/>
      <point x="422.5" y="548.5" type="line"/>
    </contour>
    <contour>
      <point x="153" y="780" type="line"/>
      <point x="346" y="780" type="line"/>
      <point x="212" y="0" type="line"/>
      <point x="19.5" y="0" type="line"/>
    </contour>
  </outline>
</glyph>
<glyph name="uni0146" format="2">
  <advance width="587"/>
  <unicode hex="0146"/>
  <outline>
    <contour>
      <point x="291" y="460" type="line"/>
      <point x="212" y="0" type="line"/>
      <point x="19.5" y="0" type="line"/>
      <point x="98.5" y="460" type="line"/>
    </contour>
    <contour>
      <point x="361" y="280" type="line"/>
      <point x="364" y="311.5"/>
      <point x="365" y="341"/>
      <point x="329" y="345" type="curve" smooth="yes"/>
      <point x="293.5" y="349"/>
      <point x="268" y="315"/>
      <point x="260" y="280.5" type="curve"/>
      <point x="231.5" y="271" type="line"/>
      <point x="249" y="374.5"/>
      <point x="302.5" y="470"/>
      <point x="423" y="471" type="curve" smooth="yes"/>
      <point x="539.5" y="472"/>
      <point x="576.5" y="401.5"/>
      <point x="563.5" y="300" type="curve"/>
      <point x="513" y="0" type="line"/>
      <point x="310.5" y="0" type="line"/>
    </contour>
    <contour>
      <point x="201" y="-61" type="line"/>
      <point x="391" y="-96" type="line"/>
      <point x="218" y="-343" type="line"/>
      <point x="71.5" y="-317" type="line"/>
    </contour>
  </outline>
</glyph>
<glyph name="Ncaron" format="2">
  <advance width="781"/>
  <unicode hex="0147"/>
  <outline>
    <contour>
      <point x="474.5" y="916.5" type="line"/>
      <point x="565" y="995" type="line"/>
      <point x="690" y="901.5" type="line"/>
      <point x="458" y="765" type="line"/>
      <point x="263.5" y="908.5" type="line"/>
      <point x="410.5" y="996" type="line"/>
    </contour>
    <contour>
      <point x="600.5" y="700" type="line"/>
      <point x="807.5" y="700" type="line"/>
      <point x="682.5" y="-33" type="line"/>
      <point x="301" y="318.296" type="line"/>
      <point x="246" y="0" type="line"/>
      <point x="39" y="0" type="line"/>
      <point x="164" y="733" type="line"/>
      <point x="545" y="381.704" type="line"/>
    </contour>
  </outline>
</glyph>
<glyph name="ncaron" format="2">
  <advance width="587"/>
  <unicode hex="0148"/>
  <outline>
    <contour>
      <point x="291" y="460" type="line"/>
      <point x="212" y="0" type="line"/>
      <point x="19.5" y="0" type="line"/>
      <point x="98.5" y="460" type="line"/>
    </contour>
    <contour>
      <point x="361" y="280" type="line"/>
      <point x="364" y="311.5"/>
      <point x="365" y="341"/>
      <point x="329" y="345" type="curve" smooth="yes"/>
      <point x="293.5" y="349"/>
      <point x="268" y="315"/>
      <point x="260" y="280.5" type="curve"/>
      <point x="231.5" y="271" type="line"/>
      <point x="249" y="374.5"/>
      <point x="302.5" y="470"/>
      <point x="423" y="471" type="curve" smooth="yes"/>
      <point x="539.5" y="472"/>
      <point x="576.5" y="401.5"/>
      <point x="563.5" y="300" type="curve"/>
      <point x="513" y="0" type="line"/>
      <point x="310.5" y="0" type="line"/>
    </contour>
    <contour>
      <point x="378" y="682.5" type="line"/>
      <point x="469" y="761" type="line"/>
      <point x="594" y="667.5" type="line"/>
      <point x="361.5" y="531" type="line"/>
      <point x="167" y="674.5" type="line"/>
      <point x="314" y="762" type="line"/>
    </contour>
  </outline>
</glyph>
<glyph name="Omacron" format="2">
  <advance width="815"/>
  <unicode hex="014C"/>
  <outline>
    <contour>
      <point x="289" y="350" type="curve" smooth="yes"/>
      <point x="275" y="262"/>
      <point x="307.5" y="180"/>
      <point x="405" y="178.5" type="curve" smooth="yes"/>
      <point x="503.5" y="177"/>
      <point x="574.5" y="255.5"/>
      <point x="591.5" y="350" type="curve" smooth="yes"/>
      <point x="606" y="438.5"/>
      <point x="576" y="520.5"/>
      <point x="475.5" y="521.5" type="curve" smooth="yes"/>
      <point x="377" y="522.5"/>
      <point x="305.5" y="444.5"/>
    </contour>
    <contour>
      <point x="60" y="350" type="curve" smooth="yes"/>
      <point x="92" y="564.5"/>
      <point x="278.5" y="720"/>
      <point x="497" y="720" type="curve" smooth="yes"/>
      <point x="714" y="720"/>
      <point x="850.5" y="558.5"/>
      <point x="820.5" y="350" type="curve" smooth="yes"/>
      <point x="788.5" y="134.5"/>
      <point x="607" y="-30.5"/>
      <point x="381.5" y="-30" type="curve" smooth="yes"/>
      <point x="160" y="-29.5"/>
      <point x="30" y="141.5"/>
    </contour>
    <contour>
      <point x="325" y="780" type="line"/>
      <point x="354" y="945" type="line"/>
      <point x="730" y="945" type="line"/>
      <point x="701" y="780" type="line"/>
    </contour>
  </outline>
</glyph>
<glyph name="omacron" format="2">
  <advance width="597"/>
  <unicode hex="014D"/>
  <outline>
    <contour>
      <point x="39.5" y="230.5" type="curve" smooth="yes"/>
      <point x="60.5" y="376.5"/>
      <point x="192.5" y="471"/>
      <point x="346" y="471" type="curve" smooth="yes"/>
      <point x="495" y="471"/>
      <point x="603" y="373.5"/>
      <point x="582.5" y="229.5" type="curve" smooth="yes"/>
      <point x="561.5" y="83.5"/>
      <point x="429" y="-10"/>
      <point x="276" y="-10" type="curve" smooth="yes"/>
      <point x="127" y="-10"/>
      <point x="19" y="86.5"/>
    </contour>
    <contour>
      <point x="236.5" y="229.5" type="curve" smooth="yes"/>
      <point x="230" y="185"/>
      <point x="250" y="147"/>
      <point x="292" y="145.5" type="curve" smooth="yes"/>
      <point x="335.5" y="144"/>
      <point x="377.5" y="182.5"/>
      <point x="385.5" y="230.5" type="curve" smooth="yes"/>
      <point x="392" y="275"/>
      <point x="372" y="314"/>
      <point x="330" y="315.5" type="curve" smooth="yes"/>
      <point x="286.5" y="317"/>
      <point x="244.5" y="277.5"/>
    </contour>
    <contour>
      <point x="174" y="531" type="line"/>
      <point x="203" y="696" type="line"/>
      <point x="579" y="696" type="line"/>
      <point x="550" y="531" type="line"/>
    </contour>
  </outline>
</glyph>
<glyph name="obreve" format="2">
  <advance width="597"/>
  <unicode hex="014F"/>
  <outline>
    <contour>
      <point x="39.5" y="230.5" type="curve" smooth="yes"/>
      <point x="60.5" y="376.5"/>
      <point x="192.5" y="471"/>
      <point x="346" y="471" type="curve" smooth="yes"/>
      <point x="495" y="471"/>
      <point x="603" y="373.5"/>
      <point x="582.5" y="229.5" type="curve" smooth="yes"/>
      <point x="561.5" y="83.5"/>
      <point x="429" y="-10"/>
      <point x="276" y="-10" type="curve" smooth="yes"/>
      <point x="127" y="-10"/>
      <point x="19" y="86.5"/>
    </contour>
    <contour>
      <point x="236.5" y="229.5" type="curve" smooth="yes"/>
      <point x="230" y="185"/>
      <point x="250" y="147"/>
      <point x="292" y="145.5" type="curve" smooth="yes"/>
      <point x="335.5" y="144"/>
      <point x="377.5" y="182.5"/>
      <point x="385.5" y="230.5" type="curve" smooth="yes"/>
      <point x="392" y="275"/>
      <point x="372" y="314"/>
      <point x="330" y="315.5" type="curve" smooth="yes"/>
      <point x="286.5" y="317"/>
      <point x="244.5" y="277.5"/>
    </contour>
    <contour>
      <point x="222.5" y="681" type="curve"/>
      <point x="334.5" y="681" type="line"/>
      <point x="335.5" y="650"/>
      <point x="350" y="633.5"/>
      <point x="373.5" y="631.5" type="curve" smooth="yes"/>
      <point x="398" y="629.5"/>
      <point x="426" y="650.5"/>
      <point x="434" y="680.5" type="curve"/>
      <point x="551" y="679.5" type="line"/>
      <point x="533.5" y="593"/>
      <point x="468" y="532"/>
      <point x="368" y="531.5" type="curve" smooth="yes"/>
      <point x="268" y="531"/>
      <point x="217" y="593"/>
    </contour>
  </outline>
</glyph>
<glyph name="OE" format="2">
  <advance width="955"/>
  <unicode hex="0152"/>
  <outline>
    <contour>
      <point x="563" y="275" type="line"/>
      <point x="593" y="445" type="line"/>
      <point x="973" y="445" type="line"/>
      <point x="943" y="275" type="line"/>
    </contour>
    <contour>
      <point x="537" y="670" type="line"/>
      <point x="744.5" y="670" type="line"/>
      <point x="634.5" y="30" type="line"/>
      <point x="427" y="30" type="line"/>
    </contour>
    <contour>
      <point x="944" y="174.5" type="line"/>
      <point x="916.5" y="0" type="line"/>
      <point x="357.5" y="0" type="line"/>
      <point x="159" y="3.5"/>
      <point x="32.5" y="155.5"/>
      <point x="60" y="350" type="curve" smooth="yes"/>
      <point x="90" y="551.5"/>
      <point x="260.5" y="697"/>
      <point x="464.5" y="700" type="curve"/>
      <point x="1036" y="700" type="line"/>
      <point x="1005" y="525" type="line"/>
      <point x="620" y="525" type="line"/>
      <point x="600.5" y="510" type="line"/>
      <point x="493" y="510" type="line"/>
      <point x="375.5" y="508"/>
      <point x="306" y="457.5"/>
      <point x="286" y="350" type="curve" smooth="yes"/>
      <point x="267.5" y="246"/>
      <point x="312.5" y="193"/>
      <point x="426.5" y="190.5" type="curve"/>
      <point x="531.5" y="190" type="line"/>
      <point x="552.5" y="175" type="line"/>
    </contour>
  </outline>
</glyph>
<glyph name="oe" format="2">
  <advance width="873"/>
  <unicode hex="0153"/>
  <outline>
    <contour>
      <point x="657.5" y="250" type="line" smooth="yes"/>
      <point x="662" y="297.5"/>
      <point x="661.5" y="345.5"/>
      <point x="618" y="349" type="curve" smooth="yes"/>
      <point x="573" y="353"/>
      <point x="536" y="311"/>
      <point x="526.5" y="259.5" type="curve"/>
      <point x="518.5" y="230" type="line"/>
      <point x="511" y="174"/>
      <point x="517.5" y="118.5"/>
      <point x="571.5" y="116" type="curve" smooth="yes"/>
      <point x="615" y="114"/>
      <point x="645" y="139.5"/>
      <point x="671.5" y="165.5" type="curve"/>
      <point x="843" y="135" type="line"/>
      <point x="794" y="57"/>
      <point x="697.5" y="-10.5"/>
      <point x="596.5" y="-10" type="curve" smooth="yes"/>
      <point x="467.5" y="-9.5"/>
      <point x="412.5" y="107.5"/>
      <point x="428" y="230" type="curve" smooth="yes"/>
      <point x="430.5" y="247"/>
      <point x="434" y="263"/>
      <point x="439" y="279" type="curve" smooth="yes"/>
      <point x="472.5" y="386"/>
      <point x="567.5" y="470.5"/>
      <point x="685.5" y="470" type="curve" smooth="yes"/>
      <point x="805" y="469.5"/>
      <point x="869" y="358.5"/>
      <point x="854.5" y="234" type="curve" smooth="yes"/>
      <point x="852.5" y="223"/>
      <point x="848.5" y="201.5"/>
      <point x="845.5" y="190.5" type="curve"/>
      <point x="654.5" y="231" type="line"/>
    </contour>
    <contour>
      <point x="473" y="190.5" type="line"/>
      <point x="487.5" y="283" type="line"/>
      <point x="842" y="283" type="line"/>
      <point x="845" y="190" type="line"/>
    </contour>
    <contour>
      <point x="44.5" y="230.5" type="curve" smooth="yes"/>
      <point x="63" y="366.5"/>
      <point x="172.5" y="470.5"/>
      <point x="302.5" y="470" type="curve" smooth="yes"/>
      <point x="432.5" y="469.5"/>
      <point x="482" y="358"/>
      <point x="466" y="230" type="curve" smooth="yes"/>
      <point x="448" y="97"/>
      <point x="361.5" y="-9"/>
      <point x="232.5" y="-9.5" type="curve" smooth="yes"/>
      <point x="103" y="-10"/>
      <point x="27.5" y="99"/>
    </contour>
    <contour>
      <point x="232" y="229.5" type="curve" smooth="yes"/>
      <point x="225.5" y="184.5"/>
      <point x="242.5" y="147"/>
      <point x="287.5" y="145.5" type="curve" smooth="yes"/>
      <point x="337" y="144"/>
      <point x="372.5" y="181.5"/>
      <point x="380.5" y="230.5" type="curve" smooth="yes"/>
      <point x="387.5" y="276"/>
      <point x="373.5" y="313.5"/>
      <point x="325" y="314.5" type="curve" smooth="yes"/>
      <point x="278.5" y="315.5"/>
      <point x="240" y="278"/>
    </contour>
  </outline>
</glyph>
<glyph name="uni0156" format="1">
  <advance width="679"/>
  <unicode hex="0156"/>
  <outline>
    <contour>
      <point x="292.5" y="300" type="line"/>
      <point x="507.5" y="300" type="line"/>
      <point x="650" y="0" type="line"/>
      <point x="406" y="0" type="line"/>
    </contour>
    <contour>
      <point x="159" y="700" type="line"/>
      <point x="376" y="700" type="line"/>
      <point x="255.5" y="0" type="line"/>
      <point x="39" y="0" type="line"/>
    </contour>
    <contour>
      <point x="266" y="515.5" type="line"/>
      <point x="297" y="700" type="line"/>
      <point x="440.5" y="700" type="line"/>
      <point x="614.5" y="698"/>
      <point x="714" y="606.5"/>
      <point x="691.5" y="460" type="curve" smooth="yes"/>
      <point x="668.5" y="313"/>
      <point x="550" y="222"/>
      <point x="370.5" y="220" type="curve"/>
      <point x="214" y="220" type="line"/>
      <point x="243.5" y="385" type="line"/>
      <point x="368" y="385" type="line"/>
      <point x="416.5" y="386.5"/>
      <point x="456.5" y="408"/>
      <point x="464.5" y="450.5" type="curve" smooth="yes"/>
      <point x="471.5" y="490.5"/>
      <point x="446" y="512.5"/>
      <point x="400" y="514.5" type="curve"/>
    </contour>
    <contour>
      <point x="281.5" y="-61" type="line"/>
      <point x="470.5" y="-96" type="line"/>
      <point x="298.5" y="-343" type="line"/>
      <point x="152" y="-317" type="line"/>
    </contour>
  </outline>
</glyph>
<glyph name="uni0157" format="2">
  <advance width="439"/>
  <unicode hex="0157"/>
  <outline>
    <contour>
      <point x="286.5" y="460" type="line"/>
      <point x="207" y="0" type="line"/>
      <point x="19.5" y="0" type="line"/>
      <point x="98.5" y="460" type="line"/>
    </contour>
    <contour>
      <point x="380.5" y="262.5" type="line"/>
      <point x="368.5" y="277"/>
      <point x="353.5" y="289.5"/>
      <point x="330.5" y="290" type="curve" smooth="yes"/>
      <point x="287" y="291"/>
      <point x="252" y="247"/>
      <point x="241" y="195" type="curve"/>
      <point x="217.5" y="281" type="line"/>
      <point x="234.5" y="377"/>
      <point x="310.5" y="475"/>
      <point x="405" y="472" type="curve" smooth="yes"/>
      <point x="438.5" y="471"/>
      <point x="466" y="451.5"/>
      <point x="482" y="428" type="curve"/>
    </contour>
    <contour>
      <point x="48.5" y="-61" type="line"/>
      <point x="237.5" y="-96" type="line"/>
      <point x="65.5" y="-343" type="line"/>
      <point x="-80.5" y="-317" type="line"/>
    </contour>
  </outline>
</glyph>
